<svg width="1440" height="2526" viewBox="0 0 1440 2526" fill="none" xmlns="http://www.w3.org/2000/svg">
<g clip-path="url(#clip0_30_200)">
<rect width="1440" height="2526" fill="white"/>
<rect y="-172" width="229" height="2526" fill="#FF0000"/>
<rect x="1211" width="229" height="2526" fill="#FF0000"/>
<path d="M0 0H1440V570H0V0Z" fill="#00FF00"/>
<path d="M0 0H1440V149H0V0Z" fill="#FFFF00"/>
<g filter="url(#filter0_d_30_200)">
<rect x="229" y="672" width="982" height="737" rx="65" fill="#D9D9D9"/>
<rect x="229.5" y="672.5" width="981" height="736" rx="64.5" stroke="black"/>
</g>
<path d="M231.79 605V584.06H240.13C242.01 584.06 243.45 584.6 244.45 585.68C245.47 586.74 245.98 588.2 245.98 590.06C245.98 591.92 245.47 593.39 244.45 594.47C243.45 595.53 242.01 596.06 240.13 596.06H234.31V605H231.79ZM234.31 593.84H240.13C241.13 593.84 241.9 593.58 242.44 593.06C243 592.54 243.28 591.8 243.28 590.84V589.28C243.28 588.32 243 587.58 242.44 587.06C241.9 586.54 241.13 586.28 240.13 586.28H234.31V593.84ZM252.503 605H249.983V584.06H258.323C260.163 584.06 261.593 584.57 262.613 585.59C263.653 586.61 264.173 588.08 264.173 590C264.173 591.54 263.813 592.81 263.093 593.81C262.393 594.79 261.353 595.44 259.973 595.76L264.773 605H261.923L257.393 596H252.503V605ZM258.323 593.84C259.323 593.84 260.093 593.58 260.633 593.06C261.193 592.54 261.473 591.8 261.473 590.84V589.28C261.473 588.32 261.193 587.58 260.633 587.06C260.093 586.54 259.323 586.28 258.323 586.28H252.503V593.84H258.323ZM276.71 605.36C275.35 605.36 274.12 605.13 273.02 604.67C271.94 604.19 271.01 603.5 270.23 602.6C269.47 601.68 268.88 600.55 268.46 599.21C268.04 597.85 267.83 596.29 267.83 594.53C267.83 592.77 268.04 591.22 268.46 589.88C268.88 588.54 269.47 587.41 270.23 586.49C271.01 585.57 271.94 584.88 273.02 584.42C274.12 583.94 275.35 583.7 276.71 583.7C278.05 583.7 279.27 583.94 280.37 584.42C281.47 584.88 282.4 585.57 283.16 586.49C283.94 587.41 284.54 588.54 284.96 589.88C285.38 591.22 285.59 592.77 285.59 594.53C285.59 596.29 285.38 597.85 284.96 599.21C284.54 600.55 283.94 601.68 283.16 602.6C282.4 603.5 281.47 604.19 280.37 604.67C279.27 605.13 278.05 605.36 276.71 605.36ZM276.71 603.11C277.61 603.11 278.44 602.95 279.2 602.63C279.96 602.31 280.61 601.85 281.15 601.25C281.71 600.65 282.14 599.93 282.44 599.09C282.74 598.25 282.89 597.31 282.89 596.27V592.79C282.89 591.75 282.74 590.81 282.44 589.97C282.14 589.13 281.71 588.41 281.15 587.81C280.61 587.21 279.96 586.75 279.2 586.43C278.44 586.11 277.61 585.95 276.71 585.95C275.81 585.95 274.98 586.11 274.22 586.43C273.46 586.75 272.8 587.21 272.24 587.81C271.7 588.41 271.28 589.13 270.98 589.97C270.68 590.81 270.53 591.75 270.53 592.79V596.27C270.53 597.31 270.68 598.25 270.98 599.09C271.28 599.93 271.7 600.65 272.24 601.25C272.8 601.85 273.46 602.31 274.22 602.63C274.98 602.95 275.81 603.11 276.71 603.11ZM299.58 584.06V599.57C299.58 600.45 299.43 601.25 299.13 601.97C298.85 602.69 298.44 603.3 297.9 603.8C297.38 604.3 296.75 604.69 296.01 604.97C295.27 605.23 294.46 605.36 293.58 605.36C291.96 605.36 290.65 604.93 289.65 604.07C288.67 603.19 288.04 602.03 287.76 600.59L290.04 600.05C290.24 600.95 290.62 601.69 291.18 602.27C291.74 602.83 292.56 603.11 293.64 603.11C294.72 603.11 295.56 602.78 296.16 602.12C296.76 601.46 297.06 600.46 297.06 599.12V586.28H289.86V584.06H299.58ZM305.003 605V584.06H317.783V586.28H307.523V593.3H317.183V595.52H307.523V602.78H317.783V605H305.003ZM327.983 594.71L325.013 598.01V605H322.493V584.06H325.013V595.19H325.103L328.103 591.56L334.433 584.06H337.523L329.723 593.03L338.063 605H334.943L327.983 594.71ZM347.971 586.28V605H345.451V586.28H338.791V584.06H354.631V586.28H347.971ZM380.059 605H377.029L371.539 596.21H371.479L365.989 605H363.109L369.949 594.35L363.289 584.06H366.319L371.569 592.4H371.629L376.999 584.06H379.879L373.159 594.26L380.059 605ZM398.457 605H395.427L389.937 596.21H389.877L384.387 605H381.507L388.347 594.35L381.687 584.06H384.717L389.967 592.4H390.027L395.397 584.06H398.277L391.557 594.26L398.457 605Z" fill="black"/>
<path d="M230.674 626.436H234.886C235.666 626.436 236.374 626.568 237.01 626.832C237.646 627.096 238.186 627.492 238.63 628.02C239.086 628.536 239.434 629.19 239.674 629.982C239.914 630.762 240.034 631.674 240.034 632.718C240.034 633.762 239.914 634.68 239.674 635.472C239.434 636.252 239.086 636.906 238.63 637.434C238.186 637.95 237.646 638.34 237.01 638.604C236.374 638.868 235.666 639 234.886 639H230.674V626.436ZM234.886 637.668C235.402 637.668 235.876 637.584 236.308 637.416C236.74 637.236 237.112 636.978 237.424 636.642C237.736 636.306 237.976 635.898 238.144 635.418C238.324 634.926 238.414 634.368 238.414 633.744V631.692C238.414 631.068 238.324 630.516 238.144 630.036C237.976 629.544 237.736 629.13 237.424 628.794C237.112 628.458 236.74 628.206 236.308 628.038C235.876 627.858 235.402 627.768 234.886 627.768H232.186V637.668H234.886ZM250.405 639L249.145 635.292H244.069L242.809 639H241.279L245.671 626.436H247.597L251.989 639H250.405ZM246.643 627.84H246.553L244.429 633.96H248.767L246.643 627.84ZM257.123 627.768V639H255.611V627.768H251.615V626.436H261.119V627.768H257.123ZM263.194 639V626.436H270.862V627.768H264.706V631.98H270.502V633.312H264.706V637.668H270.862V639H263.194Z" fill="black"/>
<path d="M345.904 627.768V639H344.392V627.768H340.396V626.436H349.9V627.768H345.904ZM354.943 639V634.032L350.623 626.436H352.351L355.699 632.484H355.753L359.101 626.436H360.829L356.455 633.978V639H354.943ZM362.733 639V626.436H367.737C368.865 626.436 369.729 626.76 370.329 627.408C370.941 628.044 371.247 628.92 371.247 630.036C371.247 631.152 370.941 632.034 370.329 632.682C369.729 633.318 368.865 633.636 367.737 633.636H364.245V639H362.733ZM364.245 632.304H367.737C368.337 632.304 368.799 632.148 369.123 631.836C369.459 631.524 369.627 631.08 369.627 630.504V629.568C369.627 628.992 369.459 628.548 369.123 628.236C368.799 627.924 368.337 627.768 367.737 627.768H364.245V632.304ZM373.649 639V626.436H381.317V627.768H375.161V631.98H380.957V633.312H375.161V637.668H381.317V639H373.649Z" fill="black"/>
<path d="M451.08 639V637.74H452.844V627.696H451.08V626.436H456.12V627.696H454.356V637.74H456.12V639H451.08ZM461.923 631.332L460.411 628.542H460.357V639H458.881V626.436H460.627L465.217 634.104L466.729 636.894H466.783V626.436H468.259V639H466.513L461.923 631.332ZM475.838 627.768V639H474.326V627.768H470.33V626.436H479.834V627.768H475.838ZM481.191 639V637.74H482.955V627.696H481.191V626.436H486.231V627.696H484.467V637.74H486.231V639H481.191ZM493.099 627.768V639H491.587V627.768H487.591V626.436H497.095V627.768H493.099ZM500.592 626.436V634.212C500.592 635.412 500.814 636.324 501.258 636.948C501.702 637.56 502.482 637.866 503.598 637.866C504.714 637.866 505.494 637.56 505.938 636.948C506.382 636.324 506.604 635.412 506.604 634.212V626.436H508.116V633.852C508.116 634.764 508.032 635.556 507.864 636.228C507.708 636.9 507.45 637.458 507.09 637.902C506.73 638.346 506.256 638.676 505.668 638.892C505.092 639.108 504.384 639.216 503.544 639.216C502.704 639.216 501.996 639.108 501.42 638.892C500.856 638.676 500.4 638.346 500.052 637.902C499.704 637.458 499.452 636.9 499.296 636.228C499.152 635.556 499.08 634.764 499.08 633.852V626.436H500.592ZM515.599 627.768V639H514.087V627.768H510.091V626.436H519.595V627.768H515.599ZM520.953 639V637.74H522.717V627.696H520.953V626.436H525.993V627.696H524.229V637.74H525.993V639H520.953ZM533.452 639.216C532.636 639.216 531.898 639.078 531.238 638.802C530.59 638.514 530.032 638.1 529.564 637.56C529.108 637.008 528.754 636.33 528.502 635.526C528.25 634.71 528.124 633.774 528.124 632.718C528.124 631.662 528.25 630.732 528.502 629.928C528.754 629.124 529.108 628.446 529.564 627.894C530.032 627.342 530.59 626.928 531.238 626.652C531.898 626.364 532.636 626.22 533.452 626.22C534.256 626.22 534.988 626.364 535.648 626.652C536.308 626.928 536.866 627.342 537.322 627.894C537.79 628.446 538.15 629.124 538.402 629.928C538.654 630.732 538.78 631.662 538.78 632.718C538.78 633.774 538.654 634.71 538.402 635.526C538.15 636.33 537.79 637.008 537.322 637.56C536.866 638.1 536.308 638.514 535.648 638.802C534.988 639.078 534.256 639.216 533.452 639.216ZM533.452 637.866C533.992 637.866 534.49 637.77 534.946 637.578C535.402 637.386 535.792 637.11 536.116 636.75C536.452 636.39 536.71 635.958 536.89 635.454C537.07 634.95 537.16 634.386 537.16 633.762V631.674C537.16 631.05 537.07 630.486 536.89 629.982C536.71 629.478 536.452 629.046 536.116 628.686C535.792 628.326 535.402 628.05 534.946 627.858C534.49 627.666 533.992 627.57 533.452 627.57C532.912 627.57 532.414 627.666 531.958 627.858C531.502 628.05 531.106 628.326 530.77 628.686C530.446 629.046 530.194 629.478 530.014 629.982C529.834 630.486 529.744 631.05 529.744 631.674V633.762C529.744 634.386 529.834 634.95 530.014 635.454C530.194 635.958 530.446 636.39 530.77 636.75C531.106 637.11 531.502 637.386 531.958 637.578C532.414 637.77 532.912 637.866 533.452 637.866ZM544.54 631.332L543.028 628.542H542.974V639H541.498V626.436H543.244L547.834 634.104L549.346 636.894H549.4V626.436H550.876V639H549.13L544.54 631.332Z" fill="black"/>
<path d="M982.55 68.52H984.95V71.04H985.07C985.47 70.06 986.05 69.34 986.81 68.88C987.59 68.4 988.52 68.16 989.6 68.16C990.56 68.16 991.43 68.35 992.21 68.73C992.99 69.11 993.65 69.65 994.19 70.35C994.75 71.05 995.17 71.9 995.45 72.9C995.75 73.9 995.9 75.02 995.9 76.26C995.9 77.5 995.75 78.62 995.45 79.62C995.17 80.62 994.75 81.47 994.19 82.17C993.65 82.87 992.99 83.41 992.21 83.79C991.43 84.17 990.56 84.36 989.6 84.36C987.5 84.36 985.99 83.4 985.07 81.48H984.95V90H982.55V68.52ZM988.94 82.2C990.3 82.2 991.37 81.78 992.15 80.94C992.93 80.08 993.32 78.96 993.32 77.58V74.94C993.32 73.56 992.93 72.45 992.15 71.61C991.37 70.75 990.3 70.32 988.94 70.32C988.4 70.32 987.88 70.4 987.38 70.56C986.9 70.7 986.48 70.9 986.12 71.16C985.76 71.42 985.47 71.74 985.25 72.12C985.05 72.48 984.95 72.87 984.95 73.29V79.05C984.95 79.55 985.05 80 985.25 80.4C985.47 80.78 985.76 81.11 986.12 81.39C986.48 81.65 986.9 81.85 987.38 81.99C987.88 82.13 988.4 82.2 988.94 82.2ZM999.952 84V68.52H1002.35V71.37H1002.5C1002.78 70.63 1003.28 69.97 1004 69.39C1004.72 68.81 1005.71 68.52 1006.97 68.52H1007.9V70.92H1006.49C1005.19 70.92 1004.17 71.17 1003.43 71.67C1002.71 72.15 1002.35 72.76 1002.35 73.5V84H999.952ZM1016.67 84.36C1015.63 84.36 1014.68 84.17 1013.82 83.79C1012.96 83.41 1012.22 82.87 1011.6 82.17C1011 81.45 1010.53 80.6 1010.19 79.62C1009.85 78.62 1009.68 77.5 1009.68 76.26C1009.68 75.04 1009.85 73.93 1010.19 72.93C1010.53 71.93 1011 71.08 1011.6 70.38C1012.22 69.66 1012.96 69.11 1013.82 68.73C1014.68 68.35 1015.63 68.16 1016.67 68.16C1017.71 68.16 1018.65 68.35 1019.49 68.73C1020.35 69.11 1021.09 69.66 1021.71 70.38C1022.33 71.08 1022.81 71.93 1023.15 72.93C1023.49 73.93 1023.66 75.04 1023.66 76.26C1023.66 77.5 1023.49 78.62 1023.15 79.62C1022.81 80.6 1022.33 81.45 1021.71 82.17C1021.09 82.87 1020.35 83.41 1019.49 83.79C1018.65 84.17 1017.71 84.36 1016.67 84.36ZM1016.67 82.23C1017.97 82.23 1019.03 81.83 1019.85 81.03C1020.67 80.23 1021.08 79.01 1021.08 77.37V75.15C1021.08 73.51 1020.67 72.29 1019.85 71.49C1019.03 70.69 1017.97 70.29 1016.67 70.29C1015.37 70.29 1014.31 70.69 1013.49 71.49C1012.67 72.29 1012.26 73.51 1012.26 75.15V77.37C1012.26 79.01 1012.67 80.23 1013.49 81.03C1014.31 81.83 1015.37 82.23 1016.67 82.23ZM1027.61 68.52H1030.01V86.4C1030.01 87.48 1029.74 88.35 1029.2 89.01C1028.66 89.67 1027.81 90 1026.65 90H1025.09V87.9H1027.61V68.52ZM1028.81 64.89C1028.29 64.89 1027.91 64.77 1027.67 64.53C1027.45 64.27 1027.34 63.94 1027.34 63.54V63.15C1027.34 62.75 1027.45 62.43 1027.67 62.19C1027.91 61.93 1028.29 61.8 1028.81 61.8C1029.33 61.8 1029.7 61.93 1029.92 62.19C1030.16 62.43 1030.28 62.75 1030.28 63.15V63.54C1030.28 63.94 1030.16 64.27 1029.92 64.53C1029.7 64.77 1029.33 64.89 1028.81 64.89ZM1040.93 84.36C1039.87 84.36 1038.91 84.17 1038.05 83.79C1037.21 83.41 1036.48 82.87 1035.86 82.17C1035.26 81.45 1034.79 80.6 1034.45 79.62C1034.13 78.62 1033.97 77.5 1033.97 76.26C1033.97 75.04 1034.13 73.93 1034.45 72.93C1034.79 71.93 1035.26 71.08 1035.86 70.38C1036.48 69.66 1037.21 69.11 1038.05 68.73C1038.91 68.35 1039.87 68.16 1040.93 68.16C1041.97 68.16 1042.9 68.35 1043.72 68.73C1044.54 69.11 1045.24 69.64 1045.82 70.32C1046.4 70.98 1046.84 71.77 1047.14 72.69C1047.46 73.61 1047.62 74.62 1047.62 75.72V76.86H1036.49V77.58C1036.49 78.24 1036.59 78.86 1036.79 79.44C1037.01 80 1037.31 80.49 1037.69 80.91C1038.09 81.33 1038.57 81.66 1039.13 81.9C1039.71 82.14 1040.36 82.26 1041.08 82.26C1042.06 82.26 1042.91 82.03 1043.63 81.57C1044.37 81.11 1044.94 80.45 1045.34 79.59L1047.05 80.82C1046.55 81.88 1045.77 82.74 1044.71 83.4C1043.65 84.04 1042.39 84.36 1040.93 84.36ZM1040.93 70.17C1040.27 70.17 1039.67 70.29 1039.13 70.53C1038.59 70.75 1038.12 71.07 1037.72 71.49C1037.34 71.91 1037.04 72.41 1036.82 72.99C1036.6 73.55 1036.49 74.17 1036.49 74.85V75.06H1045.04V74.73C1045.04 73.35 1044.66 72.25 1043.9 71.43C1043.16 70.59 1042.17 70.17 1040.93 70.17ZM1057.33 84.36C1056.25 84.36 1055.28 84.17 1054.42 83.79C1053.56 83.41 1052.83 82.87 1052.23 82.17C1051.65 81.47 1051.2 80.62 1050.88 79.62C1050.58 78.62 1050.43 77.5 1050.43 76.26C1050.43 75.02 1050.58 73.9 1050.88 72.9C1051.2 71.9 1051.65 71.05 1052.23 70.35C1052.83 69.65 1053.56 69.11 1054.42 68.73C1055.28 68.35 1056.25 68.16 1057.33 68.16C1058.87 68.16 1060.1 68.5 1061.02 69.18C1061.96 69.84 1062.66 70.71 1063.12 71.79L1061.11 72.81C1060.83 72.01 1060.37 71.39 1059.73 70.95C1059.09 70.51 1058.29 70.29 1057.33 70.29C1056.61 70.29 1055.98 70.41 1055.44 70.65C1054.9 70.87 1054.45 71.19 1054.09 71.61C1053.73 72.01 1053.46 72.5 1053.28 73.08C1053.1 73.64 1053.01 74.26 1053.01 74.94V77.58C1053.01 78.94 1053.37 80.06 1054.09 80.94C1054.83 81.8 1055.91 82.23 1057.33 82.23C1059.27 82.23 1060.67 81.33 1061.53 79.53L1063.27 80.7C1062.77 81.82 1062.02 82.71 1061.02 83.37C1060.04 84.03 1058.81 84.36 1057.33 84.36ZM1070.08 84C1069.24 84 1068.6 83.77 1068.16 83.31C1067.74 82.83 1067.53 82.21 1067.53 81.45V70.62H1064.98V68.52H1066.42C1066.94 68.52 1067.29 68.42 1067.47 68.22C1067.67 68 1067.77 67.63 1067.77 67.11V64.23H1069.93V68.52H1073.32V70.62H1069.93V81.9H1073.08V84H1070.08ZM1081.83 84.36C1080.39 84.36 1079.18 84.09 1078.2 83.55C1077.24 82.99 1076.41 82.25 1075.71 81.33L1077.42 79.95C1078.02 80.71 1078.69 81.3 1079.43 81.72C1080.17 82.12 1081.03 82.32 1082.01 82.32C1083.03 82.32 1083.82 82.1 1084.38 81.66C1084.96 81.22 1085.25 80.6 1085.25 79.8C1085.25 79.2 1085.05 78.69 1084.65 78.27C1084.27 77.83 1083.57 77.53 1082.55 77.37L1081.32 77.19C1080.6 77.09 1079.94 76.94 1079.34 76.74C1078.74 76.52 1078.21 76.24 1077.75 75.9C1077.31 75.54 1076.96 75.1 1076.7 74.58C1076.46 74.06 1076.34 73.44 1076.34 72.72C1076.34 71.96 1076.48 71.3 1076.76 70.74C1077.04 70.16 1077.42 69.68 1077.9 69.3C1078.4 68.92 1078.99 68.64 1079.67 68.46C1080.35 68.26 1081.08 68.16 1081.86 68.16C1083.12 68.16 1084.17 68.38 1085.01 68.82C1085.87 69.26 1086.62 69.87 1087.26 70.65L1085.67 72.09C1085.33 71.61 1084.83 71.18 1084.17 70.8C1083.51 70.4 1082.68 70.2 1081.68 70.2C1080.68 70.2 1079.92 70.42 1079.4 70.86C1078.9 71.28 1078.65 71.86 1078.65 72.6C1078.65 73.36 1078.9 73.91 1079.4 74.25C1079.92 74.59 1080.66 74.84 1081.62 75L1082.82 75.18C1084.54 75.44 1085.76 75.94 1086.48 76.68C1087.2 77.4 1087.56 78.35 1087.56 79.53C1087.56 81.03 1087.05 82.21 1086.03 83.07C1085.01 83.93 1083.61 84.36 1081.83 84.36Z" fill="black"/>
<path d="M861.22 84V68.34H865.06V70.95H865.21C865.51 70.13 865.99 69.43 866.65 68.85C867.31 68.27 868.23 67.98 869.41 67.98C870.49 67.98 871.42 68.24 872.2 68.76C872.98 69.28 873.56 70.07 873.94 71.13H874C874.28 70.25 874.83 69.51 875.65 68.91C876.49 68.29 877.54 67.98 878.8 67.98C880.34 67.98 881.52 68.51 882.34 69.57C883.18 70.63 883.6 72.14 883.6 74.1V84H879.76V74.49C879.76 72.25 878.92 71.13 877.24 71.13C876.86 71.13 876.49 71.19 876.13 71.31C875.79 71.41 875.48 71.57 875.2 71.79C874.94 71.99 874.73 72.25 874.57 72.57C874.41 72.87 874.33 73.23 874.33 73.65V84H870.49V74.49C870.49 72.25 869.65 71.13 867.97 71.13C867.61 71.13 867.25 71.19 866.89 71.31C866.55 71.41 866.24 71.57 865.96 71.79C865.7 71.99 865.48 72.25 865.3 72.57C865.14 72.87 865.06 73.23 865.06 73.65V84H861.22ZM899.371 84C898.531 84 897.861 83.76 897.361 83.28C896.881 82.78 896.581 82.12 896.461 81.3H896.281C896.021 82.32 895.491 83.09 894.691 83.61C893.891 84.11 892.901 84.36 891.721 84.36C890.121 84.36 888.891 83.94 888.031 83.1C887.171 82.26 886.741 81.14 886.741 79.74C886.741 78.12 887.321 76.92 888.481 76.14C889.641 75.34 891.291 74.94 893.431 74.94H896.101V73.8C896.101 72.92 895.871 72.24 895.411 71.76C894.951 71.28 894.211 71.04 893.191 71.04C892.291 71.04 891.561 71.24 891.001 71.64C890.461 72.02 890.001 72.48 889.621 73.02L887.341 70.98C887.921 70.08 888.691 69.36 889.651 68.82C890.611 68.26 891.881 67.98 893.461 67.98C895.581 67.98 897.191 68.46 898.291 69.42C899.391 70.38 899.941 71.76 899.941 73.56V80.94H901.501V84H899.371ZM893.011 81.57C893.871 81.57 894.601 81.38 895.201 81C895.801 80.62 896.101 80.06 896.101 79.32V77.25H893.641C891.641 77.25 890.641 77.89 890.641 79.17V79.68C890.641 80.32 890.841 80.8 891.241 81.12C891.661 81.42 892.251 81.57 893.011 81.57ZM906.529 66.06C905.729 66.06 905.149 65.88 904.789 65.52C904.449 65.16 904.279 64.7 904.279 64.14V63.54C904.279 62.98 904.449 62.52 904.789 62.16C905.149 61.8 905.729 61.62 906.529 61.62C907.309 61.62 907.879 61.8 908.239 62.16C908.599 62.52 908.779 62.98 908.779 63.54V64.14C908.779 64.7 908.599 65.16 908.239 65.52C907.879 65.88 907.309 66.06 906.529 66.06ZM904.609 68.34H908.449V84H904.609V68.34ZM912.9 84V68.34H916.74V70.95H916.89C917.21 70.11 917.71 69.41 918.39 68.85C919.09 68.27 920.05 67.98 921.27 67.98C922.89 67.98 924.13 68.51 924.99 69.57C925.85 70.63 926.28 72.14 926.28 74.1V84H922.44V74.49C922.44 73.37 922.24 72.53 921.84 71.97C921.44 71.41 920.78 71.13 919.86 71.13C919.46 71.13 919.07 71.19 918.69 71.31C918.33 71.41 918 71.57 917.7 71.79C917.42 71.99 917.19 72.25 917.01 72.57C916.83 72.87 916.74 73.23 916.74 73.65V84H912.9Z" fill="black"/>
<path d="M1159.8 84C1158.9 84 1158.25 83.76 1157.85 83.28C1157.47 82.8 1157.23 82.2 1157.13 81.48H1156.98C1156.64 82.44 1156.08 83.16 1155.3 83.64C1154.52 84.12 1153.59 84.36 1152.51 84.36C1150.87 84.36 1149.59 83.94 1148.67 83.1C1147.77 82.26 1147.32 81.12 1147.32 79.68C1147.32 78.22 1147.85 77.1 1148.91 76.32C1149.99 75.54 1151.66 75.15 1153.92 75.15H1156.98V73.62C1156.98 72.52 1156.68 71.68 1156.08 71.1C1155.48 70.52 1154.56 70.23 1153.32 70.23C1152.38 70.23 1151.59 70.44 1150.95 70.86C1150.33 71.28 1149.81 71.84 1149.39 72.54L1147.95 71.19C1148.37 70.35 1149.04 69.64 1149.96 69.06C1150.88 68.46 1152.04 68.16 1153.44 68.16C1155.32 68.16 1156.78 68.62 1157.82 69.54C1158.86 70.46 1159.38 71.74 1159.38 73.38V81.9H1161.15V84H1159.8ZM1152.9 82.32C1153.5 82.32 1154.05 82.25 1154.55 82.11C1155.05 81.97 1155.48 81.77 1155.84 81.51C1156.2 81.25 1156.48 80.95 1156.68 80.61C1156.88 80.27 1156.98 79.9 1156.98 79.5V76.95H1153.8C1152.42 76.95 1151.41 77.15 1150.77 77.55C1150.15 77.95 1149.84 78.53 1149.84 79.29V79.92C1149.84 80.68 1150.11 81.27 1150.65 81.69C1151.21 82.11 1151.96 82.32 1152.9 82.32ZM1164.58 61.8H1166.98V71.04H1167.1C1167.5 70.06 1168.08 69.34 1168.84 68.88C1169.62 68.4 1170.55 68.16 1171.63 68.16C1172.59 68.16 1173.46 68.35 1174.24 68.73C1175.02 69.11 1175.68 69.65 1176.22 70.35C1176.78 71.05 1177.2 71.9 1177.48 72.9C1177.78 73.9 1177.93 75.02 1177.93 76.26C1177.93 77.5 1177.78 78.62 1177.48 79.62C1177.2 80.62 1176.78 81.47 1176.22 82.17C1175.68 82.87 1175.02 83.41 1174.24 83.79C1173.46 84.17 1172.59 84.36 1171.63 84.36C1169.53 84.36 1168.02 83.4 1167.1 81.48H1166.98V84H1164.58V61.8ZM1170.97 82.2C1172.33 82.2 1173.4 81.78 1174.18 80.94C1174.96 80.08 1175.35 78.96 1175.35 77.58V74.94C1175.35 73.56 1174.96 72.45 1174.18 71.61C1173.4 70.75 1172.33 70.32 1170.97 70.32C1170.43 70.32 1169.91 70.4 1169.41 70.56C1168.93 70.7 1168.51 70.9 1168.15 71.16C1167.79 71.42 1167.5 71.74 1167.28 72.12C1167.08 72.48 1166.98 72.87 1166.98 73.29V79.05C1166.98 79.55 1167.08 80 1167.28 80.4C1167.5 80.78 1167.79 81.11 1168.15 81.39C1168.51 81.65 1168.93 81.85 1169.41 81.99C1169.91 82.13 1170.43 82.2 1170.97 82.2ZM1187.83 84.36C1186.79 84.36 1185.84 84.17 1184.98 83.79C1184.12 83.41 1183.38 82.87 1182.76 82.17C1182.16 81.45 1181.69 80.6 1181.35 79.62C1181.01 78.62 1180.84 77.5 1180.84 76.26C1180.84 75.04 1181.01 73.93 1181.35 72.93C1181.69 71.93 1182.16 71.08 1182.76 70.38C1183.38 69.66 1184.12 69.11 1184.98 68.73C1185.84 68.35 1186.79 68.16 1187.83 68.16C1188.87 68.16 1189.81 68.35 1190.65 68.73C1191.51 69.11 1192.25 69.66 1192.87 70.38C1193.49 71.08 1193.97 71.93 1194.31 72.93C1194.65 73.93 1194.82 75.04 1194.82 76.26C1194.82 77.5 1194.65 78.62 1194.31 79.62C1193.97 80.6 1193.49 81.45 1192.87 82.17C1192.25 82.87 1191.51 83.41 1190.65 83.79C1189.81 84.17 1188.87 84.36 1187.83 84.36ZM1187.83 82.23C1189.13 82.23 1190.19 81.83 1191.01 81.03C1191.83 80.23 1192.24 79.01 1192.24 77.37V75.15C1192.24 73.51 1191.83 72.29 1191.01 71.49C1190.19 70.69 1189.13 70.29 1187.83 70.29C1186.53 70.29 1185.47 70.69 1184.65 71.49C1183.83 72.29 1183.42 73.51 1183.42 75.15V77.37C1183.42 79.01 1183.83 80.23 1184.65 81.03C1185.47 81.83 1186.53 82.23 1187.83 82.23ZM1208.3 81.48H1208.18C1208.02 81.84 1207.82 82.2 1207.58 82.56C1207.36 82.9 1207.08 83.21 1206.74 83.49C1206.4 83.75 1205.99 83.96 1205.51 84.12C1205.03 84.28 1204.47 84.36 1203.83 84.36C1202.23 84.36 1200.96 83.85 1200.02 82.83C1199.08 81.79 1198.61 80.33 1198.61 78.45V68.52H1201.01V78.03C1201.01 80.81 1202.19 82.2 1204.55 82.2C1205.03 82.2 1205.49 82.14 1205.93 82.02C1206.39 81.9 1206.79 81.72 1207.13 81.48C1207.49 81.24 1207.77 80.94 1207.97 80.58C1208.19 80.2 1208.3 79.75 1208.3 79.23V68.52H1210.7V84H1208.3V81.48ZM1219.24 84C1218.4 84 1217.76 83.77 1217.32 83.31C1216.9 82.83 1216.69 82.21 1216.69 81.45V70.62H1214.14V68.52H1215.58C1216.1 68.52 1216.45 68.42 1216.63 68.22C1216.83 68 1216.93 67.63 1216.93 67.11V64.23H1219.09V68.52H1222.48V70.62H1219.09V81.9H1222.24V84H1219.24Z" fill="black"/>
<path d="M1285.55 61.8H1287.95V71.04H1288.07C1288.47 70.06 1289.05 69.34 1289.81 68.88C1290.59 68.4 1291.52 68.16 1292.6 68.16C1293.56 68.16 1294.43 68.35 1295.21 68.73C1295.99 69.11 1296.65 69.65 1297.19 70.35C1297.75 71.05 1298.17 71.9 1298.45 72.9C1298.75 73.9 1298.9 75.02 1298.9 76.26C1298.9 77.5 1298.75 78.62 1298.45 79.62C1298.17 80.62 1297.75 81.47 1297.19 82.17C1296.65 82.87 1295.99 83.41 1295.21 83.79C1294.43 84.17 1293.56 84.36 1292.6 84.36C1290.5 84.36 1288.99 83.4 1288.07 81.48H1287.95V84H1285.55V61.8ZM1291.94 82.2C1293.3 82.2 1294.37 81.78 1295.15 80.94C1295.93 80.08 1296.32 78.96 1296.32 77.58V74.94C1296.32 73.56 1295.93 72.45 1295.15 71.61C1294.37 70.75 1293.3 70.32 1291.94 70.32C1291.4 70.32 1290.88 70.4 1290.38 70.56C1289.9 70.7 1289.48 70.9 1289.12 71.16C1288.76 71.42 1288.47 71.74 1288.25 72.12C1288.05 72.48 1287.95 72.87 1287.95 73.29V79.05C1287.95 79.55 1288.05 80 1288.25 80.4C1288.47 80.78 1288.76 81.11 1289.12 81.39C1289.48 81.65 1289.9 81.85 1290.38 81.99C1290.88 82.13 1291.4 82.2 1291.94 82.2ZM1305.5 84C1304.66 84 1304.02 83.77 1303.58 83.31C1303.16 82.83 1302.95 82.23 1302.95 81.51V61.8H1305.35V81.9H1307.63V84H1305.5ZM1316.98 84.36C1315.94 84.36 1314.99 84.17 1314.13 83.79C1313.27 83.41 1312.53 82.87 1311.91 82.17C1311.31 81.45 1310.84 80.6 1310.5 79.62C1310.16 78.62 1309.99 77.5 1309.99 76.26C1309.99 75.04 1310.16 73.93 1310.5 72.93C1310.84 71.93 1311.31 71.08 1311.91 70.38C1312.53 69.66 1313.27 69.11 1314.13 68.73C1314.99 68.35 1315.94 68.16 1316.98 68.16C1318.02 68.16 1318.96 68.35 1319.8 68.73C1320.66 69.11 1321.4 69.66 1322.02 70.38C1322.64 71.08 1323.12 71.93 1323.46 72.93C1323.8 73.93 1323.97 75.04 1323.97 76.26C1323.97 77.5 1323.8 78.62 1323.46 79.62C1323.12 80.6 1322.64 81.45 1322.02 82.17C1321.4 82.87 1320.66 83.41 1319.8 83.79C1318.96 84.17 1318.02 84.36 1316.98 84.36ZM1316.98 82.23C1318.28 82.23 1319.34 81.83 1320.16 81.03C1320.98 80.23 1321.39 79.01 1321.39 77.37V75.15C1321.39 73.51 1320.98 72.29 1320.16 71.49C1319.34 70.69 1318.28 70.29 1316.98 70.29C1315.68 70.29 1314.62 70.69 1313.8 71.49C1312.98 72.29 1312.57 73.51 1312.57 75.15V77.37C1312.57 79.01 1312.98 80.23 1313.8 81.03C1314.62 81.83 1315.68 82.23 1316.98 82.23ZM1340.96 85.71C1340.96 87.31 1340.33 88.48 1339.07 89.22C1337.83 89.98 1335.96 90.36 1333.46 90.36C1331.04 90.36 1329.3 90.03 1328.24 89.37C1327.18 88.71 1326.65 87.77 1326.65 86.55C1326.65 85.71 1326.87 85.05 1327.31 84.57C1327.75 84.11 1328.35 83.77 1329.11 83.55V83.22C1328.19 82.78 1327.73 82.06 1327.73 81.06C1327.73 80.28 1327.98 79.69 1328.48 79.29C1328.98 78.87 1329.62 78.56 1330.4 78.36V78.24C1329.48 77.8 1328.76 77.17 1328.24 76.35C1327.74 75.53 1327.49 74.58 1327.49 73.5C1327.49 72.72 1327.63 72 1327.91 71.34C1328.19 70.68 1328.58 70.12 1329.08 69.66C1329.6 69.18 1330.21 68.81 1330.91 68.55C1331.63 68.29 1332.43 68.16 1333.31 68.16C1334.41 68.16 1335.39 68.36 1336.25 68.76V68.49C1336.25 67.89 1336.39 67.4 1336.67 67.02C1336.95 66.62 1337.41 66.42 1338.05 66.42H1340.36V68.52H1337.42V69.51C1337.98 69.99 1338.41 70.57 1338.71 71.25C1339.03 71.91 1339.19 72.66 1339.19 73.5C1339.19 74.28 1339.05 75 1338.77 75.66C1338.49 76.32 1338.09 76.89 1337.57 77.37C1337.07 77.83 1336.46 78.19 1335.74 78.45C1335.02 78.71 1334.22 78.84 1333.34 78.84C1332.84 78.84 1332.34 78.79 1331.84 78.69C1331.32 78.83 1330.85 79.04 1330.43 79.32C1330.01 79.58 1329.8 79.95 1329.8 80.43C1329.8 80.89 1330.02 81.2 1330.46 81.36C1330.9 81.52 1331.47 81.6 1332.17 81.6H1335.47C1337.39 81.6 1338.78 81.97 1339.64 82.71C1340.52 83.43 1340.96 84.43 1340.96 85.71ZM1338.71 85.89C1338.71 85.27 1338.47 84.77 1337.99 84.39C1337.53 84.03 1336.7 83.85 1335.5 83.85H1330.34C1329.38 84.29 1328.9 84.99 1328.9 85.95C1328.9 86.63 1329.15 87.21 1329.65 87.69C1330.17 88.17 1331.04 88.41 1332.26 88.41H1334.48C1335.82 88.41 1336.86 88.2 1337.6 87.78C1338.34 87.36 1338.71 86.73 1338.71 85.89ZM1333.34 76.92C1334.36 76.92 1335.17 76.68 1335.77 76.2C1336.37 75.7 1336.67 74.94 1336.67 73.92V73.08C1336.67 72.06 1336.37 71.31 1335.77 70.83C1335.17 70.33 1334.36 70.08 1333.34 70.08C1332.32 70.08 1331.51 70.33 1330.91 70.83C1330.31 71.31 1330.01 72.06 1330.01 73.08V73.92C1330.01 74.94 1330.31 75.7 1330.91 76.2C1331.51 76.68 1332.32 76.92 1333.34 76.92Z" fill="black"/>
<circle cx="115" cy="593" r="20" stroke="#0000FF" stroke-width="6"/>
<circle cx="115" cy="593" r="12" fill="#0000FF"/>
<circle cx="115" cy="72" r="12" fill="#0000FF"/>
<circle cx="115" cy="234" r="12" fill="#0000FF"/>
<path d="M232.825 216.7H236.425V230.56H236.605C237.175 229.24 237.97 228.19 238.99 227.41C240.04 226.63 241.435 226.24 243.175 226.24C245.575 226.24 247.465 227.02 248.845 228.58C250.255 230.11 250.96 232.285 250.96 235.105V250H247.36V235.735C247.36 231.565 245.605 229.48 242.095 229.48C241.375 229.48 240.67 229.57 239.98 229.75C239.32 229.93 238.72 230.2 238.18 230.56C237.64 230.92 237.205 231.385 236.875 231.955C236.575 232.495 236.425 233.14 236.425 233.89V250H232.825V216.7ZM267.131 250.54C265.541 250.54 264.101 250.255 262.811 249.685C261.551 249.115 260.456 248.305 259.526 247.255C258.626 246.175 257.921 244.9 257.411 243.43C256.931 241.93 256.691 240.25 256.691 238.39C256.691 236.56 256.931 234.895 257.411 233.395C257.921 231.895 258.626 230.62 259.526 229.57C260.456 228.49 261.551 227.665 262.811 227.095C264.101 226.525 265.541 226.24 267.131 226.24C268.691 226.24 270.086 226.525 271.316 227.095C272.546 227.665 273.596 228.46 274.466 229.48C275.336 230.47 275.996 231.655 276.446 233.035C276.926 234.415 277.166 235.93 277.166 237.58V239.29H260.471V240.37C260.471 241.36 260.621 242.29 260.921 243.16C261.251 244 261.701 244.735 262.271 245.365C262.871 245.995 263.591 246.49 264.431 246.85C265.301 247.21 266.276 247.39 267.356 247.39C268.826 247.39 270.101 247.045 271.181 246.355C272.291 245.665 273.146 244.675 273.746 243.385L276.311 245.23C275.561 246.82 274.391 248.11 272.801 249.1C271.211 250.06 269.321 250.54 267.131 250.54ZM267.131 229.255C266.141 229.255 265.241 229.435 264.431 229.795C263.621 230.125 262.916 230.605 262.316 231.235C261.746 231.865 261.296 232.615 260.966 233.485C260.636 234.325 260.471 235.255 260.471 236.275V236.59H273.296V236.095C273.296 234.025 272.726 232.375 271.586 231.145C270.476 229.885 268.991 229.255 267.131 229.255ZM297.189 226.78H300.744L290.349 255.4C290.079 256.09 289.809 256.66 289.539 257.11C289.269 257.59 288.939 257.965 288.549 258.235C288.159 258.505 287.664 258.7 287.064 258.82C286.494 258.94 285.789 259 284.949 259H283.104V255.85H286.749L288.504 250.9L279.819 226.78H283.419L288.999 242.575L290.079 246.355H290.304L291.564 242.575L297.189 226.78ZM305.169 250.54C304.209 250.54 303.504 250.3 303.054 249.82C302.634 249.34 302.424 248.71 302.424 247.93V247.345C302.424 246.565 302.634 245.935 303.054 245.455C303.504 244.975 304.209 244.735 305.169 244.735C306.129 244.735 306.819 244.975 307.239 245.455C307.689 245.935 307.914 246.565 307.914 247.345V247.93C307.914 248.71 307.689 249.34 307.239 249.82C306.819 250.3 306.129 250.54 305.169 250.54ZM327.569 221.335C326.789 221.335 326.219 221.155 325.859 220.795C325.529 220.405 325.364 219.91 325.364 219.31V218.725C325.364 218.125 325.529 217.645 325.859 217.285C326.219 216.895 326.789 216.7 327.569 216.7C328.349 216.7 328.904 216.895 329.234 217.285C329.594 217.645 329.774 218.125 329.774 218.725V219.31C329.774 219.91 329.594 220.405 329.234 220.795C328.904 221.155 328.349 221.335 327.569 221.335ZM325.769 226.78H329.369V250H325.769V226.78ZM337.019 229.3V216.7H340.259V229.3H337.019ZM347.918 250V226.78H351.518V230.56H351.698C351.968 229.96 352.268 229.405 352.598 228.895C352.958 228.355 353.378 227.89 353.858 227.5C354.368 227.11 354.953 226.81 355.613 226.6C356.273 226.36 357.053 226.24 357.953 226.24C359.483 226.24 360.893 226.615 362.183 227.365C363.473 228.085 364.433 229.285 365.063 230.965H365.153C365.573 229.705 366.353 228.61 367.493 227.68C368.663 226.72 370.238 226.24 372.218 226.24C374.588 226.24 376.433 227.02 377.753 228.58C379.103 230.11 379.778 232.285 379.778 235.105V250H376.178V235.735C376.178 233.665 375.773 232.105 374.963 231.055C374.153 230.005 372.863 229.48 371.093 229.48C370.373 229.48 369.683 229.57 369.023 229.75C368.393 229.93 367.823 230.2 367.313 230.56C366.803 230.92 366.398 231.385 366.098 231.955C365.798 232.495 365.648 233.14 365.648 233.89V250H362.048V235.735C362.048 233.665 361.643 232.105 360.833 231.055C360.023 230.005 358.763 229.48 357.053 229.48C356.333 229.48 355.643 229.57 354.983 229.75C354.323 229.93 353.738 230.2 353.228 230.56C352.718 230.92 352.298 231.385 351.968 231.955C351.668 232.495 351.518 233.14 351.518 233.89V250H347.918ZM397.84 250V226.78H401.44V231.055H401.665C402.085 229.945 402.835 228.955 403.915 228.085C404.995 227.215 406.48 226.78 408.37 226.78H409.765V230.38H407.65C405.7 230.38 404.17 230.755 403.06 231.505C401.98 232.225 401.44 233.14 401.44 234.25V250H397.84ZM431.062 250C429.712 250 428.737 249.64 428.137 248.92C427.567 248.2 427.207 247.3 427.057 246.22H426.832C426.322 247.66 425.482 248.74 424.312 249.46C423.142 250.18 421.747 250.54 420.127 250.54C417.667 250.54 415.747 249.91 414.367 248.65C413.017 247.39 412.342 245.68 412.342 243.52C412.342 241.33 413.137 239.65 414.727 238.48C416.347 237.31 418.852 236.725 422.242 236.725H426.832V234.43C426.832 232.78 426.382 231.52 425.482 230.65C424.582 229.78 423.202 229.345 421.342 229.345C419.932 229.345 418.747 229.66 417.787 230.29C416.857 230.92 416.077 231.76 415.447 232.81L413.287 230.785C413.917 229.525 414.922 228.46 416.302 227.59C417.682 226.69 419.422 226.24 421.522 226.24C424.342 226.24 426.532 226.93 428.092 228.31C429.652 229.69 430.432 231.61 430.432 234.07V246.85H433.087V250H431.062ZM420.712 247.48C421.612 247.48 422.437 247.375 423.187 247.165C423.937 246.955 424.582 246.655 425.122 246.265C425.662 245.875 426.082 245.425 426.382 244.915C426.682 244.405 426.832 243.85 426.832 243.25V239.425H422.062C419.992 239.425 418.477 239.725 417.517 240.325C416.587 240.925 416.122 241.795 416.122 242.935V243.88C416.122 245.02 416.527 245.905 417.337 246.535C418.177 247.165 419.302 247.48 420.712 247.48ZM439.485 229.93H435.705V226.78H439.485V222.1C439.485 220.48 439.905 219.175 440.745 218.185C441.585 217.195 442.86 216.7 444.57 216.7H448.08V219.85H443.085V226.78H448.08V229.93H443.085V250H439.485V229.93ZM469.69 250C468.34 250 467.365 249.64 466.765 248.92C466.195 248.2 465.835 247.3 465.685 246.22H465.46C464.95 247.66 464.11 248.74 462.94 249.46C461.77 250.18 460.375 250.54 458.755 250.54C456.295 250.54 454.375 249.91 452.995 248.65C451.645 247.39 450.97 245.68 450.97 243.52C450.97 241.33 451.765 239.65 453.355 238.48C454.975 237.31 457.48 236.725 460.87 236.725H465.46V234.43C465.46 232.78 465.01 231.52 464.11 230.65C463.21 229.78 461.83 229.345 459.97 229.345C458.56 229.345 457.375 229.66 456.415 230.29C455.485 230.92 454.705 231.76 454.075 232.81L451.915 230.785C452.545 229.525 453.55 228.46 454.93 227.59C456.31 226.69 458.05 226.24 460.15 226.24C462.97 226.24 465.16 226.93 466.72 228.31C468.28 229.69 469.06 231.61 469.06 234.07V246.85H471.715V250H469.69ZM459.34 247.48C460.24 247.48 461.065 247.375 461.815 247.165C462.565 246.955 463.21 246.655 463.75 246.265C464.29 245.875 464.71 245.425 465.01 244.915C465.31 244.405 465.46 243.85 465.46 243.25V239.425H460.69C458.62 239.425 457.105 239.725 456.145 240.325C455.215 240.925 454.75 241.795 454.75 242.935V243.88C454.75 245.02 455.155 245.905 455.965 246.535C456.805 247.165 457.93 247.48 459.34 247.48ZM485.583 250.54C483.993 250.54 482.553 250.255 481.263 249.685C480.003 249.115 478.908 248.305 477.978 247.255C477.078 246.175 476.373 244.9 475.863 243.43C475.383 241.93 475.143 240.25 475.143 238.39C475.143 236.56 475.383 234.895 475.863 233.395C476.373 231.895 477.078 230.62 477.978 229.57C478.908 228.49 480.003 227.665 481.263 227.095C482.553 226.525 483.993 226.24 485.583 226.24C487.143 226.24 488.538 226.525 489.768 227.095C490.998 227.665 492.048 228.46 492.918 229.48C493.788 230.47 494.448 231.655 494.898 233.035C495.378 234.415 495.618 235.93 495.618 237.58V239.29H478.923V240.37C478.923 241.36 479.073 242.29 479.373 243.16C479.703 244 480.153 244.735 480.723 245.365C481.323 245.995 482.043 246.49 482.883 246.85C483.753 247.21 484.728 247.39 485.808 247.39C487.278 247.39 488.553 247.045 489.633 246.355C490.743 245.665 491.598 244.675 492.198 243.385L494.763 245.23C494.013 246.82 492.843 248.11 491.253 249.1C489.663 250.06 487.773 250.54 485.583 250.54ZM485.583 229.255C484.593 229.255 483.693 229.435 482.883 229.795C482.073 230.125 481.368 230.605 480.768 231.235C480.198 231.865 479.748 232.615 479.418 233.485C479.088 234.325 478.923 235.255 478.923 236.275V236.59H491.748V236.095C491.748 234.025 491.178 232.375 490.038 231.145C488.928 229.885 487.443 229.255 485.583 229.255ZM505.376 250C504.116 250 503.156 249.655 502.496 248.965C501.866 248.245 501.551 247.345 501.551 246.265V216.7H505.151V246.85H508.571V250H505.376ZM249.7 309C248.35 309 247.375 308.64 246.775 307.92C246.205 307.2 245.845 306.3 245.695 305.22H245.47C244.96 306.66 244.12 307.74 242.95 308.46C241.78 309.18 240.385 309.54 238.765 309.54C236.305 309.54 234.385 308.91 233.005 307.65C231.655 306.39 230.98 304.68 230.98 302.52C230.98 300.33 231.775 298.65 233.365 297.48C234.985 296.31 237.49 295.725 240.88 295.725H245.47V293.43C245.47 291.78 245.02 290.52 244.12 289.65C243.22 288.78 241.84 288.345 239.98 288.345C238.57 288.345 237.385 288.66 236.425 289.29C235.495 289.92 234.715 290.76 234.085 291.81L231.925 289.785C232.555 288.525 233.56 287.46 234.94 286.59C236.32 285.69 238.06 285.24 240.16 285.24C242.98 285.24 245.17 285.93 246.73 287.31C248.29 288.69 249.07 290.61 249.07 293.07V305.85H251.725V309H249.7ZM239.35 306.48C240.25 306.48 241.075 306.375 241.825 306.165C242.575 305.955 243.22 305.655 243.76 305.265C244.3 304.875 244.72 304.425 245.02 303.915C245.32 303.405 245.47 302.85 245.47 302.25V298.425H240.7C238.63 298.425 237.115 298.725 236.155 299.325C235.225 299.925 234.76 300.795 234.76 301.935V302.88C234.76 304.02 235.165 304.905 235.975 305.535C236.815 306.165 237.94 306.48 239.35 306.48ZM256.863 309V285.78H260.463V289.56H260.643C261.213 288.24 262.008 287.19 263.028 286.41C264.078 285.63 265.473 285.24 267.213 285.24C269.613 285.24 271.503 286.02 272.883 287.58C274.293 289.11 274.998 291.285 274.998 294.105V309H271.398V294.735C271.398 290.565 269.643 288.48 266.133 288.48C265.413 288.48 264.708 288.57 264.018 288.75C263.358 288.93 262.758 289.2 262.218 289.56C261.678 289.92 261.243 290.385 260.913 290.955C260.613 291.495 260.463 292.14 260.463 292.89V309H256.863ZM297.289 305.22H297.109C295.699 308.1 293.434 309.54 290.314 309.54C288.874 309.54 287.569 309.255 286.399 308.685C285.229 308.115 284.224 307.305 283.384 306.255C282.574 305.205 281.944 303.93 281.494 302.43C281.074 300.93 280.864 299.25 280.864 297.39C280.864 295.53 281.074 293.85 281.494 292.35C281.944 290.85 282.574 289.575 283.384 288.525C284.224 287.475 285.229 286.665 286.399 286.095C287.569 285.525 288.874 285.24 290.314 285.24C291.934 285.24 293.314 285.6 294.454 286.32C295.624 287.01 296.509 288.09 297.109 289.56H297.289V275.7H300.889V309H297.289V305.22ZM291.304 306.3C292.114 306.3 292.879 306.195 293.599 305.985C294.349 305.775 294.994 305.475 295.534 305.085C296.074 304.665 296.494 304.17 296.794 303.6C297.124 303 297.289 302.325 297.289 301.575V292.935C297.289 292.305 297.124 291.72 296.794 291.18C296.494 290.61 296.074 290.13 295.534 289.74C294.994 289.35 294.349 289.05 293.599 288.84C292.879 288.6 292.114 288.48 291.304 288.48C289.264 288.48 287.659 289.125 286.489 290.415C285.319 291.675 284.734 293.34 284.734 295.41V299.37C284.734 301.44 285.319 303.12 286.489 304.41C287.659 305.67 289.264 306.3 291.304 306.3ZM320.978 280.335C320.198 280.335 319.628 280.155 319.268 279.795C318.938 279.405 318.773 278.91 318.773 278.31V277.725C318.773 277.125 318.938 276.645 319.268 276.285C319.628 275.895 320.198 275.7 320.978 275.7C321.758 275.7 322.313 275.895 322.643 276.285C323.003 276.645 323.183 277.125 323.183 277.725V278.31C323.183 278.91 323.003 279.405 322.643 279.795C322.313 280.155 321.758 280.335 320.978 280.335ZM319.178 285.78H322.778V309H319.178V285.78ZM332.948 275.25C333.908 275.25 334.598 275.505 335.018 276.015C335.468 276.495 335.693 277.125 335.693 277.905V278.535C335.693 279.765 335.333 281.13 334.613 282.63C333.893 284.1 332.888 285.39 331.598 286.5H328.583C329.483 285.54 330.203 284.64 330.743 283.8C331.313 282.93 331.718 281.97 331.958 280.92C331.358 280.77 330.908 280.485 330.608 280.065C330.338 279.645 330.203 279.135 330.203 278.535V277.905C330.203 277.125 330.413 276.495 330.833 276.015C331.283 275.505 331.988 275.25 332.948 275.25ZM340.93 309V285.78H344.53V289.56H344.71C344.98 288.96 345.28 288.405 345.61 287.895C345.97 287.355 346.39 286.89 346.87 286.5C347.38 286.11 347.965 285.81 348.625 285.6C349.285 285.36 350.065 285.24 350.965 285.24C352.495 285.24 353.905 285.615 355.195 286.365C356.485 287.085 357.445 288.285 358.075 289.965H358.165C358.585 288.705 359.365 287.61 360.505 286.68C361.675 285.72 363.25 285.24 365.23 285.24C367.6 285.24 369.445 286.02 370.765 287.58C372.115 289.11 372.79 291.285 372.79 294.105V309H369.19V294.735C369.19 292.665 368.785 291.105 367.975 290.055C367.165 289.005 365.875 288.48 364.105 288.48C363.385 288.48 362.695 288.57 362.035 288.75C361.405 288.93 360.835 289.2 360.325 289.56C359.815 289.92 359.41 290.385 359.11 290.955C358.81 291.495 358.66 292.14 358.66 292.89V309H355.06V294.735C355.06 292.665 354.655 291.105 353.845 290.055C353.035 289.005 351.775 288.48 350.065 288.48C349.345 288.48 348.655 288.57 347.995 288.75C347.335 288.93 346.75 289.2 346.24 289.56C345.73 289.92 345.31 290.385 344.98 290.955C344.68 291.495 344.53 292.14 344.53 292.89V309H340.93ZM397.827 309.54C395.667 309.54 393.852 309.135 392.382 308.325C390.942 307.485 389.697 306.375 388.647 304.995L391.212 302.925C392.112 304.065 393.117 304.95 394.227 305.58C395.337 306.18 396.627 306.48 398.097 306.48C399.627 306.48 400.812 306.15 401.652 305.49C402.522 304.83 402.957 303.9 402.957 302.7C402.957 301.8 402.657 301.035 402.057 300.405C401.487 299.745 400.437 299.295 398.907 299.055L397.062 298.785C395.982 298.635 394.992 298.41 394.092 298.11C393.192 297.78 392.397 297.36 391.707 296.85C391.047 296.31 390.522 295.65 390.132 294.87C389.772 294.09 389.592 293.16 389.592 292.08C389.592 290.94 389.802 289.95 390.222 289.11C390.642 288.24 391.212 287.52 391.932 286.95C392.682 286.38 393.567 285.96 394.587 285.69C395.607 285.39 396.702 285.24 397.872 285.24C399.762 285.24 401.337 285.57 402.597 286.23C403.887 286.89 405.012 287.805 405.972 288.975L403.587 291.135C403.077 290.415 402.327 289.77 401.337 289.2C400.347 288.6 399.102 288.3 397.602 288.3C396.102 288.3 394.962 288.63 394.182 289.29C393.432 289.92 393.057 290.79 393.057 291.9C393.057 293.04 393.432 293.865 394.182 294.375C394.962 294.885 396.072 295.26 397.512 295.5L399.312 295.77C401.892 296.16 403.722 296.91 404.802 298.02C405.882 299.1 406.422 300.525 406.422 302.295C406.422 304.545 405.657 306.315 404.127 307.605C402.597 308.895 400.497 309.54 397.827 309.54ZM417.603 309C416.343 309 415.383 308.655 414.723 307.965C414.093 307.245 413.778 306.315 413.778 305.175V288.93H409.953V285.78H412.113C412.893 285.78 413.418 285.63 413.688 285.33C413.988 285 414.138 284.445 414.138 283.665V279.345H417.378V285.78H422.463V288.93H417.378V305.85H422.103V309H417.603ZM442.56 305.22H442.38C442.14 305.76 441.84 306.3 441.48 306.84C441.15 307.35 440.73 307.815 440.22 308.235C439.71 308.625 439.095 308.94 438.375 309.18C437.655 309.42 436.815 309.54 435.855 309.54C433.455 309.54 431.55 308.775 430.14 307.245C428.73 305.685 428.025 303.495 428.025 300.675V285.78H431.625V300.045C431.625 304.215 433.395 306.3 436.935 306.3C437.655 306.3 438.345 306.21 439.005 306.03C439.695 305.85 440.295 305.58 440.805 305.22C441.345 304.86 441.765 304.41 442.065 303.87C442.395 303.3 442.56 302.625 442.56 301.845V285.78H446.16V309H442.56V305.22ZM468.676 305.22H468.496C467.086 308.1 464.821 309.54 461.701 309.54C460.261 309.54 458.956 309.255 457.786 308.685C456.616 308.115 455.611 307.305 454.771 306.255C453.961 305.205 453.331 303.93 452.881 302.43C452.461 300.93 452.251 299.25 452.251 297.39C452.251 295.53 452.461 293.85 452.881 292.35C453.331 290.85 453.961 289.575 454.771 288.525C455.611 287.475 456.616 286.665 457.786 286.095C458.956 285.525 460.261 285.24 461.701 285.24C463.321 285.24 464.701 285.6 465.841 286.32C467.011 287.01 467.896 288.09 468.496 289.56H468.676V275.7H472.276V309H468.676V305.22ZM462.691 306.3C463.501 306.3 464.266 306.195 464.986 305.985C465.736 305.775 466.381 305.475 466.921 305.085C467.461 304.665 467.881 304.17 468.181 303.6C468.511 303 468.676 302.325 468.676 301.575V292.935C468.676 292.305 468.511 291.72 468.181 291.18C467.881 290.61 467.461 290.13 466.921 289.74C466.381 289.35 465.736 289.05 464.986 288.84C464.266 288.6 463.501 288.48 462.691 288.48C460.651 288.48 459.046 289.125 457.876 290.415C456.706 291.675 456.121 293.34 456.121 295.41V299.37C456.121 301.44 456.706 303.12 457.876 304.41C459.046 305.67 460.651 306.3 462.691 306.3ZM494.239 285.78H497.794L487.399 314.4C487.129 315.09 486.859 315.66 486.589 316.11C486.319 316.59 485.989 316.965 485.599 317.235C485.209 317.505 484.714 317.7 484.114 317.82C483.544 317.94 482.839 318 481.999 318H480.154V314.85H483.799L485.554 309.9L476.869 285.78H480.469L486.049 301.575L487.129 305.355H487.354L488.614 301.575L494.239 285.78ZM504.186 280.335C503.406 280.335 502.836 280.155 502.476 279.795C502.146 279.405 501.981 278.91 501.981 278.31V277.725C501.981 277.125 502.146 276.645 502.476 276.285C502.836 275.895 503.406 275.7 504.186 275.7C504.966 275.7 505.521 275.895 505.851 276.285C506.211 276.645 506.391 277.125 506.391 277.725V278.31C506.391 278.91 506.211 279.405 505.851 279.795C505.521 280.155 504.966 280.335 504.186 280.335ZM502.386 285.78H505.986V309H502.386V285.78ZM513.636 309V285.78H517.236V289.56H517.416C517.986 288.24 518.781 287.19 519.801 286.41C520.851 285.63 522.246 285.24 523.986 285.24C526.386 285.24 528.276 286.02 529.656 287.58C531.066 289.11 531.771 291.285 531.771 294.105V309H528.171V294.735C528.171 290.565 526.416 288.48 522.906 288.48C522.186 288.48 521.481 288.57 520.791 288.75C520.131 288.93 519.531 289.2 518.991 289.56C518.451 289.92 518.016 290.385 517.686 290.955C517.386 291.495 517.236 292.14 517.236 292.89V309H513.636ZM558.787 311.565C558.787 313.965 557.842 315.72 555.952 316.83C554.092 317.97 551.287 318.54 547.537 318.54C543.907 318.54 541.297 318.045 539.707 317.055C538.117 316.065 537.322 314.655 537.322 312.825C537.322 311.565 537.652 310.575 538.312 309.855C538.972 309.165 539.872 308.655 541.012 308.325V307.83C539.632 307.17 538.942 306.09 538.942 304.59C538.942 303.42 539.317 302.535 540.067 301.935C540.817 301.305 541.777 300.84 542.947 300.54V300.36C541.567 299.7 540.487 298.755 539.707 297.525C538.957 296.295 538.582 294.87 538.582 293.25C538.582 292.08 538.792 291 539.212 290.01C539.632 289.02 540.217 288.18 540.967 287.49C541.747 286.77 542.662 286.215 543.712 285.825C544.792 285.435 545.992 285.24 547.312 285.24C548.962 285.24 550.432 285.54 551.722 286.14V285.735C551.722 284.835 551.932 284.1 552.352 283.53C552.772 282.93 553.462 282.63 554.422 282.63H557.887V285.78H553.477V287.265C554.317 287.985 554.962 288.855 555.412 289.875C555.892 290.865 556.132 291.99 556.132 293.25C556.132 294.42 555.922 295.5 555.502 296.49C555.082 297.48 554.482 298.335 553.702 299.055C552.952 299.745 552.037 300.285 550.957 300.675C549.877 301.065 548.677 301.26 547.357 301.26C546.607 301.26 545.857 301.185 545.107 301.035C544.327 301.245 543.622 301.56 542.992 301.98C542.362 302.37 542.047 302.925 542.047 303.645C542.047 304.335 542.377 304.8 543.037 305.04C543.697 305.28 544.552 305.4 545.602 305.4H550.552C553.432 305.4 555.517 305.955 556.807 307.065C558.127 308.145 558.787 309.645 558.787 311.565ZM555.412 311.835C555.412 310.905 555.052 310.155 554.332 309.585C553.642 309.045 552.397 308.775 550.597 308.775H542.857C541.417 309.435 540.697 310.485 540.697 311.925C540.697 312.945 541.072 313.815 541.822 314.535C542.602 315.255 543.907 315.615 545.737 315.615H549.067C551.077 315.615 552.637 315.3 553.747 314.67C554.857 314.04 555.412 313.095 555.412 311.835ZM547.357 298.38C548.887 298.38 550.102 298.02 551.002 297.3C551.902 296.55 552.352 295.41 552.352 293.88V292.62C552.352 291.09 551.902 289.965 551.002 289.245C550.102 288.495 548.887 288.12 547.357 288.12C545.827 288.12 544.612 288.495 543.712 289.245C542.812 289.965 542.362 291.09 542.362 292.62V293.88C542.362 295.41 542.812 296.55 543.712 297.3C544.612 298.02 545.827 298.38 547.357 298.38ZM241.555 368.54C239.965 368.54 238.525 368.255 237.235 367.685C235.975 367.115 234.88 366.305 233.95 365.255C233.05 364.175 232.345 362.9 231.835 361.43C231.355 359.93 231.115 358.25 231.115 356.39C231.115 354.56 231.355 352.895 231.835 351.395C232.345 349.895 233.05 348.62 233.95 347.57C234.88 346.49 235.975 345.665 237.235 345.095C238.525 344.525 239.965 344.24 241.555 344.24C243.115 344.24 244.51 344.525 245.74 345.095C246.97 345.665 248.02 346.46 248.89 347.48C249.76 348.47 250.42 349.655 250.87 351.035C251.35 352.415 251.59 353.93 251.59 355.58V357.29H234.895V358.37C234.895 359.36 235.045 360.29 235.345 361.16C235.675 362 236.125 362.735 236.695 363.365C237.295 363.995 238.015 364.49 238.855 364.85C239.725 365.21 240.7 365.39 241.78 365.39C243.25 365.39 244.525 365.045 245.605 364.355C246.715 363.665 247.57 362.675 248.17 361.385L250.735 363.23C249.985 364.82 248.815 366.11 247.225 367.1C245.635 368.06 243.745 368.54 241.555 368.54ZM241.555 347.255C240.565 347.255 239.665 347.435 238.855 347.795C238.045 348.125 237.34 348.605 236.74 349.235C236.17 349.865 235.72 350.615 235.39 351.485C235.06 352.325 234.895 353.255 234.895 354.275V354.59H247.72V354.095C247.72 352.025 247.15 350.375 246.01 349.145C244.9 347.885 243.415 347.255 241.555 347.255ZM266.162 368.54C264.542 368.54 263.087 368.255 261.797 367.685C260.507 367.115 259.412 366.305 258.512 365.255C257.642 364.205 256.967 362.93 256.487 361.43C256.037 359.93 255.812 358.25 255.812 356.39C255.812 354.53 256.037 352.85 256.487 351.35C256.967 349.85 257.642 348.575 258.512 347.525C259.412 346.475 260.507 345.665 261.797 345.095C263.087 344.525 264.542 344.24 266.162 344.24C268.472 344.24 270.317 344.75 271.697 345.77C273.107 346.76 274.157 348.065 274.847 349.685L271.832 351.215C271.412 350.015 270.722 349.085 269.762 348.425C268.802 347.765 267.602 347.435 266.162 347.435C265.082 347.435 264.137 347.615 263.327 347.975C262.517 348.305 261.842 348.785 261.302 349.415C260.762 350.015 260.357 350.75 260.087 351.62C259.817 352.46 259.682 353.39 259.682 354.41V358.37C259.682 360.41 260.222 362.09 261.302 363.41C262.412 364.7 264.032 365.345 266.162 365.345C269.072 365.345 271.172 363.995 272.462 361.295L275.072 363.05C274.322 364.73 273.197 366.065 271.697 367.055C270.227 368.045 268.382 368.54 266.162 368.54ZM288.665 368.54C287.105 368.54 285.68 368.255 284.39 367.685C283.1 367.115 281.99 366.305 281.06 365.255C280.16 364.175 279.455 362.9 278.945 361.43C278.435 359.93 278.18 358.25 278.18 356.39C278.18 354.56 278.435 352.895 278.945 351.395C279.455 349.895 280.16 348.62 281.06 347.57C281.99 346.49 283.1 345.665 284.39 345.095C285.68 344.525 287.105 344.24 288.665 344.24C290.225 344.24 291.635 344.525 292.895 345.095C294.185 345.665 295.295 346.49 296.225 347.57C297.155 348.62 297.875 349.895 298.385 351.395C298.895 352.895 299.15 354.56 299.15 356.39C299.15 358.25 298.895 359.93 298.385 361.43C297.875 362.9 297.155 364.175 296.225 365.255C295.295 366.305 294.185 367.115 292.895 367.685C291.635 368.255 290.225 368.54 288.665 368.54ZM288.665 365.345C290.615 365.345 292.205 364.745 293.435 363.545C294.665 362.345 295.28 360.515 295.28 358.055V354.725C295.28 352.265 294.665 350.435 293.435 349.235C292.205 348.035 290.615 347.435 288.665 347.435C286.715 347.435 285.125 348.035 283.895 349.235C282.665 350.435 282.05 352.265 282.05 354.725V358.055C282.05 360.515 282.665 362.345 283.895 363.545C285.125 364.745 286.715 365.345 288.665 365.345ZM304.791 356.255V352.385H316.536V356.255H304.791ZM330.459 368.54C328.299 368.54 326.484 368.135 325.014 367.325C323.574 366.485 322.329 365.375 321.279 363.995L323.844 361.925C324.744 363.065 325.749 363.95 326.859 364.58C327.969 365.18 329.259 365.48 330.729 365.48C332.259 365.48 333.444 365.15 334.284 364.49C335.154 363.83 335.589 362.9 335.589 361.7C335.589 360.8 335.289 360.035 334.689 359.405C334.119 358.745 333.069 358.295 331.539 358.055L329.694 357.785C328.614 357.635 327.624 357.41 326.724 357.11C325.824 356.78 325.029 356.36 324.339 355.85C323.679 355.31 323.154 354.65 322.764 353.87C322.404 353.09 322.224 352.16 322.224 351.08C322.224 349.94 322.434 348.95 322.854 348.11C323.274 347.24 323.844 346.52 324.564 345.95C325.314 345.38 326.199 344.96 327.219 344.69C328.239 344.39 329.334 344.24 330.504 344.24C332.394 344.24 333.969 344.57 335.229 345.23C336.519 345.89 337.644 346.805 338.604 347.975L336.219 350.135C335.709 349.415 334.959 348.77 333.969 348.2C332.979 347.6 331.734 347.3 330.234 347.3C328.734 347.3 327.594 347.63 326.814 348.29C326.064 348.92 325.689 349.79 325.689 350.9C325.689 352.04 326.064 352.865 326.814 353.375C327.594 353.885 328.704 354.26 330.144 354.5L331.944 354.77C334.524 355.16 336.354 355.91 337.434 357.02C338.514 358.1 339.054 359.525 339.054 361.295C339.054 363.545 338.289 365.315 336.759 366.605C335.229 367.895 333.129 368.54 330.459 368.54ZM354.188 368.54C352.628 368.54 351.203 368.255 349.913 367.685C348.623 367.115 347.513 366.305 346.583 365.255C345.683 364.175 344.978 362.9 344.468 361.43C343.958 359.93 343.703 358.25 343.703 356.39C343.703 354.56 343.958 352.895 344.468 351.395C344.978 349.895 345.683 348.62 346.583 347.57C347.513 346.49 348.623 345.665 349.913 345.095C351.203 344.525 352.628 344.24 354.188 344.24C355.748 344.24 357.158 344.525 358.418 345.095C359.708 345.665 360.818 346.49 361.748 347.57C362.678 348.62 363.398 349.895 363.908 351.395C364.418 352.895 364.673 354.56 364.673 356.39C364.673 358.25 364.418 359.93 363.908 361.43C363.398 362.9 362.678 364.175 361.748 365.255C360.818 366.305 359.708 367.115 358.418 367.685C357.158 368.255 355.748 368.54 354.188 368.54ZM354.188 365.345C356.138 365.345 357.728 364.745 358.958 363.545C360.188 362.345 360.803 360.515 360.803 358.055V354.725C360.803 352.265 360.188 350.435 358.958 349.235C357.728 348.035 356.138 347.435 354.188 347.435C352.238 347.435 350.648 348.035 349.418 349.235C348.188 350.435 347.573 352.265 347.573 354.725V358.055C347.573 360.515 348.188 362.345 349.418 363.545C350.648 364.745 352.238 365.345 354.188 365.345ZM379.234 368.54C377.614 368.54 376.159 368.255 374.869 367.685C373.579 367.115 372.484 366.305 371.584 365.255C370.714 364.205 370.039 362.93 369.559 361.43C369.109 359.93 368.884 358.25 368.884 356.39C368.884 354.53 369.109 352.85 369.559 351.35C370.039 349.85 370.714 348.575 371.584 347.525C372.484 346.475 373.579 345.665 374.869 345.095C376.159 344.525 377.614 344.24 379.234 344.24C381.544 344.24 383.389 344.75 384.769 345.77C386.179 346.76 387.229 348.065 387.919 349.685L384.904 351.215C384.484 350.015 383.794 349.085 382.834 348.425C381.874 347.765 380.674 347.435 379.234 347.435C378.154 347.435 377.209 347.615 376.399 347.975C375.589 348.305 374.914 348.785 374.374 349.415C373.834 350.015 373.429 350.75 373.159 351.62C372.889 352.46 372.754 353.39 372.754 354.41V358.37C372.754 360.41 373.294 362.09 374.374 363.41C375.484 364.7 377.104 365.345 379.234 365.345C382.144 365.345 384.244 363.995 385.534 361.295L388.144 363.05C387.394 364.73 386.269 366.065 384.769 367.055C383.299 368.045 381.454 368.54 379.234 368.54ZM395.025 339.335C394.245 339.335 393.675 339.155 393.315 338.795C392.985 338.405 392.82 337.91 392.82 337.31V336.725C392.82 336.125 392.985 335.645 393.315 335.285C393.675 334.895 394.245 334.7 395.025 334.7C395.805 334.7 396.36 334.895 396.69 335.285C397.05 335.645 397.23 336.125 397.23 336.725V337.31C397.23 337.91 397.05 338.405 396.69 338.795C396.36 339.155 395.805 339.335 395.025 339.335ZM393.225 344.78H396.825V368H393.225V344.78ZM421.35 368C420 368 419.025 367.64 418.425 366.92C417.855 366.2 417.495 365.3 417.345 364.22H417.12C416.61 365.66 415.77 366.74 414.6 367.46C413.43 368.18 412.035 368.54 410.415 368.54C407.955 368.54 406.035 367.91 404.655 366.65C403.305 365.39 402.63 363.68 402.63 361.52C402.63 359.33 403.425 357.65 405.015 356.48C406.635 355.31 409.14 354.725 412.53 354.725H417.12V352.43C417.12 350.78 416.67 349.52 415.77 348.65C414.87 347.78 413.49 347.345 411.63 347.345C410.22 347.345 409.035 347.66 408.075 348.29C407.145 348.92 406.365 349.76 405.735 350.81L403.575 348.785C404.205 347.525 405.21 346.46 406.59 345.59C407.97 344.69 409.71 344.24 411.81 344.24C414.63 344.24 416.82 344.93 418.38 346.31C419.94 347.69 420.72 349.61 420.72 352.07V364.85H423.375V368H421.35ZM411 365.48C411.9 365.48 412.725 365.375 413.475 365.165C414.225 364.955 414.87 364.655 415.41 364.265C415.95 363.875 416.37 363.425 416.67 362.915C416.97 362.405 417.12 361.85 417.12 361.25V357.425H412.35C410.28 357.425 408.765 357.725 407.805 358.325C406.875 358.925 406.41 359.795 406.41 360.935V361.88C406.41 363.02 406.815 363.905 407.625 364.535C408.465 365.165 409.59 365.48 411 365.48ZM432.338 368C431.078 368 430.118 367.655 429.458 366.965C428.828 366.245 428.513 365.345 428.513 364.265V334.7H432.113V364.85H435.533V368H432.338ZM466.259 364.22H466.079C464.669 367.1 462.404 368.54 459.284 368.54C457.844 368.54 456.539 368.255 455.369 367.685C454.199 367.115 453.194 366.305 452.354 365.255C451.544 364.205 450.914 362.93 450.464 361.43C450.044 359.93 449.834 358.25 449.834 356.39C449.834 354.53 450.044 352.85 450.464 351.35C450.914 349.85 451.544 348.575 452.354 347.525C453.194 346.475 454.199 345.665 455.369 345.095C456.539 344.525 457.844 344.24 459.284 344.24C460.904 344.24 462.284 344.6 463.424 345.32C464.594 346.01 465.479 347.09 466.079 348.56H466.259V334.7H469.859V368H466.259V364.22ZM460.274 365.3C461.084 365.3 461.849 365.195 462.569 364.985C463.319 364.775 463.964 364.475 464.504 364.085C465.044 363.665 465.464 363.17 465.764 362.6C466.094 362 466.259 361.325 466.259 360.575V351.935C466.259 351.305 466.094 350.72 465.764 350.18C465.464 349.61 465.044 349.13 464.504 348.74C463.964 348.35 463.319 348.05 462.569 347.84C461.849 347.6 461.084 347.48 460.274 347.48C458.234 347.48 456.629 348.125 455.459 349.415C454.289 350.675 453.704 352.34 453.704 354.41V358.37C453.704 360.44 454.289 362.12 455.459 363.41C456.629 364.67 458.234 365.3 460.274 365.3ZM486.243 368.54C484.653 368.54 483.213 368.255 481.923 367.685C480.663 367.115 479.568 366.305 478.638 365.255C477.738 364.175 477.033 362.9 476.523 361.43C476.043 359.93 475.803 358.25 475.803 356.39C475.803 354.56 476.043 352.895 476.523 351.395C477.033 349.895 477.738 348.62 478.638 347.57C479.568 346.49 480.663 345.665 481.923 345.095C483.213 344.525 484.653 344.24 486.243 344.24C487.803 344.24 489.198 344.525 490.428 345.095C491.658 345.665 492.708 346.46 493.578 347.48C494.448 348.47 495.108 349.655 495.558 351.035C496.038 352.415 496.278 353.93 496.278 355.58V357.29H479.583V358.37C479.583 359.36 479.733 360.29 480.033 361.16C480.363 362 480.813 362.735 481.383 363.365C481.983 363.995 482.703 364.49 483.543 364.85C484.413 365.21 485.388 365.39 486.468 365.39C487.938 365.39 489.213 365.045 490.293 364.355C491.403 363.665 492.258 362.675 492.858 361.385L495.423 363.23C494.673 364.82 493.503 366.11 491.913 367.1C490.323 368.06 488.433 368.54 486.243 368.54ZM486.243 347.255C485.253 347.255 484.353 347.435 483.543 347.795C482.733 348.125 482.028 348.605 481.428 349.235C480.858 349.865 480.408 350.615 480.078 351.485C479.748 352.325 479.583 353.255 479.583 354.275V354.59H492.408V354.095C492.408 352.025 491.838 350.375 490.698 349.145C489.588 347.885 488.103 347.255 486.243 347.255ZM509.185 368.54C507.025 368.54 505.21 368.135 503.74 367.325C502.3 366.485 501.055 365.375 500.005 363.995L502.57 361.925C503.47 363.065 504.475 363.95 505.585 364.58C506.695 365.18 507.985 365.48 509.455 365.48C510.985 365.48 512.17 365.15 513.01 364.49C513.88 363.83 514.315 362.9 514.315 361.7C514.315 360.8 514.015 360.035 513.415 359.405C512.845 358.745 511.795 358.295 510.265 358.055L508.42 357.785C507.34 357.635 506.35 357.41 505.45 357.11C504.55 356.78 503.755 356.36 503.065 355.85C502.405 355.31 501.88 354.65 501.49 353.87C501.13 353.09 500.95 352.16 500.95 351.08C500.95 349.94 501.16 348.95 501.58 348.11C502 347.24 502.57 346.52 503.29 345.95C504.04 345.38 504.925 344.96 505.945 344.69C506.965 344.39 508.06 344.24 509.23 344.24C511.12 344.24 512.695 344.57 513.955 345.23C515.245 345.89 516.37 346.805 517.33 347.975L514.945 350.135C514.435 349.415 513.685 348.77 512.695 348.2C511.705 347.6 510.46 347.3 508.96 347.3C507.46 347.3 506.32 347.63 505.54 348.29C504.79 348.92 504.415 349.79 504.415 350.9C504.415 352.04 504.79 352.865 505.54 353.375C506.32 353.885 507.43 354.26 508.87 354.5L510.67 354.77C513.25 355.16 515.08 355.91 516.16 357.02C517.24 358.1 517.78 359.525 517.78 361.295C517.78 363.545 517.015 365.315 515.485 366.605C513.955 367.895 511.855 368.54 509.185 368.54ZM525.938 339.335C525.158 339.335 524.588 339.155 524.228 338.795C523.898 338.405 523.733 337.91 523.733 337.31V336.725C523.733 336.125 523.898 335.645 524.228 335.285C524.588 334.895 525.158 334.7 525.938 334.7C526.718 334.7 527.273 334.895 527.603 335.285C527.963 335.645 528.143 336.125 528.143 336.725V337.31C528.143 337.91 527.963 338.405 527.603 338.795C527.273 339.155 526.718 339.335 525.938 339.335ZM524.138 344.78H527.738V368H524.138V344.78ZM554.963 370.565C554.963 372.965 554.018 374.72 552.128 375.83C550.268 376.97 547.463 377.54 543.713 377.54C540.083 377.54 537.473 377.045 535.883 376.055C534.293 375.065 533.498 373.655 533.498 371.825C533.498 370.565 533.828 369.575 534.488 368.855C535.148 368.165 536.048 367.655 537.188 367.325V366.83C535.808 366.17 535.118 365.09 535.118 363.59C535.118 362.42 535.493 361.535 536.243 360.935C536.993 360.305 537.953 359.84 539.123 359.54V359.36C537.743 358.7 536.663 357.755 535.883 356.525C535.133 355.295 534.758 353.87 534.758 352.25C534.758 351.08 534.968 350 535.388 349.01C535.808 348.02 536.393 347.18 537.143 346.49C537.923 345.77 538.838 345.215 539.888 344.825C540.968 344.435 542.168 344.24 543.488 344.24C545.138 344.24 546.608 344.54 547.898 345.14V344.735C547.898 343.835 548.108 343.1 548.528 342.53C548.948 341.93 549.638 341.63 550.598 341.63H554.063V344.78H549.653V346.265C550.493 346.985 551.138 347.855 551.588 348.875C552.068 349.865 552.308 350.99 552.308 352.25C552.308 353.42 552.098 354.5 551.678 355.49C551.258 356.48 550.658 357.335 549.878 358.055C549.128 358.745 548.213 359.285 547.133 359.675C546.053 360.065 544.853 360.26 543.533 360.26C542.783 360.26 542.033 360.185 541.283 360.035C540.503 360.245 539.798 360.56 539.168 360.98C538.538 361.37 538.223 361.925 538.223 362.645C538.223 363.335 538.553 363.8 539.213 364.04C539.873 364.28 540.728 364.4 541.778 364.4H546.728C549.608 364.4 551.693 364.955 552.983 366.065C554.303 367.145 554.963 368.645 554.963 370.565ZM551.588 370.835C551.588 369.905 551.228 369.155 550.508 368.585C549.818 368.045 548.573 367.775 546.773 367.775H539.033C537.593 368.435 536.873 369.485 536.873 370.925C536.873 371.945 537.248 372.815 537.998 373.535C538.778 374.255 540.083 374.615 541.913 374.615H545.243C547.253 374.615 548.813 374.3 549.923 373.67C551.033 373.04 551.588 372.095 551.588 370.835ZM543.533 357.38C545.063 357.38 546.278 357.02 547.178 356.3C548.078 355.55 548.528 354.41 548.528 352.88V351.62C548.528 350.09 548.078 348.965 547.178 348.245C546.278 347.495 545.063 347.12 543.533 347.12C542.003 347.12 540.788 347.495 539.888 348.245C538.988 348.965 538.538 350.09 538.538 351.62V352.88C538.538 354.41 538.988 355.55 539.888 356.3C540.788 357.02 542.003 357.38 543.533 357.38ZM559.163 368V344.78H562.763V348.56H562.943C563.513 347.24 564.308 346.19 565.328 345.41C566.378 344.63 567.773 344.24 569.513 344.24C571.913 344.24 573.803 345.02 575.183 346.58C576.593 348.11 577.298 350.285 577.298 353.105V368H573.698V353.735C573.698 349.565 571.943 347.48 568.433 347.48C567.713 347.48 567.008 347.57 566.318 347.75C565.658 347.93 565.058 348.2 564.518 348.56C563.978 348.92 563.543 349.385 563.213 349.955C562.913 350.495 562.763 351.14 562.763 351.89V368H559.163ZM234.625 398.335C233.845 398.335 233.275 398.155 232.915 397.795C232.585 397.405 232.42 396.91 232.42 396.31V395.725C232.42 395.125 232.585 394.645 232.915 394.285C233.275 393.895 233.845 393.7 234.625 393.7C235.405 393.7 235.96 393.895 236.29 394.285C236.65 394.645 236.83 395.125 236.83 395.725V396.31C236.83 396.91 236.65 397.405 236.29 397.795C235.96 398.155 235.405 398.335 234.625 398.335ZM232.825 403.78H236.425V427H232.825V403.78ZM244.075 427V403.78H247.675V407.56H247.855C248.425 406.24 249.22 405.19 250.24 404.41C251.29 403.63 252.685 403.24 254.425 403.24C256.825 403.24 258.715 404.02 260.095 405.58C261.505 407.11 262.21 409.285 262.21 412.105V427H258.61V412.735C258.61 408.565 256.855 406.48 253.345 406.48C252.625 406.48 251.92 406.57 251.23 406.75C250.57 406.93 249.97 407.2 249.43 407.56C248.89 407.92 248.455 408.385 248.125 408.955C247.825 409.495 247.675 410.14 247.675 410.89V427H244.075ZM284.111 427C282.851 427 281.891 426.655 281.231 425.965C280.601 425.245 280.286 424.345 280.286 423.265V393.7H283.886V423.85H287.306V427H284.111ZM306.857 423.22H306.677C306.437 423.76 306.137 424.3 305.777 424.84C305.447 425.35 305.027 425.815 304.517 426.235C304.007 426.625 303.392 426.94 302.672 427.18C301.952 427.42 301.112 427.54 300.152 427.54C297.752 427.54 295.847 426.775 294.437 425.245C293.027 423.685 292.322 421.495 292.322 418.675V403.78H295.922V418.045C295.922 422.215 297.692 424.3 301.232 424.3C301.952 424.3 302.642 424.21 303.302 424.03C303.992 423.85 304.592 423.58 305.102 423.22C305.642 422.86 306.062 422.41 306.362 421.87C306.692 421.3 306.857 420.625 306.857 419.845V403.78H310.457V427H306.857V423.22ZM326.763 427.54C325.143 427.54 323.688 427.255 322.398 426.685C321.108 426.115 320.013 425.305 319.113 424.255C318.243 423.205 317.568 421.93 317.088 420.43C316.638 418.93 316.413 417.25 316.413 415.39C316.413 413.53 316.638 411.85 317.088 410.35C317.568 408.85 318.243 407.575 319.113 406.525C320.013 405.475 321.108 404.665 322.398 404.095C323.688 403.525 325.143 403.24 326.763 403.24C329.073 403.24 330.918 403.75 332.298 404.77C333.708 405.76 334.758 407.065 335.448 408.685L332.433 410.215C332.013 409.015 331.323 408.085 330.363 407.425C329.403 406.765 328.203 406.435 326.763 406.435C325.683 406.435 324.738 406.615 323.928 406.975C323.118 407.305 322.443 407.785 321.903 408.415C321.363 409.015 320.958 409.75 320.688 410.62C320.418 411.46 320.283 412.39 320.283 413.41V417.37C320.283 419.41 320.823 421.09 321.903 422.41C323.013 423.7 324.633 424.345 326.763 424.345C329.673 424.345 331.773 422.995 333.063 420.295L335.673 422.05C334.923 423.73 333.798 425.065 332.298 426.055C330.828 427.045 328.983 427.54 326.763 427.54ZM349.221 427.54C347.631 427.54 346.191 427.255 344.901 426.685C343.641 426.115 342.546 425.305 341.616 424.255C340.716 423.175 340.011 421.9 339.501 420.43C339.021 418.93 338.781 417.25 338.781 415.39C338.781 413.56 339.021 411.895 339.501 410.395C340.011 408.895 340.716 407.62 341.616 406.57C342.546 405.49 343.641 404.665 344.901 404.095C346.191 403.525 347.631 403.24 349.221 403.24C350.781 403.24 352.176 403.525 353.406 404.095C354.636 404.665 355.686 405.46 356.556 406.48C357.426 407.47 358.086 408.655 358.536 410.035C359.016 411.415 359.256 412.93 359.256 414.58V416.29H342.561V417.37C342.561 418.36 342.711 419.29 343.011 420.16C343.341 421 343.791 421.735 344.361 422.365C344.961 422.995 345.681 423.49 346.521 423.85C347.391 424.21 348.366 424.39 349.446 424.39C350.916 424.39 352.191 424.045 353.271 423.355C354.381 422.665 355.236 421.675 355.836 420.385L358.401 422.23C357.651 423.82 356.481 425.11 354.891 426.1C353.301 427.06 351.411 427.54 349.221 427.54ZM349.221 406.255C348.231 406.255 347.331 406.435 346.521 406.795C345.711 407.125 345.006 407.605 344.406 408.235C343.836 408.865 343.386 409.615 343.056 410.485C342.726 411.325 342.561 412.255 342.561 413.275V413.59H355.386V413.095C355.386 411.025 354.816 409.375 353.676 408.145C352.566 406.885 351.081 406.255 349.221 406.255ZM365.188 427V403.78H368.788V408.055H369.013C369.433 406.945 370.183 405.955 371.263 405.085C372.343 404.215 373.828 403.78 375.718 403.78H377.113V407.38H374.998C373.048 407.38 371.518 407.755 370.408 408.505C369.328 409.225 368.788 410.14 368.788 411.25V427H365.188ZM381.712 427V403.78H385.312V407.56H385.492C386.062 406.24 386.857 405.19 387.877 404.41C388.927 403.63 390.322 403.24 392.062 403.24C394.462 403.24 396.352 404.02 397.732 405.58C399.142 407.11 399.847 409.285 399.847 412.105V427H396.247V412.735C396.247 408.565 394.492 406.48 390.982 406.48C390.262 406.48 389.557 406.57 388.867 406.75C388.207 406.93 387.607 407.2 387.067 407.56C386.527 407.92 386.092 408.385 385.762 408.955C385.462 409.495 385.312 410.14 385.312 410.89V427H381.712ZM415.928 427.54C414.308 427.54 412.853 427.255 411.563 426.685C410.273 426.115 409.178 425.305 408.278 424.255C407.408 423.205 406.733 421.93 406.253 420.43C405.803 418.93 405.578 417.25 405.578 415.39C405.578 413.53 405.803 411.85 406.253 410.35C406.733 408.85 407.408 407.575 408.278 406.525C409.178 405.475 410.273 404.665 411.563 404.095C412.853 403.525 414.308 403.24 415.928 403.24C418.238 403.24 420.083 403.75 421.463 404.77C422.873 405.76 423.923 407.065 424.613 408.685L421.598 410.215C421.178 409.015 420.488 408.085 419.528 407.425C418.568 406.765 417.368 406.435 415.928 406.435C414.848 406.435 413.903 406.615 413.093 406.975C412.283 407.305 411.608 407.785 411.068 408.415C410.528 409.015 410.123 409.75 409.853 410.62C409.583 411.46 409.448 412.39 409.448 413.41V417.37C409.448 419.41 409.988 421.09 411.068 422.41C412.178 423.7 413.798 424.345 415.928 424.345C418.838 424.345 420.938 422.995 422.228 420.295L424.838 422.05C424.088 423.73 422.963 425.065 421.463 426.055C419.993 427.045 418.148 427.54 415.928 427.54ZM438.386 427.54C436.796 427.54 435.356 427.255 434.066 426.685C432.806 426.115 431.711 425.305 430.781 424.255C429.881 423.175 429.176 421.9 428.666 420.43C428.186 418.93 427.946 417.25 427.946 415.39C427.946 413.56 428.186 411.895 428.666 410.395C429.176 408.895 429.881 407.62 430.781 406.57C431.711 405.49 432.806 404.665 434.066 404.095C435.356 403.525 436.796 403.24 438.386 403.24C439.946 403.24 441.341 403.525 442.571 404.095C443.801 404.665 444.851 405.46 445.721 406.48C446.591 407.47 447.251 408.655 447.701 410.035C448.181 411.415 448.421 412.93 448.421 414.58V416.29H431.726V417.37C431.726 418.36 431.876 419.29 432.176 420.16C432.506 421 432.956 421.735 433.526 422.365C434.126 422.995 434.846 423.49 435.686 423.85C436.556 424.21 437.531 424.39 438.611 424.39C440.081 424.39 441.356 424.045 442.436 423.355C443.546 422.665 444.401 421.675 445.001 420.385L447.566 422.23C446.816 423.82 445.646 425.11 444.056 426.1C442.466 427.06 440.576 427.54 438.386 427.54ZM438.386 406.255C437.396 406.255 436.496 406.435 435.686 406.795C434.876 407.125 434.171 407.605 433.571 408.235C433.001 408.865 432.551 409.615 432.221 410.485C431.891 411.325 431.726 412.255 431.726 413.275V413.59H444.551V413.095C444.551 411.025 443.981 409.375 442.841 408.145C441.731 406.885 440.246 406.255 438.386 406.255ZM455.769 427.54C454.809 427.54 454.104 427.3 453.654 426.82C453.234 426.34 453.024 425.71 453.024 424.93V424.345C453.024 423.565 453.234 422.935 453.654 422.455C454.104 421.975 454.809 421.735 455.769 421.735C456.729 421.735 457.419 421.975 457.839 422.455C458.289 422.935 458.514 423.565 458.514 424.345V424.93C458.514 425.71 458.289 426.34 457.839 426.82C457.419 427.3 456.729 427.54 455.769 427.54Z" fill="black"/>
</g>
<rect x="0.5" y="0.5" width="1439" height="2525" stroke="#0000FF"/>
<defs>
<filter id="filter0_d_30_200" x="198" y="641" width="1084" height="839" filterUnits="userSpaceOnUse" color-interpolation-filters="sRGB">
<feFlood flood-opacity="0" result="BackgroundImageFix"/>
<feColorMatrix in="SourceAlpha" type="matrix" values="0 0 0 0 0 0 0 0 0 0 0 0 0 0 0 0 0 0 127 0" result="hardAlpha"/>
<feMorphology radius="1" operator="dilate" in="SourceAlpha" result="effect1_dropShadow_30_200"/>
<feOffset dx="20" dy="20"/>
<feGaussianBlur stdDeviation="25"/>
<feComposite in2="hardAlpha" operator="out"/>
<feColorMatrix type="matrix" values="0 0 0 0 0 0 0 0 0 0 0 0 0 0 0 0 0 0 0.25 0"/>
<feBlend mode="normal" in2="BackgroundImageFix" result="effect1_dropShadow_30_200"/>
<feBlend mode="normal" in="SourceGraphic" in2="effect1_dropShadow_30_200" result="shape"/>
</filter>
<clipPath id="clip0_30_200">
<rect width="1440" height="2526" fill="white"/>
</clipPath>
</defs>
</svg>
