<svg width="1440" height="2526" viewBox="0 0 1440 2526" fill="none" xmlns="http://www.w3.org/2000/svg">
<g clip-path="url(#clip0_28_151)">
<rect width="1440" height="2526" fill="white"/>
<rect width="229" height="2526" fill="#FF0000"/>
<rect x="1211" width="229" height="2526" fill="#FF0000"/>
<g filter="url(#filter0_d_28_151)">
<rect x="229" y="713" width="982" height="737" rx="65" fill="#D9D9D9"/>
<rect x="229.5" y="713.5" width="981" height="736" rx="64.5" stroke="black"/>
</g>
<path d="M231.79 642V621.06H240.13C242.01 621.06 243.45 621.6 244.45 622.68C245.47 623.74 245.98 625.2 245.98 627.06C245.98 628.92 245.47 630.39 244.45 631.47C243.45 632.53 242.01 633.06 240.13 633.06H234.31V642H231.79ZM234.31 630.84H240.13C241.13 630.84 241.9 630.58 242.44 630.06C243 629.54 243.28 628.8 243.28 627.84V626.28C243.28 625.32 243 624.58 242.44 624.06C241.9 623.54 241.13 623.28 240.13 623.28H234.31V630.84ZM252.503 642H249.983V621.06H258.323C260.163 621.06 261.593 621.57 262.613 622.59C263.653 623.61 264.173 625.08 264.173 627C264.173 628.54 263.813 629.81 263.093 630.81C262.393 631.79 261.353 632.44 259.973 632.76L264.773 642H261.923L257.393 633H252.503V642ZM258.323 630.84C259.323 630.84 260.093 630.58 260.633 630.06C261.193 629.54 261.473 628.8 261.473 627.84V626.28C261.473 625.32 261.193 624.58 260.633 624.06C260.093 623.54 259.323 623.28 258.323 623.28H252.503V630.84H258.323ZM276.71 642.36C275.35 642.36 274.12 642.13 273.02 641.67C271.94 641.19 271.01 640.5 270.23 639.6C269.47 638.68 268.88 637.55 268.46 636.21C268.04 634.85 267.83 633.29 267.83 631.53C267.83 629.77 268.04 628.22 268.46 626.88C268.88 625.54 269.47 624.41 270.23 623.49C271.01 622.57 271.94 621.88 273.02 621.42C274.12 620.94 275.35 620.7 276.71 620.7C278.05 620.7 279.27 620.94 280.37 621.42C281.47 621.88 282.4 622.57 283.16 623.49C283.94 624.41 284.54 625.54 284.96 626.88C285.38 628.22 285.59 629.77 285.59 631.53C285.59 633.29 285.38 634.85 284.96 636.21C284.54 637.55 283.94 638.68 283.16 639.6C282.4 640.5 281.47 641.19 280.37 641.67C279.27 642.13 278.05 642.36 276.71 642.36ZM276.71 640.11C277.61 640.11 278.44 639.95 279.2 639.63C279.96 639.31 280.61 638.85 281.15 638.25C281.71 637.65 282.14 636.93 282.44 636.09C282.74 635.25 282.89 634.31 282.89 633.27V629.79C282.89 628.75 282.74 627.81 282.44 626.97C282.14 626.13 281.71 625.41 281.15 624.81C280.61 624.21 279.96 623.75 279.2 623.43C278.44 623.11 277.61 622.95 276.71 622.95C275.81 622.95 274.98 623.11 274.22 623.43C273.46 623.75 272.8 624.21 272.24 624.81C271.7 625.41 271.28 626.13 270.98 626.97C270.68 627.81 270.53 628.75 270.53 629.79V633.27C270.53 634.31 270.68 635.25 270.98 636.09C271.28 636.93 271.7 637.65 272.24 638.25C272.8 638.85 273.46 639.31 274.22 639.63C274.98 639.95 275.81 640.11 276.71 640.11ZM299.58 621.06V636.57C299.58 637.45 299.43 638.25 299.13 638.97C298.85 639.69 298.44 640.3 297.9 640.8C297.38 641.3 296.75 641.69 296.01 641.97C295.27 642.23 294.46 642.36 293.58 642.36C291.96 642.36 290.65 641.93 289.65 641.07C288.67 640.19 288.04 639.03 287.76 637.59L290.04 637.05C290.24 637.95 290.62 638.69 291.18 639.27C291.74 639.83 292.56 640.11 293.64 640.11C294.72 640.11 295.56 639.78 296.16 639.12C296.76 638.46 297.06 637.46 297.06 636.12V623.28H289.86V621.06H299.58ZM305.003 642V621.06H317.783V623.28H307.523V630.3H317.183V632.52H307.523V639.78H317.783V642H305.003ZM327.983 631.71L325.013 635.01V642H322.493V621.06H325.013V632.19H325.103L328.103 628.56L334.433 621.06H337.523L329.723 630.03L338.063 642H334.943L327.983 631.71ZM347.971 623.28V642H345.451V623.28H338.791V621.06H354.631V623.28H347.971ZM380.059 642H377.029L371.539 633.21H371.479L365.989 642H363.109L369.949 631.35L363.289 621.06H366.319L371.569 629.4H371.629L376.999 621.06H379.879L373.159 631.26L380.059 642ZM398.457 642H395.427L389.937 633.21H389.877L384.387 642H381.507L388.347 631.35L381.687 621.06H384.717L389.967 629.4H390.027L395.397 621.06H398.277L391.557 631.26L398.457 642Z" fill="black"/>
<path d="M230.674 667.436H234.886C235.666 667.436 236.374 667.568 237.01 667.832C237.646 668.096 238.186 668.492 238.63 669.02C239.086 669.536 239.434 670.19 239.674 670.982C239.914 671.762 240.034 672.674 240.034 673.718C240.034 674.762 239.914 675.68 239.674 676.472C239.434 677.252 239.086 677.906 238.63 678.434C238.186 678.95 237.646 679.34 237.01 679.604C236.374 679.868 235.666 680 234.886 680H230.674V667.436ZM234.886 678.668C235.402 678.668 235.876 678.584 236.308 678.416C236.74 678.236 237.112 677.978 237.424 677.642C237.736 677.306 237.976 676.898 238.144 676.418C238.324 675.926 238.414 675.368 238.414 674.744V672.692C238.414 672.068 238.324 671.516 238.144 671.036C237.976 670.544 237.736 670.13 237.424 669.794C237.112 669.458 236.74 669.206 236.308 669.038C235.876 668.858 235.402 668.768 234.886 668.768H232.186V678.668H234.886ZM250.405 680L249.145 676.292H244.069L242.809 680H241.279L245.671 667.436H247.597L251.989 680H250.405ZM246.643 668.84H246.553L244.429 674.96H248.767L246.643 668.84ZM257.123 668.768V680H255.611V668.768H251.615V667.436H261.119V668.768H257.123ZM263.194 680V667.436H270.862V668.768H264.706V672.98H270.502V674.312H264.706V678.668H270.862V680H263.194Z" fill="black"/>
<path d="M345.904 668.768V680H344.392V668.768H340.396V667.436H349.9V668.768H345.904ZM354.943 680V675.032L350.623 667.436H352.351L355.699 673.484H355.753L359.101 667.436H360.829L356.455 674.978V680H354.943ZM362.733 680V667.436H367.737C368.865 667.436 369.729 667.76 370.329 668.408C370.941 669.044 371.247 669.92 371.247 671.036C371.247 672.152 370.941 673.034 370.329 673.682C369.729 674.318 368.865 674.636 367.737 674.636H364.245V680H362.733ZM364.245 673.304H367.737C368.337 673.304 368.799 673.148 369.123 672.836C369.459 672.524 369.627 672.08 369.627 671.504V670.568C369.627 669.992 369.459 669.548 369.123 669.236C368.799 668.924 368.337 668.768 367.737 668.768H364.245V673.304ZM373.649 680V667.436H381.317V668.768H375.161V672.98H380.957V674.312H375.161V678.668H381.317V680H373.649Z" fill="black"/>
<path d="M451.08 680V678.74H452.844V668.696H451.08V667.436H456.12V668.696H454.356V678.74H456.12V680H451.08ZM461.923 672.332L460.411 669.542H460.357V680H458.881V667.436H460.627L465.217 675.104L466.729 677.894H466.783V667.436H468.259V680H466.513L461.923 672.332ZM475.838 668.768V680H474.326V668.768H470.33V667.436H479.834V668.768H475.838ZM481.191 680V678.74H482.955V668.696H481.191V667.436H486.231V668.696H484.467V678.74H486.231V680H481.191ZM493.099 668.768V680H491.587V668.768H487.591V667.436H497.095V668.768H493.099ZM500.592 667.436V675.212C500.592 676.412 500.814 677.324 501.258 677.948C501.702 678.56 502.482 678.866 503.598 678.866C504.714 678.866 505.494 678.56 505.938 677.948C506.382 677.324 506.604 676.412 506.604 675.212V667.436H508.116V674.852C508.116 675.764 508.032 676.556 507.864 677.228C507.708 677.9 507.45 678.458 507.09 678.902C506.73 679.346 506.256 679.676 505.668 679.892C505.092 680.108 504.384 680.216 503.544 680.216C502.704 680.216 501.996 680.108 501.42 679.892C500.856 679.676 500.4 679.346 500.052 678.902C499.704 678.458 499.452 677.9 499.296 677.228C499.152 676.556 499.08 675.764 499.08 674.852V667.436H500.592ZM515.599 668.768V680H514.087V668.768H510.091V667.436H519.595V668.768H515.599ZM520.953 680V678.74H522.717V668.696H520.953V667.436H525.993V668.696H524.229V678.74H525.993V680H520.953ZM533.452 680.216C532.636 680.216 531.898 680.078 531.238 679.802C530.59 679.514 530.032 679.1 529.564 678.56C529.108 678.008 528.754 677.33 528.502 676.526C528.25 675.71 528.124 674.774 528.124 673.718C528.124 672.662 528.25 671.732 528.502 670.928C528.754 670.124 529.108 669.446 529.564 668.894C530.032 668.342 530.59 667.928 531.238 667.652C531.898 667.364 532.636 667.22 533.452 667.22C534.256 667.22 534.988 667.364 535.648 667.652C536.308 667.928 536.866 668.342 537.322 668.894C537.79 669.446 538.15 670.124 538.402 670.928C538.654 671.732 538.78 672.662 538.78 673.718C538.78 674.774 538.654 675.71 538.402 676.526C538.15 677.33 537.79 678.008 537.322 678.56C536.866 679.1 536.308 679.514 535.648 679.802C534.988 680.078 534.256 680.216 533.452 680.216ZM533.452 678.866C533.992 678.866 534.49 678.77 534.946 678.578C535.402 678.386 535.792 678.11 536.116 677.75C536.452 677.39 536.71 676.958 536.89 676.454C537.07 675.95 537.16 675.386 537.16 674.762V672.674C537.16 672.05 537.07 671.486 536.89 670.982C536.71 670.478 536.452 670.046 536.116 669.686C535.792 669.326 535.402 669.05 534.946 668.858C534.49 668.666 533.992 668.57 533.452 668.57C532.912 668.57 532.414 668.666 531.958 668.858C531.502 669.05 531.106 669.326 530.77 669.686C530.446 670.046 530.194 670.478 530.014 670.982C529.834 671.486 529.744 672.05 529.744 672.674V674.762C529.744 675.386 529.834 675.95 530.014 676.454C530.194 676.958 530.446 677.39 530.77 677.75C531.106 678.11 531.502 678.386 531.958 678.578C532.414 678.77 532.912 678.866 533.452 678.866ZM544.54 672.332L543.028 669.542H542.974V680H541.498V667.436H543.244L547.834 675.104L549.346 677.894H549.4V667.436H550.876V680H549.13L544.54 672.332Z" fill="black"/>
<path d="M982.55 68.52H984.95V71.04H985.07C985.47 70.06 986.05 69.34 986.81 68.88C987.59 68.4 988.52 68.16 989.6 68.16C990.56 68.16 991.43 68.35 992.21 68.73C992.99 69.11 993.65 69.65 994.19 70.35C994.75 71.05 995.17 71.9 995.45 72.9C995.75 73.9 995.9 75.02 995.9 76.26C995.9 77.5 995.75 78.62 995.45 79.62C995.17 80.62 994.75 81.47 994.19 82.17C993.65 82.87 992.99 83.41 992.21 83.79C991.43 84.17 990.56 84.36 989.6 84.36C987.5 84.36 985.99 83.4 985.07 81.48H984.95V90H982.55V68.52ZM988.94 82.2C990.3 82.2 991.37 81.78 992.15 80.94C992.93 80.08 993.32 78.96 993.32 77.58V74.94C993.32 73.56 992.93 72.45 992.15 71.61C991.37 70.75 990.3 70.32 988.94 70.32C988.4 70.32 987.88 70.4 987.38 70.56C986.9 70.7 986.48 70.9 986.12 71.16C985.76 71.42 985.47 71.74 985.25 72.12C985.05 72.48 984.95 72.87 984.95 73.29V79.05C984.95 79.55 985.05 80 985.25 80.4C985.47 80.78 985.76 81.11 986.12 81.39C986.48 81.65 986.9 81.85 987.38 81.99C987.88 82.13 988.4 82.2 988.94 82.2ZM999.952 84V68.52H1002.35V71.37H1002.5C1002.78 70.63 1003.28 69.97 1004 69.39C1004.72 68.81 1005.71 68.52 1006.97 68.52H1007.9V70.92H1006.49C1005.19 70.92 1004.17 71.17 1003.43 71.67C1002.71 72.15 1002.35 72.76 1002.35 73.5V84H999.952ZM1016.67 84.36C1015.63 84.36 1014.68 84.17 1013.82 83.79C1012.96 83.41 1012.22 82.87 1011.6 82.17C1011 81.45 1010.53 80.6 1010.19 79.62C1009.85 78.62 1009.68 77.5 1009.68 76.26C1009.68 75.04 1009.85 73.93 1010.19 72.93C1010.53 71.93 1011 71.08 1011.6 70.38C1012.22 69.66 1012.96 69.11 1013.82 68.73C1014.68 68.35 1015.63 68.16 1016.67 68.16C1017.71 68.16 1018.65 68.35 1019.49 68.73C1020.35 69.11 1021.09 69.66 1021.71 70.38C1022.33 71.08 1022.81 71.93 1023.15 72.93C1023.49 73.93 1023.66 75.04 1023.66 76.26C1023.66 77.5 1023.49 78.62 1023.15 79.62C1022.81 80.6 1022.33 81.45 1021.71 82.17C1021.09 82.87 1020.35 83.41 1019.49 83.79C1018.65 84.17 1017.71 84.36 1016.67 84.36ZM1016.67 82.23C1017.97 82.23 1019.03 81.83 1019.85 81.03C1020.67 80.23 1021.08 79.01 1021.08 77.37V75.15C1021.08 73.51 1020.67 72.29 1019.85 71.49C1019.03 70.69 1017.97 70.29 1016.67 70.29C1015.37 70.29 1014.31 70.69 1013.49 71.49C1012.67 72.29 1012.26 73.51 1012.26 75.15V77.37C1012.26 79.01 1012.67 80.23 1013.49 81.03C1014.31 81.83 1015.37 82.23 1016.67 82.23ZM1027.61 68.52H1030.01V86.4C1030.01 87.48 1029.74 88.35 1029.2 89.01C1028.66 89.67 1027.81 90 1026.65 90H1025.09V87.9H1027.61V68.52ZM1028.81 64.89C1028.29 64.89 1027.91 64.77 1027.67 64.53C1027.45 64.27 1027.34 63.94 1027.34 63.54V63.15C1027.34 62.75 1027.45 62.43 1027.67 62.19C1027.91 61.93 1028.29 61.8 1028.81 61.8C1029.33 61.8 1029.7 61.93 1029.92 62.19C1030.16 62.43 1030.28 62.75 1030.28 63.15V63.54C1030.28 63.94 1030.16 64.27 1029.92 64.53C1029.7 64.77 1029.33 64.89 1028.81 64.89ZM1040.93 84.36C1039.87 84.36 1038.91 84.17 1038.05 83.79C1037.21 83.41 1036.48 82.87 1035.86 82.17C1035.26 81.45 1034.79 80.6 1034.45 79.62C1034.13 78.62 1033.97 77.5 1033.97 76.26C1033.97 75.04 1034.13 73.93 1034.45 72.93C1034.79 71.93 1035.26 71.08 1035.86 70.38C1036.48 69.66 1037.21 69.11 1038.05 68.73C1038.91 68.35 1039.87 68.16 1040.93 68.16C1041.97 68.16 1042.9 68.35 1043.72 68.73C1044.54 69.11 1045.24 69.64 1045.82 70.32C1046.4 70.98 1046.84 71.77 1047.14 72.69C1047.46 73.61 1047.62 74.62 1047.62 75.72V76.86H1036.49V77.58C1036.49 78.24 1036.59 78.86 1036.79 79.44C1037.01 80 1037.31 80.49 1037.69 80.91C1038.09 81.33 1038.57 81.66 1039.13 81.9C1039.71 82.14 1040.36 82.26 1041.08 82.26C1042.06 82.26 1042.91 82.03 1043.63 81.57C1044.37 81.11 1044.94 80.45 1045.34 79.59L1047.05 80.82C1046.55 81.88 1045.77 82.74 1044.71 83.4C1043.65 84.04 1042.39 84.36 1040.93 84.36ZM1040.93 70.17C1040.27 70.17 1039.67 70.29 1039.13 70.53C1038.59 70.75 1038.12 71.07 1037.72 71.49C1037.34 71.91 1037.04 72.41 1036.82 72.99C1036.6 73.55 1036.49 74.17 1036.49 74.85V75.06H1045.04V74.73C1045.04 73.35 1044.66 72.25 1043.9 71.43C1043.16 70.59 1042.17 70.17 1040.93 70.17ZM1057.33 84.36C1056.25 84.36 1055.28 84.17 1054.42 83.79C1053.56 83.41 1052.83 82.87 1052.23 82.17C1051.65 81.47 1051.2 80.62 1050.88 79.62C1050.58 78.62 1050.43 77.5 1050.43 76.26C1050.43 75.02 1050.58 73.9 1050.88 72.9C1051.2 71.9 1051.65 71.05 1052.23 70.35C1052.83 69.65 1053.56 69.11 1054.42 68.73C1055.28 68.35 1056.25 68.16 1057.33 68.16C1058.87 68.16 1060.1 68.5 1061.02 69.18C1061.96 69.84 1062.66 70.71 1063.12 71.79L1061.11 72.81C1060.83 72.01 1060.37 71.39 1059.73 70.95C1059.09 70.51 1058.29 70.29 1057.33 70.29C1056.61 70.29 1055.98 70.41 1055.44 70.65C1054.9 70.87 1054.45 71.19 1054.09 71.61C1053.73 72.01 1053.46 72.5 1053.28 73.08C1053.1 73.64 1053.01 74.26 1053.01 74.94V77.58C1053.01 78.94 1053.37 80.06 1054.09 80.94C1054.83 81.8 1055.91 82.23 1057.33 82.23C1059.27 82.23 1060.67 81.33 1061.53 79.53L1063.27 80.7C1062.77 81.82 1062.02 82.71 1061.02 83.37C1060.04 84.03 1058.81 84.36 1057.33 84.36ZM1070.08 84C1069.24 84 1068.6 83.77 1068.16 83.31C1067.74 82.83 1067.53 82.21 1067.53 81.45V70.62H1064.98V68.52H1066.42C1066.94 68.52 1067.29 68.42 1067.47 68.22C1067.67 68 1067.77 67.63 1067.77 67.11V64.23H1069.93V68.52H1073.32V70.62H1069.93V81.9H1073.08V84H1070.08ZM1081.83 84.36C1080.39 84.36 1079.18 84.09 1078.2 83.55C1077.24 82.99 1076.41 82.25 1075.71 81.33L1077.42 79.95C1078.02 80.71 1078.69 81.3 1079.43 81.72C1080.17 82.12 1081.03 82.32 1082.01 82.32C1083.03 82.32 1083.82 82.1 1084.38 81.66C1084.96 81.22 1085.25 80.6 1085.25 79.8C1085.25 79.2 1085.05 78.69 1084.65 78.27C1084.27 77.83 1083.57 77.53 1082.55 77.37L1081.32 77.19C1080.6 77.09 1079.94 76.94 1079.34 76.74C1078.74 76.52 1078.21 76.24 1077.75 75.9C1077.31 75.54 1076.96 75.1 1076.7 74.58C1076.46 74.06 1076.34 73.44 1076.34 72.72C1076.34 71.96 1076.48 71.3 1076.76 70.74C1077.04 70.16 1077.42 69.68 1077.9 69.3C1078.4 68.92 1078.99 68.64 1079.67 68.46C1080.35 68.26 1081.08 68.16 1081.86 68.16C1083.12 68.16 1084.17 68.38 1085.01 68.82C1085.87 69.26 1086.62 69.87 1087.26 70.65L1085.67 72.09C1085.33 71.61 1084.83 71.18 1084.17 70.8C1083.51 70.4 1082.68 70.2 1081.68 70.2C1080.68 70.2 1079.92 70.42 1079.4 70.86C1078.9 71.28 1078.65 71.86 1078.65 72.6C1078.65 73.36 1078.9 73.91 1079.4 74.25C1079.92 74.59 1080.66 74.84 1081.62 75L1082.82 75.18C1084.54 75.44 1085.76 75.94 1086.48 76.68C1087.2 77.4 1087.56 78.35 1087.56 79.53C1087.56 81.03 1087.05 82.21 1086.03 83.07C1085.01 83.93 1083.61 84.36 1081.83 84.36Z" fill="black"/>
<path d="M861.22 84V68.34H865.06V70.95H865.21C865.51 70.13 865.99 69.43 866.65 68.85C867.31 68.27 868.23 67.98 869.41 67.98C870.49 67.98 871.42 68.24 872.2 68.76C872.98 69.28 873.56 70.07 873.94 71.13H874C874.28 70.25 874.83 69.51 875.65 68.91C876.49 68.29 877.54 67.98 878.8 67.98C880.34 67.98 881.52 68.51 882.34 69.57C883.18 70.63 883.6 72.14 883.6 74.1V84H879.76V74.49C879.76 72.25 878.92 71.13 877.24 71.13C876.86 71.13 876.49 71.19 876.13 71.31C875.79 71.41 875.48 71.57 875.2 71.79C874.94 71.99 874.73 72.25 874.57 72.57C874.41 72.87 874.33 73.23 874.33 73.65V84H870.49V74.49C870.49 72.25 869.65 71.13 867.97 71.13C867.61 71.13 867.25 71.19 866.89 71.31C866.55 71.41 866.24 71.57 865.96 71.79C865.7 71.99 865.48 72.25 865.3 72.57C865.14 72.87 865.06 73.23 865.06 73.65V84H861.22ZM899.371 84C898.531 84 897.861 83.76 897.361 83.28C896.881 82.78 896.581 82.12 896.461 81.3H896.281C896.021 82.32 895.491 83.09 894.691 83.61C893.891 84.11 892.901 84.36 891.721 84.36C890.121 84.36 888.891 83.94 888.031 83.1C887.171 82.26 886.741 81.14 886.741 79.74C886.741 78.12 887.321 76.92 888.481 76.14C889.641 75.34 891.291 74.94 893.431 74.94H896.101V73.8C896.101 72.92 895.871 72.24 895.411 71.76C894.951 71.28 894.211 71.04 893.191 71.04C892.291 71.04 891.561 71.24 891.001 71.64C890.461 72.02 890.001 72.48 889.621 73.02L887.341 70.98C887.921 70.08 888.691 69.36 889.651 68.82C890.611 68.26 891.881 67.98 893.461 67.98C895.581 67.98 897.191 68.46 898.291 69.42C899.391 70.38 899.941 71.76 899.941 73.56V80.94H901.501V84H899.371ZM893.011 81.57C893.871 81.57 894.601 81.38 895.201 81C895.801 80.62 896.101 80.06 896.101 79.32V77.25H893.641C891.641 77.25 890.641 77.89 890.641 79.17V79.68C890.641 80.32 890.841 80.8 891.241 81.12C891.661 81.42 892.251 81.57 893.011 81.57ZM906.529 66.06C905.729 66.06 905.149 65.88 904.789 65.52C904.449 65.16 904.279 64.7 904.279 64.14V63.54C904.279 62.98 904.449 62.52 904.789 62.16C905.149 61.8 905.729 61.62 906.529 61.62C907.309 61.62 907.879 61.8 908.239 62.16C908.599 62.52 908.779 62.98 908.779 63.54V64.14C908.779 64.7 908.599 65.16 908.239 65.52C907.879 65.88 907.309 66.06 906.529 66.06ZM904.609 68.34H908.449V84H904.609V68.34ZM912.9 84V68.34H916.74V70.95H916.89C917.21 70.11 917.71 69.41 918.39 68.85C919.09 68.27 920.05 67.98 921.27 67.98C922.89 67.98 924.13 68.51 924.99 69.57C925.85 70.63 926.28 72.14 926.28 74.1V84H922.44V74.49C922.44 73.37 922.24 72.53 921.84 71.97C921.44 71.41 920.78 71.13 919.86 71.13C919.46 71.13 919.07 71.19 918.69 71.31C918.33 71.41 918 71.57 917.7 71.79C917.42 71.99 917.19 72.25 917.01 72.57C916.83 72.87 916.74 73.23 916.74 73.65V84H912.9Z" fill="black"/>
<path d="M1159.8 84C1158.9 84 1158.25 83.76 1157.85 83.28C1157.47 82.8 1157.23 82.2 1157.13 81.48H1156.98C1156.64 82.44 1156.08 83.16 1155.3 83.64C1154.52 84.12 1153.59 84.36 1152.51 84.36C1150.87 84.36 1149.59 83.94 1148.67 83.1C1147.77 82.26 1147.32 81.12 1147.32 79.68C1147.32 78.22 1147.85 77.1 1148.91 76.32C1149.99 75.54 1151.66 75.15 1153.92 75.15H1156.98V73.62C1156.98 72.52 1156.68 71.68 1156.08 71.1C1155.48 70.52 1154.56 70.23 1153.32 70.23C1152.38 70.23 1151.59 70.44 1150.95 70.86C1150.33 71.28 1149.81 71.84 1149.39 72.54L1147.95 71.19C1148.37 70.35 1149.04 69.64 1149.96 69.06C1150.88 68.46 1152.04 68.16 1153.44 68.16C1155.32 68.16 1156.78 68.62 1157.82 69.54C1158.86 70.46 1159.38 71.74 1159.38 73.38V81.9H1161.15V84H1159.8ZM1152.9 82.32C1153.5 82.32 1154.05 82.25 1154.55 82.11C1155.05 81.97 1155.48 81.77 1155.84 81.51C1156.2 81.25 1156.48 80.95 1156.68 80.61C1156.88 80.27 1156.98 79.9 1156.98 79.5V76.95H1153.8C1152.42 76.95 1151.41 77.15 1150.77 77.55C1150.15 77.95 1149.84 78.53 1149.84 79.29V79.92C1149.84 80.68 1150.11 81.27 1150.65 81.69C1151.21 82.11 1151.96 82.32 1152.9 82.32ZM1164.58 61.8H1166.98V71.04H1167.1C1167.5 70.06 1168.08 69.34 1168.84 68.88C1169.62 68.4 1170.55 68.16 1171.63 68.16C1172.59 68.16 1173.46 68.35 1174.24 68.73C1175.02 69.11 1175.68 69.65 1176.22 70.35C1176.78 71.05 1177.2 71.9 1177.48 72.9C1177.78 73.9 1177.93 75.02 1177.93 76.26C1177.93 77.5 1177.78 78.62 1177.48 79.62C1177.2 80.62 1176.78 81.47 1176.22 82.17C1175.68 82.87 1175.02 83.41 1174.24 83.79C1173.46 84.17 1172.59 84.36 1171.63 84.36C1169.53 84.36 1168.02 83.4 1167.1 81.48H1166.98V84H1164.58V61.8ZM1170.97 82.2C1172.33 82.2 1173.4 81.78 1174.18 80.94C1174.96 80.08 1175.35 78.96 1175.35 77.58V74.94C1175.35 73.56 1174.96 72.45 1174.18 71.61C1173.4 70.75 1172.33 70.32 1170.97 70.32C1170.43 70.32 1169.91 70.4 1169.41 70.56C1168.93 70.7 1168.51 70.9 1168.15 71.16C1167.79 71.42 1167.5 71.74 1167.28 72.12C1167.08 72.48 1166.98 72.87 1166.98 73.29V79.05C1166.98 79.55 1167.08 80 1167.28 80.4C1167.5 80.78 1167.79 81.11 1168.15 81.39C1168.51 81.65 1168.93 81.85 1169.41 81.99C1169.91 82.13 1170.43 82.2 1170.97 82.2ZM1187.83 84.36C1186.79 84.36 1185.84 84.17 1184.98 83.79C1184.12 83.41 1183.38 82.87 1182.76 82.17C1182.16 81.45 1181.69 80.6 1181.35 79.62C1181.01 78.62 1180.84 77.5 1180.84 76.26C1180.84 75.04 1181.01 73.93 1181.35 72.93C1181.69 71.93 1182.16 71.08 1182.76 70.38C1183.38 69.66 1184.12 69.11 1184.98 68.73C1185.84 68.35 1186.79 68.16 1187.83 68.16C1188.87 68.16 1189.81 68.35 1190.65 68.73C1191.51 69.11 1192.25 69.66 1192.87 70.38C1193.49 71.08 1193.97 71.93 1194.31 72.93C1194.65 73.93 1194.82 75.04 1194.82 76.26C1194.82 77.5 1194.65 78.62 1194.31 79.62C1193.97 80.6 1193.49 81.45 1192.87 82.17C1192.25 82.87 1191.51 83.41 1190.65 83.79C1189.81 84.17 1188.87 84.36 1187.83 84.36ZM1187.83 82.23C1189.13 82.23 1190.19 81.83 1191.01 81.03C1191.83 80.23 1192.24 79.01 1192.24 77.37V75.15C1192.24 73.51 1191.83 72.29 1191.01 71.49C1190.19 70.69 1189.13 70.29 1187.83 70.29C1186.53 70.29 1185.47 70.69 1184.65 71.49C1183.83 72.29 1183.42 73.51 1183.42 75.15V77.37C1183.42 79.01 1183.83 80.23 1184.65 81.03C1185.47 81.83 1186.53 82.23 1187.83 82.23ZM1208.3 81.48H1208.18C1208.02 81.84 1207.82 82.2 1207.58 82.56C1207.36 82.9 1207.08 83.21 1206.74 83.49C1206.4 83.75 1205.99 83.96 1205.51 84.12C1205.03 84.28 1204.47 84.36 1203.83 84.36C1202.23 84.36 1200.96 83.85 1200.02 82.83C1199.08 81.79 1198.61 80.33 1198.61 78.45V68.52H1201.01V78.03C1201.01 80.81 1202.19 82.2 1204.55 82.2C1205.03 82.2 1205.49 82.14 1205.93 82.02C1206.39 81.9 1206.79 81.72 1207.13 81.48C1207.49 81.24 1207.77 80.94 1207.97 80.58C1208.19 80.2 1208.3 79.75 1208.3 79.23V68.52H1210.7V84H1208.3V81.48ZM1219.24 84C1218.4 84 1217.76 83.77 1217.32 83.31C1216.9 82.83 1216.69 82.21 1216.69 81.45V70.62H1214.14V68.52H1215.58C1216.1 68.52 1216.45 68.42 1216.63 68.22C1216.83 68 1216.93 67.63 1216.93 67.11V64.23H1219.09V68.52H1222.48V70.62H1219.09V81.9H1222.24V84H1219.24Z" fill="black"/>
<path d="M1285.55 61.8H1287.95V71.04H1288.07C1288.47 70.06 1289.05 69.34 1289.81 68.88C1290.59 68.4 1291.52 68.16 1292.6 68.16C1293.56 68.16 1294.43 68.35 1295.21 68.73C1295.99 69.11 1296.65 69.65 1297.19 70.35C1297.75 71.05 1298.17 71.9 1298.45 72.9C1298.75 73.9 1298.9 75.02 1298.9 76.26C1298.9 77.5 1298.75 78.62 1298.45 79.62C1298.17 80.62 1297.75 81.47 1297.19 82.17C1296.65 82.87 1295.99 83.41 1295.21 83.79C1294.43 84.17 1293.56 84.36 1292.6 84.36C1290.5 84.36 1288.99 83.4 1288.07 81.48H1287.95V84H1285.55V61.8ZM1291.94 82.2C1293.3 82.2 1294.37 81.78 1295.15 80.94C1295.93 80.08 1296.32 78.96 1296.32 77.58V74.94C1296.32 73.56 1295.93 72.45 1295.15 71.61C1294.37 70.75 1293.3 70.32 1291.94 70.32C1291.4 70.32 1290.88 70.4 1290.38 70.56C1289.9 70.7 1289.48 70.9 1289.12 71.16C1288.76 71.42 1288.47 71.74 1288.25 72.12C1288.05 72.48 1287.95 72.87 1287.95 73.29V79.05C1287.95 79.55 1288.05 80 1288.25 80.4C1288.47 80.78 1288.76 81.11 1289.12 81.39C1289.48 81.65 1289.9 81.85 1290.38 81.99C1290.88 82.13 1291.4 82.2 1291.94 82.2ZM1305.5 84C1304.66 84 1304.02 83.77 1303.58 83.31C1303.16 82.83 1302.95 82.23 1302.95 81.51V61.8H1305.35V81.9H1307.63V84H1305.5ZM1316.98 84.36C1315.94 84.36 1314.99 84.17 1314.13 83.79C1313.27 83.41 1312.53 82.87 1311.91 82.17C1311.31 81.45 1310.84 80.6 1310.5 79.62C1310.16 78.62 1309.99 77.5 1309.99 76.26C1309.99 75.04 1310.16 73.93 1310.5 72.93C1310.84 71.93 1311.31 71.08 1311.91 70.38C1312.53 69.66 1313.27 69.11 1314.13 68.73C1314.99 68.35 1315.94 68.16 1316.98 68.16C1318.02 68.16 1318.96 68.35 1319.8 68.73C1320.66 69.11 1321.4 69.66 1322.02 70.38C1322.64 71.08 1323.12 71.93 1323.46 72.93C1323.8 73.93 1323.97 75.04 1323.97 76.26C1323.97 77.5 1323.8 78.62 1323.46 79.62C1323.12 80.6 1322.64 81.45 1322.02 82.17C1321.4 82.87 1320.66 83.41 1319.8 83.79C1318.96 84.17 1318.02 84.36 1316.98 84.36ZM1316.98 82.23C1318.28 82.23 1319.34 81.83 1320.16 81.03C1320.98 80.23 1321.39 79.01 1321.39 77.37V75.15C1321.39 73.51 1320.98 72.29 1320.16 71.49C1319.34 70.69 1318.28 70.29 1316.98 70.29C1315.68 70.29 1314.62 70.69 1313.8 71.49C1312.98 72.29 1312.57 73.51 1312.57 75.15V77.37C1312.57 79.01 1312.98 80.23 1313.8 81.03C1314.62 81.83 1315.68 82.23 1316.98 82.23ZM1340.96 85.71C1340.96 87.31 1340.33 88.48 1339.07 89.22C1337.83 89.98 1335.96 90.36 1333.46 90.36C1331.04 90.36 1329.3 90.03 1328.24 89.37C1327.18 88.71 1326.65 87.77 1326.65 86.55C1326.65 85.71 1326.87 85.05 1327.31 84.57C1327.75 84.11 1328.35 83.77 1329.11 83.55V83.22C1328.19 82.78 1327.73 82.06 1327.73 81.06C1327.73 80.28 1327.98 79.69 1328.48 79.29C1328.98 78.87 1329.62 78.56 1330.4 78.36V78.24C1329.48 77.8 1328.76 77.17 1328.24 76.35C1327.74 75.53 1327.49 74.58 1327.49 73.5C1327.49 72.72 1327.63 72 1327.91 71.34C1328.19 70.68 1328.58 70.12 1329.08 69.66C1329.6 69.18 1330.21 68.81 1330.91 68.55C1331.63 68.29 1332.43 68.16 1333.31 68.16C1334.41 68.16 1335.39 68.36 1336.25 68.76V68.49C1336.25 67.89 1336.39 67.4 1336.67 67.02C1336.95 66.62 1337.41 66.42 1338.05 66.42H1340.36V68.52H1337.42V69.51C1337.98 69.99 1338.41 70.57 1338.71 71.25C1339.03 71.91 1339.19 72.66 1339.19 73.5C1339.19 74.28 1339.05 75 1338.77 75.66C1338.49 76.32 1338.09 76.89 1337.57 77.37C1337.07 77.83 1336.46 78.19 1335.74 78.45C1335.02 78.71 1334.22 78.84 1333.34 78.84C1332.84 78.84 1332.34 78.79 1331.84 78.69C1331.32 78.83 1330.85 79.04 1330.43 79.32C1330.01 79.58 1329.8 79.95 1329.8 80.43C1329.8 80.89 1330.02 81.2 1330.46 81.36C1330.9 81.52 1331.47 81.6 1332.17 81.6H1335.47C1337.39 81.6 1338.78 81.97 1339.64 82.71C1340.52 83.43 1340.96 84.43 1340.96 85.71ZM1338.71 85.89C1338.71 85.27 1338.47 84.77 1337.99 84.39C1337.53 84.03 1336.7 83.85 1335.5 83.85H1330.34C1329.38 84.29 1328.9 84.99 1328.9 85.95C1328.9 86.63 1329.15 87.21 1329.65 87.69C1330.17 88.17 1331.04 88.41 1332.26 88.41H1334.48C1335.82 88.41 1336.86 88.2 1337.6 87.78C1338.34 87.36 1338.71 86.73 1338.71 85.89ZM1333.34 76.92C1334.36 76.92 1335.17 76.68 1335.77 76.2C1336.37 75.7 1336.67 74.94 1336.67 73.92V73.08C1336.67 72.06 1336.37 71.31 1335.77 70.83C1335.17 70.33 1334.36 70.08 1333.34 70.08C1332.32 70.08 1331.51 70.33 1330.91 70.83C1330.31 71.31 1330.01 72.06 1330.01 73.08V73.92C1330.01 74.94 1330.31 75.7 1330.91 76.2C1331.51 76.68 1332.32 76.92 1333.34 76.92Z" fill="black"/>
<circle cx="115" cy="762" r="20" stroke="#0000FF" stroke-width="6"/>
<circle cx="115" cy="762" r="12" fill="#0000FF"/>
<circle cx="126" cy="73" r="13" fill="#0000FF"/>
</g>
<rect x="0.5" y="0.5" width="1439" height="2525" stroke="#0000FF"/>
<defs>
<filter id="filter0_d_28_151" x="198" y="682" width="1084" height="839" filterUnits="userSpaceOnUse" color-interpolation-filters="sRGB">
<feFlood flood-opacity="0" result="BackgroundImageFix"/>
<feColorMatrix in="SourceAlpha" type="matrix" values="0 0 0 0 0 0 0 0 0 0 0 0 0 0 0 0 0 0 127 0" result="hardAlpha"/>
<feMorphology radius="1" operator="dilate" in="SourceAlpha" result="effect1_dropShadow_28_151"/>
<feOffset dx="20" dy="20"/>
<feGaussianBlur stdDeviation="25"/>
<feComposite in2="hardAlpha" operator="out"/>
<feColorMatrix type="matrix" values="0 0 0 0 0 0 0 0 0 0 0 0 0 0 0 0 0 0 0.25 0"/>
<feBlend mode="normal" in2="BackgroundImageFix" result="effect1_dropShadow_28_151"/>
<feBlend mode="normal" in="SourceGraphic" in2="effect1_dropShadow_28_151" result="shape"/>
</filter>
<clipPath id="clip0_28_151">
<rect width="1440" height="2526" fill="white"/>
</clipPath>
</defs>
</svg>
