<?xml version="1.0" encoding="UTF-8" standalone="no"?>
<!DOCTYPE svg PUBLIC "-//W3C//DTD SVG 1.1//EN" "http://www.w3.org/Graphics/SVG/1.1/DTD/svg11.dtd">
<svg width="100%" height="100%" viewBox="0 0 1920 1080" version="1.1" xmlns="http://www.w3.org/2000/svg" xmlns:xlink="http://www.w3.org/1999/xlink" xml:space="preserve" xmlns:serif="http://www.serif.com/" style="fill-rule:evenodd;clip-rule:evenodd;stroke-linejoin:round;stroke-miterlimit:2;">
    <g transform="matrix(1,0,0,1,0,-12)">
        <g transform="matrix(18,0,0,18,1864.13,1044)">
        </g>
        <g transform="matrix(18,0,0,18,1886,1044)">
        </g>
        <text x="1864.13px" y="1044px" style="font-family:'AvenirNextLTPro-Demi', 'Avenir Next LT Pro', sans-serif;font-weight:600;font-size:18px;fill:white;">30</text>
    </g>
    <g transform="matrix(0.84025,0,0,0.455696,244.605,-76.557)">
        <path d="M1554.53,721C1554.53,633.797 1516.14,563 1468.84,563L233.972,563C186.679,563 148.284,633.797 148.284,721C148.284,808.203 186.679,879 233.972,879L1468.84,879C1516.14,879 1554.53,808.203 1554.53,721Z" style="fill:rgb(224,73,66);fill-opacity:0.9;"/>
    </g>
    <g transform="matrix(0.84025,0,0,0.455696,244.605,115.443)">
        <path d="M1554.53,721C1554.53,633.797 1516.14,563 1468.84,563L233.972,563C186.679,563 148.284,633.797 148.284,721C148.284,808.203 186.679,879 233.972,879L1468.84,879C1516.14,879 1554.53,808.203 1554.53,721Z" style="fill:rgb(224,73,66);fill-opacity:0.9;"/>
    </g>
    <g transform="matrix(0.84025,0,0,0.455696,244.605,307.444)">
        <path d="M1554.53,721C1554.53,633.797 1516.14,563 1468.84,563L233.972,563C186.679,563 148.284,633.797 148.284,721C148.284,808.203 186.679,879 233.972,879L1468.84,879C1516.14,879 1554.53,808.203 1554.53,721Z" style="fill:rgb(224,73,66);fill-opacity:0.9;"/>
    </g>
    <g transform="matrix(0.84025,0,0,0.455696,244.605,499.444)">
        <path d="M1554.53,721C1554.53,633.797 1516.14,563 1468.84,563L233.972,563C186.679,563 148.284,633.797 148.284,721C148.284,808.203 186.679,879 233.972,879L1468.84,879C1516.14,879 1554.53,808.203 1554.53,721Z" style="fill:rgb(224,73,66);fill-opacity:0.9;"/>
    </g>
    <g transform="matrix(1,0,0,1,1098.71,166.158)">
        <text x="-662.59px" y="73.842px" style="font-family:'AvenirNextLTPro-Demi', 'Avenir Next LT Pro', sans-serif;font-weight:600;font-size:37px;fill:white;">5<tspan x="-640.39px -631.14px -608.94px -586.74px -564.54px -555.29px -533.09px -510.89px -488.69px -479.81px -456.241px -435.077px -422.645px -399.631px -378.763px -365.665px -354.935px -345.389px -324.225px -303.061px -282.193px " y="73.842px 73.842px 73.842px 73.842px 73.842px 73.842px 73.842px 73.842px 73.842px 73.842px 73.842px 73.842px 73.842px 73.842px 73.842px 73.842px 73.842px 73.842px 73.842px 73.842px 73.842px ">.100.000 Bürger:innen</tspan></text>
        <text x="-252.149px" y="73.842px" style="font-family:'AvenirNextLTPro-Regular', 'Avenir Next LT Pro', sans-serif;font-size:37px;fill:white;">i<tspan x="-243.269px -210.968px -202.754px -177.224px -168.27px -156.911px -136.117px " y="73.842px 73.842px 73.842px 73.842px 73.842px 73.842px 73.842px ">m Alter</tspan></text>
        <text x="-114.287px" y="73.842px" style="font-family:'AvenirNextLTPro-Demi', 'Avenir Next LT Pro', sans-serif;font-weight:600;font-size:37px;fill:white;"><tspan x="-114.287px -96.823px -67.445px -57.899px -41.841px -24.155px -2.917px 17.951px 39.115px 47.995px 70.195px 92.395px 103.865px 126.065px 148.265px 156.701px 174.535px 194.515px 215.753px 228.185px 249.053px " y="73.842px 73.842px 73.842px 73.842px 73.842px 73.842px 73.842px 73.842px 73.842px 73.842px 73.842px 73.842px 73.842px 73.842px 73.842px 73.842px 73.842px 73.842px 73.842px 73.842px 73.842px ">zwischen 18-64 Jahren</tspan></text>
        <text x="279.097px" y="73.842px" style="font-family:'AvenirNextLTPro-Regular', 'Avenir Next LT Pro', sans-serif;font-size:37px;fill:white;">h<tspan x="300.298px 319.686px 342.885px 363.679px " y="73.842px 73.842px 73.842px 73.842px ">aben</tspan></text>
        <text x="-584.65px" y="121.842px" style="font-family:'AvenirNextLTPro-Regular', 'Avenir Next LT Pro', sans-serif;font-size:37px;fill:white;">2<tspan x="-563.56px -542.47px -521.38px -500.29px -491.41px -482.53px -461.403px -452.523px -424.884px -404.09px -382.963px -371.604px -355.546px -337.416px -316.215px -307.261px -287.873px -266.746px " y="121.842px 121.842px 121.842px 121.842px 121.842px 121.842px 121.842px 121.842px 121.842px 121.842px 121.842px 121.842px 121.842px 121.842px 121.842px 121.842px 121.842px 121.842px ">023 in Deutschland</tspan></text>
        <text x="-234.667px" y="121.842px" style="font-family:'AvenirNextLTPro-Demi', 'Avenir Next LT Pro', sans-serif;font-weight:600;font-size:37px;fill:white;">i<tspan x="-225.121px -215.575px -206.029px -185.161px -162.147px -142.167px -132.621px -111.753px -102.873px -82.005px -60.841px -37.716px -21.658px -9.448px 10.532px 31.696px 49.16px 70.028px " y="121.842px 121.842px 121.842px 121.842px 121.842px 121.842px 121.842px 121.842px 121.842px 121.842px 121.842px 121.842px 121.842px 121.842px 121.842px 121.842px 121.842px 121.842px ">llegale Substanzen</tspan></text>
        <g transform="matrix(37,0,0,37,307.235,121.842)">
        </g>
        <text x="100.072px" y="121.842px" style="font-family:'AvenirNextLTPro-Regular', 'Avenir Next LT Pro', sans-serif;font-size:37px;fill:white;">k<tspan x="117.906px 140.143px 161.27px 177.328px 198.455px 230.756px 239.636px 260.43px 272.936px 284.295px 293.545px " y="121.842px 121.842px 121.842px 121.842px 121.842px 121.842px 121.842px 121.842px 121.842px 121.842px 121.842px ">onsumiert.¹</tspan></text>
    </g>
    <g transform="matrix(1,0,0,1,1098.71,530.133)">
        <text x="-633.638px" y="93.867px" style="font-family:'AvenirNextLTPro-Demi', 'Avenir Next LT Pro', sans-serif;font-weight:600;font-size:37px;fill:white;">2<tspan x="-611.438px -602.188px -579.988px -557.788px -535.588px -527.596px -510.502px -488.302px -465.214px -444.346px -428.288px -406.088px -383.037px -371.419px -350.551px -339.229px " y="93.867px 93.867px 93.867px 93.867px 93.867px 93.867px 93.867px 93.867px 93.867px 93.867px 93.867px 93.867px 93.867px 93.867px 93.867px 93.867px ">.000 Todesopfer,</tspan></text>
        <text x="-322.209px" y="93.867px" style="font-family:'AvenirNextLTPro-Regular', 'Avenir Next LT Pro', sans-serif;font-size:37px;fill:white;">d<tspan x="-299.01px -277.883px -265.599px -247.469px -226.268px -217.388px -199.702px -178.908px -165.958px -144.831px -123.704px -111.42px -90.626px -81.746px -60.619px -51.739px -28.725px -17.366px 3.428px 24.555px 33.435px 55.672px 78.871px 99.665px 112.615px 121.495px 142.622px 165.821px 186.615px 198.899px 222.098px 244.335px 260.393px 269.273px 290.067px 302.573px 313.932px 334.726px " y="93.867px 93.867px 93.867px 93.867px 93.867px 93.867px 93.867px 93.867px 93.867px 93.867px 93.867px 93.867px 93.867px 93.867px 93.867px 93.867px 93.867px 93.867px 93.867px 93.867px 93.867px 93.867px 93.867px 93.867px 93.867px 93.867px 93.867px 93.867px 93.867px 93.867px 93.867px 93.867px 93.867px 93.867px 93.867px 93.867px 93.867px 93.867px ">urch verunreinigten oder überdosierten</tspan></text>
        <text x="-677.8px" y="141.867px" style="font-family:'AvenirNextLTPro-Regular', 'Avenir Next LT Pro', sans-serif;font-size:37px;fill:white;">K<tspan x="-656.044px -633.807px -612.68px -596.622px -575.495px -543.194px " y="141.867px 141.867px 141.867px 141.867px 141.867px 141.867px ">onsum.</tspan></text>
        <text x="-526.174px" y="141.867px" style="font-family:'AvenirNextLTPro-Demi', 'Avenir Next LT Pro', sans-serif;font-weight:600;font-size:37px;fill:white;">1<tspan x="-503.974px -481.774px -472.524px -450.324px -428.124px -405.924px -397.044px -377.249px -356.381px -343.283px -327.225px -305.025px -283.861px -262.993px " y="141.867px 141.867px 141.867px 141.867px 141.867px 141.867px 141.867px 141.867px 141.867px 141.867px 141.867px 141.867px 141.867px 141.867px ">7.200 Personen</tspan></text>
        <text x="-232.949px" y="141.867px" style="font-family:'AvenirNextLTPro-Regular', 'Avenir Next LT Pro', sans-serif;font-size:37px;fill:white;">m<tspan x="-200.648px -179.521px -163.463px -147.405px -136.046px -115.252px " y="141.867px 141.867px 141.867px 141.867px 141.867px 141.867px ">ussten</tspan></text>
        <text x="-85.245px" y="141.867px" style="font-family:'AvenirNextLTPro-Demi', 'Avenir Next LT Pro', sans-serif;font-weight:600;font-size:37px;fill:white;"><tspan x="-85.245px -64.599px -52.389px -32.779px -20.569px -11.023px 11.177px 32.341px 52.321px " y="141.867px 141.867px 141.867px 141.867px 141.867px 141.867px 141.867px 141.867px 141.867px ">Stationär</tspan></text>
        <text x="74.299px" y="141.867px" style="font-family:'AvenirNextLTPro-Regular', 'Avenir Next LT Pro', sans-serif;font-size:37px;fill:white;">b<tspan x="97.498px 118.292px 139.493px 158.881px 180.008px 203.207px 224.001px 232.955px 244.314px 253.194px 280.426px 301.22px 313.504px 336.703px 357.497px 378.624px " y="141.867px 141.867px 141.867px 141.867px 141.867px 141.867px 141.867px 141.867px 141.867px 141.867px 141.867px 141.867px 141.867px 141.867px 141.867px 141.867px ">ehandelt werden.</tspan></text>
        <g transform="matrix(21.571,0,0,21.571,400.385,129.546)">
        </g>
        <text x="387.874px" y="129.546px" style="font-family:'AvenirNextLTPro-Regular', 'Avenir Next LT Pro', sans-serif;font-size:21.571px;fill:white;">3</text>
    </g>
    <g transform="matrix(1,0,0,1,1098.71,722.133)">
        <text x="-678.659px" y="93.867px" style="font-family:'AvenirNextLTPro-Demi', 'Avenir Next LT Pro', sans-serif;font-weight:600;font-size:37px;fill:white;">7<tspan x="-656.459px -648.467px -631.373px -611.393px -588.379px " y="93.867px 93.867px 93.867px 93.867px 93.867px "> Tage</tspan></text>
        <text x="-558.631px" y="93.867px" style="font-family:'AvenirNextLTPro-Regular', 'Avenir Next LT Pro', sans-serif;font-size:37px;fill:white;"><tspan x="-558.631px -540.353px -520.965px -499.838px -478.711px -469.831px -449.037px -432.979px -424.099px -415.219px -394.092px -385.212px -362.013px -341.219px -320.092px -311.212px -292.712px -273.324px -250.125px -227.888px -215.604px -194.81px -173.683px -164.803px -141.604px -120.81px -107.86px -98.98px -71.341px -58.391px -37.264px -14.25px -2.78px 23.49px 44.691px 65.485px 83.615px 102.115px 110.995px 132.122px 155.136px 166.162px 186.438px 197.797px 218.591px 227.545px 236.499px 257.293px 278.42px 287.3px 310.499px 329.887px 351.014px 371.808px 384.758px 405.885px " y="93.867px 93.867px 93.867px 93.867px 93.867px 93.867px 93.867px 93.867px 93.867px 93.867px 93.867px 93.867px 93.867px 93.867px 93.867px 93.867px 93.867px 93.867px 93.867px 93.867px 93.867px 93.867px 93.867px 93.867px 93.867px 93.867px 93.867px 93.867px 93.867px 93.867px 93.867px 93.867px 93.867px 93.867px 93.867px 93.867px 93.867px 93.867px 93.867px 93.867px 93.867px 93.867px 93.867px 93.867px 93.867px 93.867px 93.867px 93.867px 93.867px 93.867px 93.867px 93.867px 93.867px 93.867px 93.867px 93.867px ">kann es in den Laboren der Drug-Checking-Stellen dauern,</tspan></text>
        <text x="-678.421px" y="141.867px" style="font-family:'AvenirNextLTPro-Regular', 'Avenir Next LT Pro', sans-serif;font-size:37px;fill:white;">d<tspan x="-655.222px -646.342px " y="141.867px 141.867px ">ie</tspan></text>
        <text x="-616.668px" y="141.867px" style="font-family:'AvenirNextLTPro-Demi', 'Avenir Next LT Pro', sans-serif;font-weight:600;font-size:37px;fill:white;">I<tspan x="-606.604px -585.44px -564.202px -544.222px -534.676px -522.466px -506.408px -490.35px -478.14px -455.94px -445.099px -433.481px " y="141.867px 141.867px 141.867px 141.867px 141.867px 141.867px 141.867px 141.867px 141.867px 141.867px 141.867px 141.867px ">nhaltsstoffe</tspan></text>
        <text x="-403.733px" y="141.867px" style="font-family:'AvenirNextLTPro-Regular', 'Avenir Next LT Pro', sans-serif;font-size:37px;fill:white;"><tspan x="-403.733px -387.749px " y="141.867px 141.867px ">zu</tspan></text>
        <text x="-357.742px" y="141.867px" style="font-family:'AvenirNextLTPro-Demi', 'Avenir Next LT Pro', sans-serif;font-weight:600;font-size:37px;fill:white;">a<tspan x="-337.762px -316.598px -296.618px -287.072px -268.461px -252.403px -242.857px -221.989px -209.557px -188.689px " y="141.867px 141.867px 141.867px 141.867px 141.867px 141.867px 141.867px 141.867px 141.867px 141.867px ">nalysieren</tspan></text>
        <text x="-158.645px" y="141.867px" style="font-family:'AvenirNextLTPro-Regular', 'Avenir Next LT Pro', sans-serif;font-size:37px;fill:white;"><tspan x="-158.645px -137.518px -116.391px -93.192px -84.312px -63.518px -54.638px -33.511px " y="141.867px 141.867px 141.867px 141.867px 141.867px 141.867px 141.867px 141.867px ">und eine</tspan></text>
        <text x="-3.837px" y="141.867px" style="font-family:'AvenirNextLTPro-Demi', 'Avenir Next LT Pro', sans-serif;font-weight:600;font-size:37px;fill:white;">R<tspan x="18.622px 39.786px 57.472px 77.193px 109.753px 130.621px 140.167px 163.255px 184.419px 205.583px " y="141.867px 141.867px 141.867px 141.867px 141.867px 141.867px 141.867px 141.867px 141.867px 141.867px ">ückmeldung</tspan></text>
        <text x="237.477px" y="141.867px" style="font-family:'AvenirNextLTPro-Regular', 'Avenir Next LT Pro', sans-serif;font-size:37px;fill:white;"><tspan x="237.477px 253.461px 274.588px 283.468px 306.482px 327.276px 350.475px 371.269px 392.396px " y="141.867px 141.867px 141.867px 141.867px 141.867px 141.867px 141.867px 141.867px 141.867px ">zu geben.</tspan></text>
        <g transform="matrix(21.571,0,0,21.571,414.157,129.546)">
        </g>
        <text x="401.646px" y="129.546px" style="font-family:'AvenirNextLTPro-Regular', 'Avenir Next LT Pro', sans-serif;font-size:21.571px;fill:white;">4</text>
    </g>
    <g transform="matrix(1,0,0,1,1098.71,338.133)">
        <text x="-625.609px" y="93.867px" style="font-family:'AvenirNextLTPro-Demi', 'Avenir Next LT Pro', sans-serif;font-weight:600;font-size:37px;fill:white;">3<tspan x="-603.409px -581.209px -569.739px -547.539px -525.339px " y="93.867px 93.867px 93.867px 93.867px 93.867px ">0-50%</tspan></text>
        <text x="-482.419px" y="93.867px" style="font-family:'AvenirNextLTPro-Regular', 'Avenir Next LT Pro', sans-serif;font-size:37px;fill:white;">d<tspan x="-459.22px -438.426px -425.476px -416.596px -388.957px -376.673px -354.436px -331.422px -310.628px -289.501px -281.361px -272.481px -249.282px -240.402px -219.608px -210.728px -191.34px -170.213px -158.78px -149.9px -126.701px -105.907px -73.606px -64.726px -41.527px -20.733px 0.394px 11.753px 27.811px 45.941px 67.142px 87.936px 109.063px 117.943px 138.441px 156.571px 177.772px 205.004px 224.392px 237.342px 253.326px 285.627px 305.015px 317.965px 336.465px " y="93.867px 93.867px 93.867px 93.867px 93.867px 93.867px 93.867px 93.867px 93.867px 93.867px 93.867px 93.867px 93.867px 93.867px 93.867px 93.867px 93.867px 93.867px 93.867px 93.867px 93.867px 93.867px 93.867px 93.867px 93.867px 93.867px 93.867px 93.867px 93.867px 93.867px 93.867px 93.867px 93.867px 93.867px 93.867px 93.867px 93.867px 93.867px 93.867px 93.867px 93.867px 93.867px 93.867px 93.867px 93.867px ">er Drogen, die auf dem deutschen Schwarzmarkt</tspan></text>
        <text x="-577.622px" y="141.867px" style="font-family:'AvenirNextLTPro-Regular', 'Avenir Next LT Pro', sans-serif;font-size:37px;fill:white;">v<tspan x="-559.936px -539.142px -526.192px -507.914px -488.526px -467.399px -457.298px -445.939px -437.059px -409.827px -389.033px -376.749px -353.55px -332.756px -311.629px -303.489px -294.609px -278.551px -269.671px -248.544px " y="141.867px 141.867px 141.867px 141.867px 141.867px 141.867px 141.867px 141.867px 141.867px 141.867px 141.867px 141.867px 141.867px 141.867px 141.867px 141.867px 141.867px 141.867px 141.867px 141.867px ">erkauft werden, sind</tspan></text>
        <text x="-216.465px" y="141.867px" style="font-family:'AvenirNextLTPro-Demi', 'Avenir Next LT Pro', sans-serif;font-weight:600;font-size:37px;fill:white;">v<tspan x="-197.854px -176.986px -163.888px -142.724px -121.56px -109.128px -88.26px -78.714px -57.55px -48.004px -24.99px -12.78px -3.9px 18.3px 41.388px 62.256px 75.354px 84.234px 105.398px 128.523px 149.391px 161.823px 184.911px 207.111px 223.169px 232.715px 253.583px 266.237px 278.447px " y="141.867px 141.867px 141.867px 141.867px 141.867px 141.867px 141.867px 141.867px 141.867px 141.867px 141.867px 141.867px 141.867px 141.867px 141.867px 141.867px 141.867px 141.867px 141.867px 141.867px 141.867px 141.867px 141.867px 141.867px 141.867px 141.867px 141.867px 141.867px 141.867px ">erunreinigt oder überdosiert.</tspan></text>
        <text x="287.697px" y="129.546px" style="font-family:'AvenirNextLTPro-Regular', 'Avenir Next LT Pro', sans-serif;font-size:21.571px;fill:white;">2</text>
    </g>
    <g transform="matrix(1,0,0,1,34,63.3048)">
        <g transform="matrix(37,0,0,37,335.2,32.6952)">
        </g>
        <text x="166.295px" y="32.695px" style="font-family:'AvenirNextLTPro-Demi', 'Avenir Next LT Pro', sans-serif;font-weight:600;font-size:37px;fill:rgb(238,239,243);">s<tspan x="182.353px 194.563px 214.173px 226.383px 235.929px 251.987px 264.197px 273.743px 292.798px 313.666px " y="32.695px 32.695px 32.695px 32.695px 32.695px 32.695px 32.695px 32.695px 32.695px 32.695px ">tatistiken</tspan></text>
    </g>
    <g transform="matrix(1,0,0,1,399.558,29.807)">
        <text x="392.842px" y="927.195px" style="font-family:'AvenirNextLTPro-Regular', 'Avenir Next LT Pro', sans-serif;font-size:5.247px;fill:rgb(166,166,166);">2</text>
        <text x="395.78px" y="930.192px" style="font-family:'AvenirNextLTPro-Regular', 'Avenir Next LT Pro', sans-serif;font-size:9px;fill:rgb(166,166,166);">V<tspan x="401.207px 406.715px 408.803px 410.693px 412.763px 417.659px 422.285px 424.76px 429.728px 432.788px 438.323px 442.949px 445.901px 448.574px 452.786px 454.856px 457.376px 464.009px 466.907px 472.226px 477.734px 482.702px 485.762px 487.832px 492.8px 494.87px 499.919px 502.394px 507.713px 510.773px 518.54px 523.076px 525.749px 527.819px 533.138px 538.187px 542.003px 545.801px 550.769px 555.818px 558.491px 561.551px 566.6px 574.367px 576.437px 581.351px 586.4px 589.46px 591.53px 595.85px 600.917px 603.437px 605.957px 607.865px 613.985px 619.034px 623.66px 625.748px 629.96px 633.776px 638.744px 643.793px 645.863px 650.912px 655.961px 661.514px 663.476px 671.72px 676.346px 679.406px 684.455px 689.504px 694.553px 700.061px 705.029px 710.078px 711.968px 714.038px 718.664px 724.217px " y="930.192px 930.192px 930.192px 930.192px 930.192px 930.192px 930.192px 930.192px 930.192px 930.192px 930.192px 930.192px 930.192px 930.192px 930.192px 930.192px 930.192px 930.192px 930.192px 930.192px 930.192px 930.192px 930.192px 930.192px 930.192px 930.192px 930.192px 930.192px 930.192px 930.192px 930.192px 930.192px 930.192px 930.192px 930.192px 930.192px 930.192px 930.192px 930.192px 930.192px 930.192px 930.192px 930.192px 930.192px 930.192px 930.192px 930.192px 930.192px 930.192px 930.192px 930.192px 930.192px 930.192px 930.192px 930.192px 930.192px 930.192px 930.192px 930.192px 930.192px 930.192px 930.192px 930.192px 930.192px 930.192px 930.192px 930.192px 930.192px 930.192px 930.192px 930.192px 930.192px 930.192px 930.192px 930.192px 930.192px 930.192px 930.192px 930.192px 930.192px ">gl. Saferparty (Drogerieinformationszentrum Zürich): Analysen und Warnungen, ab-</tspan></text>
        <text x="392.842px" y="942.192px" style="font-family:'AvenirNextLTPro-Regular', 'Avenir Next LT Pro', sans-serif;font-size:9px;fill:rgb(166,166,166);">r<tspan x="395.902px 400.951px 403.426px 408.979px 413.605px 416.665px 418.735px 423.784px 428.833px 431.506px 436.474px 439.534px 442.054px 444.124px 449.191px 451.756px 454.429px 459.964px 463.78px 466.3px 469.45px 472.6px 476.416px 481.042px 483.517px 488.485px 491.545px 497.08px 501.706px 504.658px 507.331px 511.219px 513.379px 517.699px 522.766px 525.916px 529.732px 534.781px 540.334px 544.15px 546.823px 551.449px 556.498px 560.296px 565.264px 570.313px 573.013px 579.547px 584.173px 587.233px 592.282px 597.331px 602.38px 607.888px 612.856px 617.905px 620.065px 625.132px 627.805px 635.572px 637.66px 639.73px 642.25px 646.876px 652.429px 657.937px 662.905px 665.965px 671.014px 673.489px 678.457px 683.506px 685.576px 690.202px " y="942.192px 942.192px 942.192px 942.192px 942.192px 942.192px 942.192px 942.192px 942.192px 942.192px 942.192px 942.192px 942.192px 942.192px 942.192px 942.192px 942.192px 942.192px 942.192px 942.192px 942.192px 942.192px 942.192px 942.192px 942.192px 942.192px 942.192px 942.192px 942.192px 942.192px 942.192px 942.192px 942.192px 942.192px 942.192px 942.192px 942.192px 942.192px 942.192px 942.192px 942.192px 942.192px 942.192px 942.192px 942.192px 942.192px 942.192px 942.192px 942.192px 942.192px 942.192px 942.192px 942.192px 942.192px 942.192px 942.192px 942.192px 942.192px 942.192px 942.192px 942.192px 942.192px 942.192px 942.192px 942.192px 942.192px 942.192px 942.192px 942.192px 942.192px 942.192px 942.192px 942.192px 942.192px ">ufbar unter: https://saferparty.ch/substanzen-warnungen.html (abgerufen am</tspan></text>
        <text x="392.842px" y="954.192px" style="font-family:'AvenirNextLTPro-Regular', 'Avenir Next LT Pro', sans-serif;font-size:9px;fill:rgb(166,166,166);">1<tspan x="397.882px 402.922px 405.082px 410.122px 415.162px 417.322px 422.362px 427.402px 432.442px 437.482px 440.002px " y="954.192px 954.192px 954.192px 954.192px 954.192px 954.192px 954.192px 954.192px 954.192px 954.192px 954.192px ">4.01.2025).</tspan></text>
        <text x="392.842px" y="977.195px" style="font-family:'AvenirNextLTPro-Regular', 'Avenir Next LT Pro', sans-serif;font-size:5.247px;fill:rgb(166,166,166);">4</text>
        <text x="395.78px" y="980.192px" style="font-family:'AvenirNextLTPro-Regular', 'Avenir Next LT Pro', sans-serif;font-size:9px;fill:rgb(166,166,166);">V<tspan x="401.207px 406.715px 408.803px 410.693px 412.763px 417.974px 423.518px 429.062px 434.102px 439.142px 441.662px 443.732px 449.276px 454.244px 457.304px 459.392px 461.462px 466.511px 468.581px 472.397px 475.07px 479.696px 482.648px 485.321px 490.289px 492.962px 495.032px 500px 503.06px 506.876px 509.549px 514.517px 518.333px 520.403px 524.651px 529.97px 533.786px 536.459px 541.427px 546.476px 548.564px 553.883px 557.699px 562.667px 566.483px 568.553px 575.186px 578.246px 583.295px 588.803px 590.873px 597.173px 602.24px 607.208px 611.528px 615.938px 618.008px 623.057px 628.565px 630.635px 633.155px 638.195px 643.235px 645.395px 650.435px 655.475px 657.635px 662.675px 667.715px 672.755px 677.795px 680.315px 682.205px 684.275px 688.901px 694.454px 697.514px 702.563px 705.038px 710.591px 715.217px " y="980.192px 980.192px 980.192px 980.192px 980.192px 980.192px 980.192px 980.192px 980.192px 980.192px 980.192px 980.192px 980.192px 980.192px 980.192px 980.192px 980.192px 980.192px 980.192px 980.192px 980.192px 980.192px 980.192px 980.192px 980.192px 980.192px 980.192px 980.192px 980.192px 980.192px 980.192px 980.192px 980.192px 980.192px 980.192px 980.192px 980.192px 980.192px 980.192px 980.192px 980.192px 980.192px 980.192px 980.192px 980.192px 980.192px 980.192px 980.192px 980.192px 980.192px 980.192px 980.192px 980.192px 980.192px 980.192px 980.192px 980.192px 980.192px 980.192px 980.192px 980.192px 980.192px 980.192px 980.192px 980.192px 980.192px 980.192px 980.192px 980.192px 980.192px 980.192px 980.192px 980.192px 980.192px 980.192px 980.192px 980.192px 980.192px 980.192px 980.192px 980.192px ">gl. RBB24: Berlin startet erstes kostenloses Drug Checking (07.08.2023), abrufbar</tspan></text>
        <text x="392.842px" y="994.192px" style="font-family:'AvenirNextLTPro-Regular', 'Avenir Next LT Pro', sans-serif;font-size:9px;fill:rgb(166,166,166);">u<tspan x="397.891px 402.94px 405.613px 410.581px 413.641px 416.161px 418.231px 423.298px 425.863px 428.536px 434.071px 437.887px 440.407px 443.557px 446.707px 453.241px 459.775px 465.985px 468.145px 471.205px 476.758px 482.311px 487.351px 492.391px 494.551px 500.104px 505.072px 508.222px 513.757px 518.383px 523.432px 528.751px 531.703px 536.329px 544.096px 548.722px 551.872px 557.425px 562.393px 564.463px 567.136px 570.088px 574.714px 580.222px 583.372px 588.412px 593.452px 598.492px 603.532px 606.682px 611.722px 616.762px 619.912px 625.465px 630.433px 633.493px 635.581px 637.651px 642.7px 645.4px 649.216px 651.889px 656.515px 659.467px 662.14px 667.108px 669.781px 672.481px 677.449px 680.509px 684.325px 686.998px 691.966px 695.782px 698.482px 702.73px 708.049px 711.865px 714.538px 719.506px 724.555px " y="994.192px 994.192px 994.192px 994.192px 994.192px 994.192px 994.192px 994.192px 994.192px 994.192px 994.192px 994.192px 994.192px 994.192px 994.192px 994.192px 994.192px 994.192px 994.192px 994.192px 994.192px 994.192px 994.192px 994.192px 994.192px 994.192px 994.192px 994.192px 994.192px 994.192px 994.192px 994.192px 994.192px 994.192px 994.192px 994.192px 994.192px 994.192px 994.192px 994.192px 994.192px 994.192px 994.192px 994.192px 994.192px 994.192px 994.192px 994.192px 994.192px 994.192px 994.192px 994.192px 994.192px 994.192px 994.192px 994.192px 994.192px 994.192px 994.192px 994.192px 994.192px 994.192px 994.192px 994.192px 994.192px 994.192px 994.192px 994.192px 994.192px 994.192px 994.192px 994.192px 994.192px 994.192px 994.192px 994.192px 994.192px 994.192px 994.192px 994.192px 994.192px ">nter: https://www.rbb24.de/panorama/beitrag/2023/08/berlin-startet-erstes-kosten-</tspan></text>
        <g transform="matrix(9,0,0,9,604.765,1008.19)">
        </g>
        <text x="392.842px" y="1008.19px" style="font-family:'AvenirNextLTPro-Regular', 'Avenir Next LT Pro', sans-serif;font-size:9px;fill:rgb(166,166,166);">l<tspan x="394.93px 400.249px 404.065px 409.033px 412.849px 415.549px 421.102px 424.162px 429.211px 434.719px 437.419px 441.739px 446.806px 451.774px 456.094px 460.504px 462.574px 467.623px 473.131px 475.291px 480.358px 483.031px 490.798px 492.886px 494.956px 497.476px 502.102px 507.655px 513.163px 518.131px 521.191px 526.24px 528.715px 533.683px 538.732px 540.802px 545.428px 553.195px 555.265px 560.305px 565.345px 567.505px 572.545px 577.585px 579.745px 584.785px 589.825px 594.865px 599.905px 602.425px " y="1008.19px 1008.19px 1008.19px 1008.19px 1008.19px 1008.19px 1008.19px 1008.19px 1008.19px 1008.19px 1008.19px 1008.19px 1008.19px 1008.19px 1008.19px 1008.19px 1008.19px 1008.19px 1008.19px 1008.19px 1008.19px 1008.19px 1008.19px 1008.19px 1008.19px 1008.19px 1008.19px 1008.19px 1008.19px 1008.19px 1008.19px 1008.19px 1008.19px 1008.19px 1008.19px 1008.19px 1008.19px 1008.19px 1008.19px 1008.19px 1008.19px 1008.19px 1008.19px 1008.19px 1008.19px 1008.19px 1008.19px 1008.19px 1008.19px 1008.19px ">oses-drug-checking.html (abgerufen am 14.01.2025).</tspan></text>
    </g>
    <g transform="matrix(1,0,0,1,-428.943,-42.5153)">
        <text x="842.143px" y="999.518px" style="font-family:'AvenirNextLTPro-Regular', 'Avenir Next LT Pro', sans-serif;font-size:5.247px;fill:rgb(166,166,166);">1<tspan x="845.081px 846.288px 849.877px 851.084px " y="999.518px 999.518px 999.518px 999.518px "> &amp; 3</tspan></text>
        <text x="854.022px" y="1002.51px" style="font-family:'AvenirNextLTPro-Regular', 'Avenir Next LT Pro', sans-serif;font-size:9px;fill:rgb(166,166,166);">V<tspan x="859.449px 864.957px 867.045px 868.935px 871.005px 876.549px 881.598px 886.647px 892.2px 897.168px 900.984px 905.394px 908.454px 910.524px 918.291px 920.361px 925.41px 930.036px 932.124px 936.75px 944.517px 947.19px 949.26px 951.78px 957.324px 962.688px 968.808px 971.328px 973.848px 975.918px 981.462px 986.43px 989.49px 991.56px 995.88px 1000.95px 1003.62px 1005.69px 1009.49px 1014.54px 1017.6px 1019.67px 1024.77px 1029.4px 1034.44px 1038.26px 1042.58px 1047.65px 1053.16px 1055.23px 1057.59px 1060.27px 1062.35px 1066.98px 1072.49px 1077.46px 1079.35px 1081.42px 1086.04px 1091.6px 1094.65px 1099.7px 1102.18px 1107.73px 1112.36px 1115.42px 1117.49px 1122.54px 1127.59px 1130.26px 1135.23px 1138.29px " y="1002.51px 1002.51px 1002.51px 1002.51px 1002.51px 1002.51px 1002.51px 1002.51px 1002.51px 1002.51px 1002.51px 1002.51px 1002.51px 1002.51px 1002.51px 1002.51px 1002.51px 1002.51px 1002.51px 1002.51px 1002.51px 1002.51px 1002.51px 1002.51px 1002.51px 1002.51px 1002.51px 1002.51px 1002.51px 1002.51px 1002.51px 1002.51px 1002.51px 1002.51px 1002.51px 1002.51px 1002.51px 1002.51px 1002.51px 1002.51px 1002.51px 1002.51px 1002.51px 1002.51px 1002.51px 1002.51px 1002.51px 1002.51px 1002.51px 1002.51px 1002.51px 1002.51px 1002.51px 1002.51px 1002.51px 1002.51px 1002.51px 1002.51px 1002.51px 1002.51px 1002.51px 1002.51px 1002.51px 1002.51px 1002.51px 1002.51px 1002.51px 1002.51px 1002.51px 1002.51px 1002.51px 1002.51px ">gl. Bundeskriminalamt (BKA): Bericht zur Rauschgiftlage, abrufbar unter:</tspan></text>
        <text x="842.143px" y="1016.51px" style="font-family:'AvenirNextLTPro-Regular', 'Avenir Next LT Pro', sans-serif;font-size:9px;fill:rgb(166,166,166);">h<tspan x="847.21px 849.775px 852.448px 857.983px 861.799px 864.319px 867.469px 870.619px 877.153px 883.687px 889.897px 892.057px 897.61px 901.966px 906.592px 908.752px 914.305px 919.273px 922.423px 929.056px 934.204px 937.354px 943.474px 947.884px 950.557px 955.606px 960.574px 962.662px 964.75px 969.718px 971.878px 976.927px 979.402px 984.721px 987.781px 995.548px 1000.08px 1002.76px 1004.83px 1010.15px 1015.2px 1020.16px 1025.21px 1028.36px 1033.2px 1035.88px 1040.41px 1043.09px 1045.16px 1048.97px 1051.64px 1053.71px 1057.96px 1062.93px 1067.98px 1072.39px 1077.02px 1082.52px 1087.49px 1093.05px 1095.12px 1097.2px 1102.76px 1107.72px 1110.78px 1113.93px 1119.04px 1123.66px 1128.71px 1132.53px 1136.85px 1141.91px 1147.42px 1149.49px 1151.86px 1154.53px 1158.94px 1162px 1164.07px 1171.84px 1173.91px " y="1016.51px 1016.51px 1016.51px 1016.51px 1016.51px 1016.51px 1016.51px 1016.51px 1016.51px 1016.51px 1016.51px 1016.51px 1016.51px 1016.51px 1016.51px 1016.51px 1016.51px 1016.51px 1016.51px 1016.51px 1016.51px 1016.51px 1016.51px 1016.51px 1016.51px 1016.51px 1016.51px 1016.51px 1016.51px 1016.51px 1016.51px 1016.51px 1016.51px 1016.51px 1016.51px 1016.51px 1016.51px 1016.51px 1016.51px 1016.51px 1016.51px 1016.51px 1016.51px 1016.51px 1016.51px 1016.51px 1016.51px 1016.51px 1016.51px 1016.51px 1016.51px 1016.51px 1016.51px 1016.51px 1016.51px 1016.51px 1016.51px 1016.51px 1016.51px 1016.51px 1016.51px 1016.51px 1016.51px 1016.51px 1016.51px 1016.51px 1016.51px 1016.51px 1016.51px 1016.51px 1016.51px 1016.51px 1016.51px 1016.51px 1016.51px 1016.51px 1016.51px 1016.51px 1016.51px 1016.51px 1016.51px ">ttps://www.bka.de/DE/AktuelleInformationen/StatistikenLagebilder/Rauschgiftkrimi-</tspan></text>
        <text x="842.143px" y="1030.52px" style="font-family:'AvenirNextLTPro-Regular', 'Avenir Next LT Pro', sans-serif;font-size:9px;fill:rgb(166,166,166);">n<tspan x="847.192px 851.818px 853.906px 855.976px 858.649px 863.275px 868.243px 870.916px 874.066px 877.018px 881.644px 886.693px 890.509px 894.829px 899.896px 905.404px 907.474px 909.841px 912.514px 916.924px 919.984px 922.054px 929.821px 931.891px 936.94px 941.566px 943.654px 945.724px 948.397px 953.023px 957.991px 960.664px 964.984px 970.033px 975.352px 980.905px 985.873px 988.033px 993.1px 995.773px 1003.54px " y="1030.52px 1030.52px 1030.52px 1030.52px 1030.52px 1030.52px 1030.52px 1030.52px 1030.52px 1030.52px 1030.52px 1030.52px 1030.52px 1030.52px 1030.52px 1030.52px 1030.52px 1030.52px 1030.52px 1030.52px 1030.52px 1030.52px 1030.52px 1030.52px 1030.52px 1030.52px 1030.52px 1030.52px 1030.52px 1030.52px 1030.52px 1030.52px 1030.52px 1030.52px 1030.52px 1030.52px 1030.52px 1030.52px 1030.52px 1030.52px 1030.52px ">alitaet/rauschgiftkriminalitaet_node.html</tspan></text>
        <text x="842.143px" y="1058.52px" style="font-family:'AvenirNextLTPro-Regular', 'Avenir Next LT Pro', sans-serif;font-size:9px;fill:rgb(166,166,166);">D<tspan x="848.776px 851.674px 856.993px 862.501px 867.469px 872.518px 875.218px 877.288px 882.337px 887.386px 892.939px 895.009px 899.905px 904.954px 909.274px 914.341px 917.014px 922.567px 927.535px 930.595px 932.665px 936.985px 942.052px 944.725px 946.795px 952.348px 957.316px 960.376px 962.446px 967.99px 973.039px 978.088px 983.641px 988.609px 992.425px 995.323px 1000.29px 1005.8px 1007.87px 1012.84px 1015.9px 1020.95px 1026px 1031.5px 1033.57px 1036.09px 1040.72px 1045.13px 1047.8px 1052.85px 1057.82px 1059.91px 1062px 1066.96px 1070.78px 1072.74px 1076.93px 1081.56px 1086.63px 1089.69px 1092.21px 1094.1px 1096.17px 1100.79px 1106.35px 1109.41px 1114.46px 1116.93px 1122.48px 1127.11px 1130.17px 1132.24px 1137.29px 1142.34px 1145.01px 1149.98px 1153.04px 1155.56px 1157.63px 1162.7px 1165.26px 1167.93px " y="1058.52px 1058.52px 1058.52px 1058.52px 1058.52px 1058.52px 1058.52px 1058.52px 1058.52px 1058.52px 1058.52px 1058.52px 1058.52px 1058.52px 1058.52px 1058.52px 1058.52px 1058.52px 1058.52px 1058.52px 1058.52px 1058.52px 1058.52px 1058.52px 1058.52px 1058.52px 1058.52px 1058.52px 1058.52px 1058.52px 1058.52px 1058.52px 1058.52px 1058.52px 1058.52px 1058.52px 1058.52px 1058.52px 1058.52px 1058.52px 1058.52px 1058.52px 1058.52px 1058.52px 1058.52px 1058.52px 1058.52px 1058.52px 1058.52px 1058.52px 1058.52px 1058.52px 1058.52px 1058.52px 1058.52px 1058.52px 1058.52px 1058.52px 1058.52px 1058.52px 1058.52px 1058.52px 1058.52px 1058.52px 1058.52px 1058.52px 1058.52px 1058.52px 1058.52px 1058.52px 1058.52px 1058.52px 1058.52px 1058.52px 1058.52px 1058.52px 1058.52px 1058.52px 1058.52px 1058.52px 1058.52px 1058.52px ">rogen- und Suchtbericht der Bundesregierung (aktuelles Jahr), abrufbar unter: htt-</tspan></text>
        <text x="842.143px" y="1072.52px" style="font-family:'AvenirNextLTPro-Regular', 'Avenir Next LT Pro', sans-serif;font-size:9px;fill:rgb(166,166,166);">p<tspan x="847.678px 851.494px 854.014px 857.164px 860.314px 866.848px 873.382px 879.592px 881.752px 887.305px 890.203px 895.522px 901.03px 905.998px 911.047px 916.6px 921.514px 926.14px 931.189px 933.556px 936.229px 939.181px 943.807px 949.315px 951.988px 956.956px 959.116px 964.669px 969.637px 972.787px 978.322px 983.371px 988.924px 991.012px 993.082px 997.438px 1001.97px 1004.65px 1006.72px 1012.04px 1017.09px 1022.05px 1027.1px 1030.25px 1035.81px 1038.7px 1044.02px 1049.53px 1054.5px 1059.55px 1062.25px 1067.3px 1072.35px 1077.9px 1080.6px 1084.41px 1089.46px 1093.78px 1098.85px 1101.52px 1107.08px 1112.04px 1115.1px 1117.17px 1121.49px 1126.56px 1129.23px 1131.39px 1136.46px 1139.13px 1146.9px " y="1072.52px 1072.52px 1072.52px 1072.52px 1072.52px 1072.52px 1072.52px 1072.52px 1072.52px 1072.52px 1072.52px 1072.52px 1072.52px 1072.52px 1072.52px 1072.52px 1072.52px 1072.52px 1072.52px 1072.52px 1072.52px 1072.52px 1072.52px 1072.52px 1072.52px 1072.52px 1072.52px 1072.52px 1072.52px 1072.52px 1072.52px 1072.52px 1072.52px 1072.52px 1072.52px 1072.52px 1072.52px 1072.52px 1072.52px 1072.52px 1072.52px 1072.52px 1072.52px 1072.52px 1072.52px 1072.52px 1072.52px 1072.52px 1072.52px 1072.52px 1072.52px 1072.52px 1072.52px 1072.52px 1072.52px 1072.52px 1072.52px 1072.52px 1072.52px 1072.52px 1072.52px 1072.52px 1072.52px 1072.52px 1072.52px 1072.52px 1072.52px 1072.52px 1072.52px 1072.52px 1072.52px ">s://www.drogenbeauftragte.de/publikationen/drogen-und-suchtbericht.html</tspan></text>
        <g transform="matrix(9,0,0,9,1008.2,1086.51)">
        </g>
        <text x="842.143px" y="1086.52px" style="font-family:'AvenirNextLTPro-Regular', 'Avenir Next LT Pro', sans-serif;font-size:9px;fill:rgb(166,166,166);">(<tspan x="845.203px 847.282px 852.25px 858.784px 863.752px 865.822px 867.91px 871.726px 873.796px 877.594px 882.643px 884.731px 889.699px 892.372px 896.17px 898.843px 900.913px 905.539px 911.092px 916.6px 921.568px 924.628px 929.677px 932.152px 937.12px 942.169px 944.239px 948.865px 956.632px 958.702px 963.742px 968.782px 970.942px 975.982px 981.022px 983.182px 988.222px 993.262px 998.302px 1003.34px 1005.86px " y="1086.52px 1086.52px 1086.52px 1086.52px 1086.52px 1086.52px 1086.52px 1086.52px 1086.52px 1086.52px 1086.52px 1086.52px 1086.52px 1086.52px 1086.52px 1086.52px 1086.52px 1086.52px 1086.52px 1086.52px 1086.52px 1086.52px 1086.52px 1086.52px 1086.52px 1086.52px 1086.52px 1086.52px 1086.52px 1086.52px 1086.52px 1086.52px 1086.52px 1086.52px 1086.52px 1086.52px 1086.52px 1086.52px 1086.52px 1086.52px 1086.52px ">jeweils zuletzt abgerufen am 14.01.2025).</tspan></text>
    </g>
</svg>
