<svg width="1440" height="2526" viewBox="0 0 1440 2526" fill="none" xmlns="http://www.w3.org/2000/svg">
<rect x="0.5" y="0.5" width="1439" height="2525" fill="white"/>
<rect x="0.5" y="0.5" width="1439" height="2525" stroke="#0000FF"/>
<rect x="229" y="714" width="875" height="502" fill="#D9D9D9"/>
<path d="M231.79 643V622.06H240.13C242.01 622.06 243.45 622.6 244.45 623.68C245.47 624.74 245.98 626.2 245.98 628.06C245.98 629.92 245.47 631.39 244.45 632.47C243.45 633.53 242.01 634.06 240.13 634.06H234.31V643H231.79ZM234.31 631.84H240.13C241.13 631.84 241.9 631.58 242.44 631.06C243 630.54 243.28 629.8 243.28 628.84V627.28C243.28 626.32 243 625.58 242.44 625.06C241.9 624.54 241.13 624.28 240.13 624.28H234.31V631.84ZM252.503 643H249.983V622.06H258.323C260.163 622.06 261.593 622.57 262.613 623.59C263.653 624.61 264.173 626.08 264.173 628C264.173 629.54 263.813 630.81 263.093 631.81C262.393 632.79 261.353 633.44 259.973 633.76L264.773 643H261.923L257.393 634H252.503V643ZM258.323 631.84C259.323 631.84 260.093 631.58 260.633 631.06C261.193 630.54 261.473 629.8 261.473 628.84V627.28C261.473 626.32 261.193 625.58 260.633 625.06C260.093 624.54 259.323 624.28 258.323 624.28H252.503V631.84H258.323ZM276.71 643.36C275.35 643.36 274.12 643.13 273.02 642.67C271.94 642.19 271.01 641.5 270.23 640.6C269.47 639.68 268.88 638.55 268.46 637.21C268.04 635.85 267.83 634.29 267.83 632.53C267.83 630.77 268.04 629.22 268.46 627.88C268.88 626.54 269.47 625.41 270.23 624.49C271.01 623.57 271.94 622.88 273.02 622.42C274.12 621.94 275.35 621.7 276.71 621.7C278.05 621.7 279.27 621.94 280.37 622.42C281.47 622.88 282.4 623.57 283.16 624.49C283.94 625.41 284.54 626.54 284.96 627.88C285.38 629.22 285.59 630.77 285.59 632.53C285.59 634.29 285.38 635.85 284.96 637.21C284.54 638.55 283.94 639.68 283.16 640.6C282.4 641.5 281.47 642.19 280.37 642.67C279.27 643.13 278.05 643.36 276.71 643.36ZM276.71 641.11C277.61 641.11 278.44 640.95 279.2 640.63C279.96 640.31 280.61 639.85 281.15 639.25C281.71 638.65 282.14 637.93 282.44 637.09C282.74 636.25 282.89 635.31 282.89 634.27V630.79C282.89 629.75 282.74 628.81 282.44 627.97C282.14 627.13 281.71 626.41 281.15 625.81C280.61 625.21 279.96 624.75 279.2 624.43C278.44 624.11 277.61 623.95 276.71 623.95C275.81 623.95 274.98 624.11 274.22 624.43C273.46 624.75 272.8 625.21 272.24 625.81C271.7 626.41 271.28 627.13 270.98 627.97C270.68 628.81 270.53 629.75 270.53 630.79V634.27C270.53 635.31 270.68 636.25 270.98 637.09C271.28 637.93 271.7 638.65 272.24 639.25C272.8 639.85 273.46 640.31 274.22 640.63C274.98 640.95 275.81 641.11 276.71 641.11ZM299.58 622.06V637.57C299.58 638.45 299.43 639.25 299.13 639.97C298.85 640.69 298.44 641.3 297.9 641.8C297.38 642.3 296.75 642.69 296.01 642.97C295.27 643.23 294.46 643.36 293.58 643.36C291.96 643.36 290.65 642.93 289.65 642.07C288.67 641.19 288.04 640.03 287.76 638.59L290.04 638.05C290.24 638.95 290.62 639.69 291.18 640.27C291.74 640.83 292.56 641.11 293.64 641.11C294.72 641.11 295.56 640.78 296.16 640.12C296.76 639.46 297.06 638.46 297.06 637.12V624.28H289.86V622.06H299.58ZM305.003 643V622.06H317.783V624.28H307.523V631.3H317.183V633.52H307.523V640.78H317.783V643H305.003ZM327.983 632.71L325.013 636.01V643H322.493V622.06H325.013V633.19H325.103L328.103 629.56L334.433 622.06H337.523L329.723 631.03L338.063 643H334.943L327.983 632.71ZM347.971 624.28V643H345.451V624.28H338.791V622.06H354.631V624.28H347.971ZM380.059 643H377.029L371.539 634.21H371.479L365.989 643H363.109L369.949 632.35L363.289 622.06H366.319L371.569 630.4H371.629L376.999 622.06H379.879L373.159 632.26L380.059 643ZM398.457 643H395.427L389.937 634.21H389.877L384.387 643H381.507L388.347 632.35L381.687 622.06H384.717L389.967 630.4H390.027L395.397 622.06H398.277L391.557 632.26L398.457 643Z" fill="black"/>
<path d="M230.674 668.436H234.886C235.666 668.436 236.374 668.568 237.01 668.832C237.646 669.096 238.186 669.492 238.63 670.02C239.086 670.536 239.434 671.19 239.674 671.982C239.914 672.762 240.034 673.674 240.034 674.718C240.034 675.762 239.914 676.68 239.674 677.472C239.434 678.252 239.086 678.906 238.63 679.434C238.186 679.95 237.646 680.34 237.01 680.604C236.374 680.868 235.666 681 234.886 681H230.674V668.436ZM234.886 679.668C235.402 679.668 235.876 679.584 236.308 679.416C236.74 679.236 237.112 678.978 237.424 678.642C237.736 678.306 237.976 677.898 238.144 677.418C238.324 676.926 238.414 676.368 238.414 675.744V673.692C238.414 673.068 238.324 672.516 238.144 672.036C237.976 671.544 237.736 671.13 237.424 670.794C237.112 670.458 236.74 670.206 236.308 670.038C235.876 669.858 235.402 669.768 234.886 669.768H232.186V679.668H234.886ZM250.405 681L249.145 677.292H244.069L242.809 681H241.279L245.671 668.436H247.597L251.989 681H250.405ZM246.643 669.84H246.553L244.429 675.96H248.767L246.643 669.84ZM257.123 669.768V681H255.611V669.768H251.615V668.436H261.119V669.768H257.123ZM263.194 681V668.436H270.862V669.768H264.706V673.98H270.502V675.312H264.706V679.668H270.862V681H263.194Z" fill="black"/>
<path d="M345.904 669.768V681H344.392V669.768H340.396V668.436H349.9V669.768H345.904ZM354.943 681V676.032L350.623 668.436H352.351L355.699 674.484H355.753L359.101 668.436H360.829L356.455 675.978V681H354.943ZM362.733 681V668.436H367.737C368.865 668.436 369.729 668.76 370.329 669.408C370.941 670.044 371.247 670.92 371.247 672.036C371.247 673.152 370.941 674.034 370.329 674.682C369.729 675.318 368.865 675.636 367.737 675.636H364.245V681H362.733ZM364.245 674.304H367.737C368.337 674.304 368.799 674.148 369.123 673.836C369.459 673.524 369.627 673.08 369.627 672.504V671.568C369.627 670.992 369.459 670.548 369.123 670.236C368.799 669.924 368.337 669.768 367.737 669.768H364.245V674.304ZM373.649 681V668.436H381.317V669.768H375.161V673.98H380.957V675.312H375.161V679.668H381.317V681H373.649Z" fill="black"/>
<path d="M451.08 681V679.74H452.844V669.696H451.08V668.436H456.12V669.696H454.356V679.74H456.12V681H451.08ZM461.923 673.332L460.411 670.542H460.357V681H458.881V668.436H460.627L465.217 676.104L466.729 678.894H466.783V668.436H468.259V681H466.513L461.923 673.332ZM475.838 669.768V681H474.326V669.768H470.33V668.436H479.834V669.768H475.838ZM481.191 681V679.74H482.955V669.696H481.191V668.436H486.231V669.696H484.467V679.74H486.231V681H481.191ZM493.099 669.768V681H491.587V669.768H487.591V668.436H497.095V669.768H493.099ZM500.592 668.436V676.212C500.592 677.412 500.814 678.324 501.258 678.948C501.702 679.56 502.482 679.866 503.598 679.866C504.714 679.866 505.494 679.56 505.938 678.948C506.382 678.324 506.604 677.412 506.604 676.212V668.436H508.116V675.852C508.116 676.764 508.032 677.556 507.864 678.228C507.708 678.9 507.45 679.458 507.09 679.902C506.73 680.346 506.256 680.676 505.668 680.892C505.092 681.108 504.384 681.216 503.544 681.216C502.704 681.216 501.996 681.108 501.42 680.892C500.856 680.676 500.4 680.346 500.052 679.902C499.704 679.458 499.452 678.9 499.296 678.228C499.152 677.556 499.08 676.764 499.08 675.852V668.436H500.592ZM515.599 669.768V681H514.087V669.768H510.091V668.436H519.595V669.768H515.599ZM520.953 681V679.74H522.717V669.696H520.953V668.436H525.993V669.696H524.229V679.74H525.993V681H520.953ZM533.452 681.216C532.636 681.216 531.898 681.078 531.238 680.802C530.59 680.514 530.032 680.1 529.564 679.56C529.108 679.008 528.754 678.33 528.502 677.526C528.25 676.71 528.124 675.774 528.124 674.718C528.124 673.662 528.25 672.732 528.502 671.928C528.754 671.124 529.108 670.446 529.564 669.894C530.032 669.342 530.59 668.928 531.238 668.652C531.898 668.364 532.636 668.22 533.452 668.22C534.256 668.22 534.988 668.364 535.648 668.652C536.308 668.928 536.866 669.342 537.322 669.894C537.79 670.446 538.15 671.124 538.402 671.928C538.654 672.732 538.78 673.662 538.78 674.718C538.78 675.774 538.654 676.71 538.402 677.526C538.15 678.33 537.79 679.008 537.322 679.56C536.866 680.1 536.308 680.514 535.648 680.802C534.988 681.078 534.256 681.216 533.452 681.216ZM533.452 679.866C533.992 679.866 534.49 679.77 534.946 679.578C535.402 679.386 535.792 679.11 536.116 678.75C536.452 678.39 536.71 677.958 536.89 677.454C537.07 676.95 537.16 676.386 537.16 675.762V673.674C537.16 673.05 537.07 672.486 536.89 671.982C536.71 671.478 536.452 671.046 536.116 670.686C535.792 670.326 535.402 670.05 534.946 669.858C534.49 669.666 533.992 669.57 533.452 669.57C532.912 669.57 532.414 669.666 531.958 669.858C531.502 670.05 531.106 670.326 530.77 670.686C530.446 671.046 530.194 671.478 530.014 671.982C529.834 672.486 529.744 673.05 529.744 673.674V675.762C529.744 676.386 529.834 676.95 530.014 677.454C530.194 677.958 530.446 678.39 530.77 678.75C531.106 679.11 531.502 679.386 531.958 679.578C532.414 679.77 532.912 679.866 533.452 679.866ZM544.54 673.332L543.028 670.542H542.974V681H541.498V668.436H543.244L547.834 676.104L549.346 678.894H549.4V668.436H550.876V681H549.13L544.54 673.332Z" fill="black"/>
<path d="M112.667 937C112.667 944.364 118.636 950.333 126 950.333C133.364 950.333 139.333 944.364 139.333 937C139.333 929.636 133.364 923.667 126 923.667C118.636 923.667 112.667 929.636 112.667 937ZM112.667 1381C112.667 1388.36 118.636 1394.33 126 1394.33C133.364 1394.33 139.333 1388.36 139.333 1381C139.333 1373.64 133.364 1367.67 126 1367.67C118.636 1367.67 112.667 1373.64 112.667 1381ZM126 937L123.5 937L123.5 1381L126 1381L128.5 1381L128.5 937L126 937Z" fill="#0000FF"/>
<path d="M112.667 1532C112.667 1539.36 118.636 1545.33 126 1545.33C133.364 1545.33 139.333 1539.36 139.333 1532C139.333 1524.64 133.364 1518.67 126 1518.67C118.636 1518.67 112.667 1524.64 112.667 1532ZM112.667 1683C112.667 1690.36 118.636 1696.33 126 1696.33C133.364 1696.33 139.333 1690.36 139.333 1683C139.333 1675.64 133.364 1669.67 126 1669.67C118.636 1669.67 112.667 1675.64 112.667 1683ZM126 1532L123.5 1532L123.5 1683L126 1683L128.5 1683L128.5 1532L126 1532Z" fill="#0000FF"/>
<path d="M112.667 1381C112.667 1388.36 118.636 1394.33 126 1394.33C133.364 1394.33 139.333 1388.36 139.333 1381C139.333 1373.64 133.364 1367.67 126 1367.67C118.636 1367.67 112.667 1373.64 112.667 1381ZM112.667 1532C112.667 1539.36 118.636 1545.33 126 1545.33C133.364 1545.33 139.333 1539.36 139.333 1532C139.333 1524.64 133.364 1518.67 126 1518.67C118.636 1518.67 112.667 1524.64 112.667 1532ZM126 1381L123.5 1381L123.5 1532L126 1532L128.5 1532L128.5 1381L126 1381Z" fill="#0000FF"/>
<path d="M112.667 1683C112.667 1690.36 118.636 1696.33 126 1696.33C133.364 1696.33 139.333 1690.36 139.333 1683C139.333 1675.64 133.364 1669.67 126 1669.67C118.636 1669.67 112.667 1675.64 112.667 1683ZM112.667 1834C112.667 1841.36 118.636 1847.33 126 1847.33C133.364 1847.33 139.333 1841.36 139.333 1834C139.333 1826.64 133.364 1820.67 126 1820.67C118.636 1820.67 112.667 1826.64 112.667 1834ZM126 1683L123.5 1683L123.5 1834L126 1834L128.5 1834L128.5 1683L126 1683Z" fill="#0000FF"/>
<path d="M112.667 1834C112.667 1841.36 118.636 1847.33 126 1847.33C133.364 1847.33 139.333 1841.36 139.333 1834C139.333 1826.64 133.364 1820.67 126 1820.67C118.636 1820.67 112.667 1826.64 112.667 1834ZM112.667 1985C112.667 1992.36 118.636 1998.33 126 1998.33C133.364 1998.33 139.333 1992.36 139.333 1985C139.333 1977.64 133.364 1971.67 126 1971.67C118.636 1971.67 112.667 1977.64 112.667 1985ZM126 1834L123.5 1834L123.5 1985L126 1985L128.5 1985L128.5 1834L126 1834Z" fill="#0000FF"/>
<circle cx="126" cy="937" r="20" stroke="#0000FF" stroke-width="6"/>
<path d="M982.22 68.34H986.06V70.92H986.18C986.46 70.02 986.99 69.31 987.77 68.79C988.55 68.25 989.46 67.98 990.5 67.98C992.5 67.98 994.02 68.69 995.06 70.11C996.12 71.51 996.65 73.52 996.65 76.14C996.65 78.78 996.12 80.81 995.06 82.23C994.02 83.65 992.5 84.36 990.5 84.36C989.46 84.36 988.55 84.09 987.77 83.55C987.01 83.01 986.48 82.29 986.18 81.39H986.06V90H982.22V68.34ZM989.27 81.18C990.27 81.18 991.08 80.85 991.7 80.19C992.32 79.53 992.63 78.64 992.63 77.52V74.82C992.63 73.7 992.32 72.81 991.7 72.15C991.08 71.47 990.27 71.13 989.27 71.13C988.35 71.13 987.58 71.36 986.96 71.82C986.36 72.28 986.06 72.89 986.06 73.65V78.63C986.06 79.45 986.36 80.08 986.96 80.52C987.58 80.96 988.35 81.18 989.27 81.18ZM1000.21 84V68.34H1004.05V71.58H1004.2C1004.3 71.16 1004.45 70.76 1004.65 70.38C1004.87 69.98 1005.15 69.63 1005.49 69.33C1005.83 69.03 1006.23 68.79 1006.69 68.61C1007.17 68.43 1007.72 68.34 1008.34 68.34H1009.18V71.97H1007.98C1006.68 71.97 1005.7 72.16 1005.04 72.54C1004.38 72.92 1004.05 73.54 1004.05 74.4V84H1000.21ZM1018.05 84.36C1016.93 84.36 1015.92 84.17 1015.02 83.79C1014.14 83.41 1013.38 82.86 1012.74 82.14C1012.12 81.42 1011.64 80.56 1011.3 79.56C1010.96 78.54 1010.79 77.4 1010.79 76.14C1010.79 74.88 1010.96 73.75 1011.3 72.75C1011.64 71.75 1012.12 70.9 1012.74 70.2C1013.38 69.48 1014.14 68.93 1015.02 68.55C1015.92 68.17 1016.93 67.98 1018.05 67.98C1019.17 67.98 1020.18 68.17 1021.08 68.55C1021.98 68.93 1022.74 69.48 1023.36 70.2C1024 70.9 1024.49 71.75 1024.83 72.75C1025.17 73.75 1025.34 74.88 1025.34 76.14C1025.34 77.4 1025.17 78.54 1024.83 79.56C1024.49 80.56 1024 81.42 1023.36 82.14C1022.74 82.86 1021.98 83.41 1021.08 83.79C1020.18 84.17 1019.17 84.36 1018.05 84.36ZM1018.05 81.27C1019.07 81.27 1019.87 80.96 1020.45 80.34C1021.03 79.72 1021.32 78.81 1021.32 77.61V74.7C1021.32 73.52 1021.03 72.62 1020.45 72C1019.87 71.38 1019.07 71.07 1018.05 71.07C1017.05 71.07 1016.26 71.38 1015.68 72C1015.1 72.62 1014.81 73.52 1014.81 74.7V77.61C1014.81 78.81 1015.1 79.72 1015.68 80.34C1016.26 80.96 1017.05 81.27 1018.05 81.27ZM1028.74 68.34H1032.58V85.89C1032.58 87.21 1032.25 88.22 1031.59 88.92C1030.93 89.64 1029.88 90 1028.44 90H1026.34V86.94H1028.74V68.34ZM1030.66 66.06C1029.86 66.06 1029.28 65.88 1028.92 65.52C1028.58 65.16 1028.41 64.7 1028.41 64.14V63.54C1028.41 62.98 1028.58 62.52 1028.92 62.16C1029.28 61.8 1029.86 61.62 1030.66 61.62C1031.44 61.62 1032.01 61.8 1032.37 62.16C1032.73 62.52 1032.91 62.98 1032.91 63.54V64.14C1032.91 64.7 1032.73 65.16 1032.37 65.52C1032.01 65.88 1031.44 66.06 1030.66 66.06ZM1043.36 84.36C1042.2 84.36 1041.16 84.17 1040.24 83.79C1039.34 83.39 1038.57 82.84 1037.93 82.14C1037.31 81.42 1036.83 80.56 1036.49 79.56C1036.15 78.54 1035.98 77.4 1035.98 76.14C1035.98 74.9 1036.14 73.78 1036.46 72.78C1036.8 71.78 1037.28 70.93 1037.9 70.23C1038.52 69.51 1039.28 68.96 1040.18 68.58C1041.08 68.18 1042.1 67.98 1043.24 67.98C1044.46 67.98 1045.52 68.19 1046.42 68.61C1047.32 69.03 1048.06 69.6 1048.64 70.32C1049.22 71.04 1049.65 71.88 1049.93 72.84C1050.23 73.78 1050.38 74.79 1050.38 75.87V77.13H1039.97V77.52C1039.97 78.66 1040.29 79.58 1040.93 80.28C1041.57 80.96 1042.52 81.3 1043.78 81.3C1044.74 81.3 1045.52 81.1 1046.12 80.7C1046.74 80.3 1047.29 79.79 1047.77 79.17L1049.84 81.48C1049.2 82.38 1048.32 83.09 1047.2 83.61C1046.1 84.11 1044.82 84.36 1043.36 84.36ZM1043.3 70.86C1042.28 70.86 1041.47 71.2 1040.87 71.88C1040.27 72.56 1039.97 73.44 1039.97 74.52V74.76H1046.39V74.49C1046.39 73.41 1046.12 72.54 1045.58 71.88C1045.06 71.2 1044.3 70.86 1043.3 70.86ZM1059.94 84.36C1058.78 84.36 1057.75 84.17 1056.85 83.79C1055.95 83.41 1055.19 82.86 1054.57 82.14C1053.97 81.42 1053.51 80.56 1053.19 79.56C1052.87 78.54 1052.71 77.4 1052.71 76.14C1052.71 74.88 1052.87 73.75 1053.19 72.75C1053.51 71.75 1053.97 70.9 1054.57 70.2C1055.19 69.48 1055.95 68.93 1056.85 68.55C1057.75 68.17 1058.78 67.98 1059.94 67.98C1061.52 67.98 1062.82 68.33 1063.84 69.03C1064.88 69.73 1065.63 70.7 1066.09 71.94L1062.94 73.35C1062.76 72.69 1062.42 72.15 1061.92 71.73C1061.44 71.29 1060.78 71.07 1059.94 71.07C1058.86 71.07 1058.05 71.41 1057.51 72.09C1056.99 72.77 1056.73 73.66 1056.73 74.76V77.61C1056.73 78.71 1056.99 79.6 1057.51 80.28C1058.05 80.94 1058.86 81.27 1059.94 81.27C1060.86 81.27 1061.57 81.04 1062.07 80.58C1062.57 80.1 1062.96 79.51 1063.24 78.81L1066.18 80.22C1065.66 81.6 1064.87 82.64 1063.81 83.34C1062.75 84.02 1061.46 84.36 1059.94 84.36ZM1074.03 84C1072.71 84 1071.7 83.66 1071 82.98C1070.32 82.28 1069.98 81.29 1069.98 80.01V71.4H1067.67V68.34H1068.87C1069.45 68.34 1069.84 68.21 1070.04 67.95C1070.26 67.67 1070.37 67.26 1070.37 66.72V64.05H1073.82V68.34H1077.03V71.4H1073.82V80.94H1076.79V84H1074.03ZM1085.49 84.36C1083.99 84.36 1082.73 84.11 1081.71 83.61C1080.69 83.09 1079.79 82.38 1079.01 81.48L1081.35 79.2C1081.93 79.86 1082.56 80.38 1083.24 80.76C1083.94 81.14 1084.74 81.33 1085.64 81.33C1086.56 81.33 1087.22 81.17 1087.62 80.85C1088.04 80.53 1088.25 80.09 1088.25 79.53C1088.25 79.07 1088.1 78.71 1087.8 78.45C1087.52 78.17 1087.03 77.98 1086.33 77.88L1084.77 77.67C1083.07 77.45 1081.77 76.97 1080.87 76.23C1079.99 75.47 1079.55 74.37 1079.55 72.93C1079.55 72.17 1079.69 71.49 1079.97 70.89C1080.25 70.27 1080.65 69.75 1081.17 69.33C1081.69 68.89 1082.31 68.56 1083.03 68.34C1083.77 68.1 1084.59 67.98 1085.49 67.98C1086.25 67.98 1086.92 68.04 1087.5 68.16C1088.1 68.26 1088.64 68.42 1089.12 68.64C1089.6 68.84 1090.04 69.1 1090.44 69.42C1090.84 69.72 1091.23 70.06 1091.61 70.44L1089.36 72.69C1088.9 72.21 1088.35 71.81 1087.71 71.49C1087.07 71.17 1086.37 71.01 1085.61 71.01C1084.77 71.01 1084.16 71.16 1083.78 71.46C1083.42 71.76 1083.24 72.15 1083.24 72.63C1083.24 73.15 1083.39 73.55 1083.69 73.83C1084.01 74.09 1084.54 74.28 1085.28 74.4L1086.87 74.61C1090.25 75.09 1091.94 76.63 1091.94 79.23C1091.94 79.99 1091.78 80.69 1091.46 81.33C1091.16 81.95 1090.73 82.49 1090.17 82.95C1089.61 83.39 1088.93 83.74 1088.13 84C1087.35 84.24 1086.47 84.36 1085.49 84.36Z" fill="black"/>
<path d="M861.55 84V68.52H863.95V71.04H864.07C864.25 70.64 864.45 70.27 864.67 69.93C864.91 69.57 865.19 69.26 865.51 69C865.85 68.74 866.24 68.54 866.68 68.4C867.12 68.24 867.64 68.16 868.24 68.16C869.26 68.16 870.2 68.41 871.06 68.91C871.92 69.39 872.56 70.19 872.98 71.31H873.04C873.32 70.47 873.84 69.74 874.6 69.12C875.38 68.48 876.43 68.16 877.75 68.16C879.33 68.16 880.56 68.68 881.44 69.72C882.34 70.74 882.79 72.19 882.79 74.07V84H880.39V74.49C880.39 73.11 880.12 72.07 879.58 71.37C879.04 70.67 878.18 70.32 877 70.32C876.52 70.32 876.06 70.38 875.62 70.5C875.2 70.62 874.82 70.8 874.48 71.04C874.14 71.28 873.87 71.59 873.67 71.97C873.47 72.33 873.37 72.76 873.37 73.26V84H870.97V74.49C870.97 73.11 870.7 72.07 870.16 71.37C869.62 70.67 868.78 70.32 867.64 70.32C867.16 70.32 866.7 70.38 866.26 70.5C865.82 70.62 865.43 70.8 865.09 71.04C864.75 71.28 864.47 71.59 864.25 71.97C864.05 72.33 863.95 72.76 863.95 73.26V84H861.55ZM898.991 84C898.091 84 897.441 83.76 897.041 83.28C896.661 82.8 896.421 82.2 896.321 81.48H896.171C895.831 82.44 895.271 83.16 894.491 83.64C893.711 84.12 892.781 84.36 891.701 84.36C890.061 84.36 888.781 83.94 887.861 83.1C886.961 82.26 886.511 81.12 886.511 79.68C886.511 78.22 887.041 77.1 888.101 76.32C889.181 75.54 890.851 75.15 893.111 75.15H896.171V73.62C896.171 72.52 895.871 71.68 895.271 71.1C894.671 70.52 893.751 70.23 892.511 70.23C891.571 70.23 890.781 70.44 890.141 70.86C889.521 71.28 889.001 71.84 888.581 72.54L887.141 71.19C887.561 70.35 888.231 69.64 889.151 69.06C890.071 68.46 891.231 68.16 892.631 68.16C894.511 68.16 895.971 68.62 897.011 69.54C898.051 70.46 898.571 71.74 898.571 73.38V81.9H900.341V84H898.991ZM892.091 82.32C892.691 82.32 893.241 82.25 893.741 82.11C894.241 81.97 894.671 81.77 895.031 81.51C895.391 81.25 895.671 80.95 895.871 80.61C896.071 80.27 896.171 79.9 896.171 79.5V76.95H892.991C891.611 76.95 890.601 77.15 889.961 77.55C889.341 77.95 889.031 78.53 889.031 79.29V79.92C889.031 80.68 889.301 81.27 889.841 81.69C890.401 82.11 891.151 82.32 892.091 82.32ZM904.967 64.89C904.447 64.89 904.067 64.77 903.827 64.53C903.607 64.27 903.497 63.94 903.497 63.54V63.15C903.497 62.75 903.607 62.43 903.827 62.19C904.067 61.93 904.447 61.8 904.967 61.8C905.487 61.8 905.857 61.93 906.077 62.19C906.317 62.43 906.437 62.75 906.437 63.15V63.54C906.437 63.94 906.317 64.27 906.077 64.53C905.857 64.77 905.487 64.89 904.967 64.89ZM903.767 68.52H906.167V84H903.767V68.52ZM911.267 84V68.52H913.667V71.04H913.787C914.167 70.16 914.697 69.46 915.377 68.94C916.077 68.42 917.007 68.16 918.167 68.16C919.767 68.16 921.027 68.68 921.947 69.72C922.887 70.74 923.357 72.19 923.357 74.07V84H920.957V74.49C920.957 71.71 919.787 70.32 917.447 70.32C916.967 70.32 916.497 70.38 916.037 70.5C915.597 70.62 915.197 70.8 914.837 71.04C914.477 71.28 914.187 71.59 913.967 71.97C913.767 72.33 913.667 72.76 913.667 73.26V84H911.267Z" fill="black"/>
<path d="M1159.8 84C1158.9 84 1158.25 83.76 1157.85 83.28C1157.47 82.8 1157.23 82.2 1157.13 81.48H1156.98C1156.64 82.44 1156.08 83.16 1155.3 83.64C1154.52 84.12 1153.59 84.36 1152.51 84.36C1150.87 84.36 1149.59 83.94 1148.67 83.1C1147.77 82.26 1147.32 81.12 1147.32 79.68C1147.32 78.22 1147.85 77.1 1148.91 76.32C1149.99 75.54 1151.66 75.15 1153.92 75.15H1156.98V73.62C1156.98 72.52 1156.68 71.68 1156.08 71.1C1155.48 70.52 1154.56 70.23 1153.32 70.23C1152.38 70.23 1151.59 70.44 1150.95 70.86C1150.33 71.28 1149.81 71.84 1149.39 72.54L1147.95 71.19C1148.37 70.35 1149.04 69.64 1149.96 69.06C1150.88 68.46 1152.04 68.16 1153.44 68.16C1155.32 68.16 1156.78 68.62 1157.82 69.54C1158.86 70.46 1159.38 71.74 1159.38 73.38V81.9H1161.15V84H1159.8ZM1152.9 82.32C1153.5 82.32 1154.05 82.25 1154.55 82.11C1155.05 81.97 1155.48 81.77 1155.84 81.51C1156.2 81.25 1156.48 80.95 1156.68 80.61C1156.88 80.27 1156.98 79.9 1156.98 79.5V76.95H1153.8C1152.42 76.95 1151.41 77.15 1150.77 77.55C1150.15 77.95 1149.84 78.53 1149.84 79.29V79.92C1149.84 80.68 1150.11 81.27 1150.65 81.69C1151.21 82.11 1151.96 82.32 1152.9 82.32ZM1164.58 61.8H1166.98V71.04H1167.1C1167.5 70.06 1168.08 69.34 1168.84 68.88C1169.62 68.4 1170.55 68.16 1171.63 68.16C1172.59 68.16 1173.46 68.35 1174.24 68.73C1175.02 69.11 1175.68 69.65 1176.22 70.35C1176.78 71.05 1177.2 71.9 1177.48 72.9C1177.78 73.9 1177.93 75.02 1177.93 76.26C1177.93 77.5 1177.78 78.62 1177.48 79.62C1177.2 80.62 1176.78 81.47 1176.22 82.17C1175.68 82.87 1175.02 83.41 1174.24 83.79C1173.46 84.17 1172.59 84.36 1171.63 84.36C1169.53 84.36 1168.02 83.4 1167.1 81.48H1166.98V84H1164.58V61.8ZM1170.97 82.2C1172.33 82.2 1173.4 81.78 1174.18 80.94C1174.96 80.08 1175.35 78.96 1175.35 77.58V74.94C1175.35 73.56 1174.96 72.45 1174.18 71.61C1173.4 70.75 1172.33 70.32 1170.97 70.32C1170.43 70.32 1169.91 70.4 1169.41 70.56C1168.93 70.7 1168.51 70.9 1168.15 71.16C1167.79 71.42 1167.5 71.74 1167.28 72.12C1167.08 72.48 1166.98 72.87 1166.98 73.29V79.05C1166.98 79.55 1167.08 80 1167.28 80.4C1167.5 80.78 1167.79 81.11 1168.15 81.39C1168.51 81.65 1168.93 81.85 1169.41 81.99C1169.91 82.13 1170.43 82.2 1170.97 82.2ZM1187.83 84.36C1186.79 84.36 1185.84 84.17 1184.98 83.79C1184.12 83.41 1183.38 82.87 1182.76 82.17C1182.16 81.45 1181.69 80.6 1181.35 79.62C1181.01 78.62 1180.84 77.5 1180.84 76.26C1180.84 75.04 1181.01 73.93 1181.35 72.93C1181.69 71.93 1182.16 71.08 1182.76 70.38C1183.38 69.66 1184.12 69.11 1184.98 68.73C1185.84 68.35 1186.79 68.16 1187.83 68.16C1188.87 68.16 1189.81 68.35 1190.65 68.73C1191.51 69.11 1192.25 69.66 1192.87 70.38C1193.49 71.08 1193.97 71.93 1194.31 72.93C1194.65 73.93 1194.82 75.04 1194.82 76.26C1194.82 77.5 1194.65 78.62 1194.31 79.62C1193.97 80.6 1193.49 81.45 1192.87 82.17C1192.25 82.87 1191.51 83.41 1190.65 83.79C1189.81 84.17 1188.87 84.36 1187.83 84.36ZM1187.83 82.23C1189.13 82.23 1190.19 81.83 1191.01 81.03C1191.83 80.23 1192.24 79.01 1192.24 77.37V75.15C1192.24 73.51 1191.83 72.29 1191.01 71.49C1190.19 70.69 1189.13 70.29 1187.83 70.29C1186.53 70.29 1185.47 70.69 1184.65 71.49C1183.83 72.29 1183.42 73.51 1183.42 75.15V77.37C1183.42 79.01 1183.83 80.23 1184.65 81.03C1185.47 81.83 1186.53 82.23 1187.83 82.23ZM1208.3 81.48H1208.18C1208.02 81.84 1207.82 82.2 1207.58 82.56C1207.36 82.9 1207.08 83.21 1206.74 83.49C1206.4 83.75 1205.99 83.96 1205.51 84.12C1205.03 84.28 1204.47 84.36 1203.83 84.36C1202.23 84.36 1200.96 83.85 1200.02 82.83C1199.08 81.79 1198.61 80.33 1198.61 78.45V68.52H1201.01V78.03C1201.01 80.81 1202.19 82.2 1204.55 82.2C1205.03 82.2 1205.49 82.14 1205.93 82.02C1206.39 81.9 1206.79 81.72 1207.13 81.48C1207.49 81.24 1207.77 80.94 1207.97 80.58C1208.19 80.2 1208.3 79.75 1208.3 79.23V68.52H1210.7V84H1208.3V81.48ZM1219.24 84C1218.4 84 1217.76 83.77 1217.32 83.31C1216.9 82.83 1216.69 82.21 1216.69 81.45V70.62H1214.14V68.52H1215.58C1216.1 68.52 1216.45 68.42 1216.63 68.22C1216.83 68 1216.93 67.63 1216.93 67.11V64.23H1219.09V68.52H1222.48V70.62H1219.09V81.9H1222.24V84H1219.24Z" fill="black"/>
<path d="M1285.55 61.8H1287.95V71.04H1288.07C1288.47 70.06 1289.05 69.34 1289.81 68.88C1290.59 68.4 1291.52 68.16 1292.6 68.16C1293.56 68.16 1294.43 68.35 1295.21 68.73C1295.99 69.11 1296.65 69.65 1297.19 70.35C1297.75 71.05 1298.17 71.9 1298.45 72.9C1298.75 73.9 1298.9 75.02 1298.9 76.26C1298.9 77.5 1298.75 78.62 1298.45 79.62C1298.17 80.62 1297.75 81.47 1297.19 82.17C1296.65 82.87 1295.99 83.41 1295.21 83.79C1294.43 84.17 1293.56 84.36 1292.6 84.36C1290.5 84.36 1288.99 83.4 1288.07 81.48H1287.95V84H1285.55V61.8ZM1291.94 82.2C1293.3 82.2 1294.37 81.78 1295.15 80.94C1295.93 80.08 1296.32 78.96 1296.32 77.58V74.94C1296.32 73.56 1295.93 72.45 1295.15 71.61C1294.37 70.75 1293.3 70.32 1291.94 70.32C1291.4 70.32 1290.88 70.4 1290.38 70.56C1289.9 70.7 1289.48 70.9 1289.12 71.16C1288.76 71.42 1288.47 71.74 1288.25 72.12C1288.05 72.48 1287.95 72.87 1287.95 73.29V79.05C1287.95 79.55 1288.05 80 1288.25 80.4C1288.47 80.78 1288.76 81.11 1289.12 81.39C1289.48 81.65 1289.9 81.85 1290.38 81.99C1290.88 82.13 1291.4 82.2 1291.94 82.2ZM1305.5 84C1304.66 84 1304.02 83.77 1303.58 83.31C1303.16 82.83 1302.95 82.23 1302.95 81.51V61.8H1305.35V81.9H1307.63V84H1305.5ZM1316.98 84.36C1315.94 84.36 1314.99 84.17 1314.13 83.79C1313.27 83.41 1312.53 82.87 1311.91 82.17C1311.31 81.45 1310.84 80.6 1310.5 79.62C1310.16 78.62 1309.99 77.5 1309.99 76.26C1309.99 75.04 1310.16 73.93 1310.5 72.93C1310.84 71.93 1311.31 71.08 1311.91 70.38C1312.53 69.66 1313.27 69.11 1314.13 68.73C1314.99 68.35 1315.94 68.16 1316.98 68.16C1318.02 68.16 1318.96 68.35 1319.8 68.73C1320.66 69.11 1321.4 69.66 1322.02 70.38C1322.64 71.08 1323.12 71.93 1323.46 72.93C1323.8 73.93 1323.97 75.04 1323.97 76.26C1323.97 77.5 1323.8 78.62 1323.46 79.62C1323.12 80.6 1322.64 81.45 1322.02 82.17C1321.4 82.87 1320.66 83.41 1319.8 83.79C1318.96 84.17 1318.02 84.36 1316.98 84.36ZM1316.98 82.23C1318.28 82.23 1319.34 81.83 1320.16 81.03C1320.98 80.23 1321.39 79.01 1321.39 77.37V75.15C1321.39 73.51 1320.98 72.29 1320.16 71.49C1319.34 70.69 1318.28 70.29 1316.98 70.29C1315.68 70.29 1314.62 70.69 1313.8 71.49C1312.98 72.29 1312.57 73.51 1312.57 75.15V77.37C1312.57 79.01 1312.98 80.23 1313.8 81.03C1314.62 81.83 1315.68 82.23 1316.98 82.23ZM1340.96 85.71C1340.96 87.31 1340.33 88.48 1339.07 89.22C1337.83 89.98 1335.96 90.36 1333.46 90.36C1331.04 90.36 1329.3 90.03 1328.24 89.37C1327.18 88.71 1326.65 87.77 1326.65 86.55C1326.65 85.71 1326.87 85.05 1327.31 84.57C1327.75 84.11 1328.35 83.77 1329.11 83.55V83.22C1328.19 82.78 1327.73 82.06 1327.73 81.06C1327.73 80.28 1327.98 79.69 1328.48 79.29C1328.98 78.87 1329.62 78.56 1330.4 78.36V78.24C1329.48 77.8 1328.76 77.17 1328.24 76.35C1327.74 75.53 1327.49 74.58 1327.49 73.5C1327.49 72.72 1327.63 72 1327.91 71.34C1328.19 70.68 1328.58 70.12 1329.08 69.66C1329.6 69.18 1330.21 68.81 1330.91 68.55C1331.63 68.29 1332.43 68.16 1333.31 68.16C1334.41 68.16 1335.39 68.36 1336.25 68.76V68.49C1336.25 67.89 1336.39 67.4 1336.67 67.02C1336.95 66.62 1337.41 66.42 1338.05 66.42H1340.36V68.52H1337.42V69.51C1337.98 69.99 1338.41 70.57 1338.71 71.25C1339.03 71.91 1339.19 72.66 1339.19 73.5C1339.19 74.28 1339.05 75 1338.77 75.66C1338.49 76.32 1338.09 76.89 1337.57 77.37C1337.07 77.83 1336.46 78.19 1335.74 78.45C1335.02 78.71 1334.22 78.84 1333.34 78.84C1332.84 78.84 1332.34 78.79 1331.84 78.69C1331.32 78.83 1330.85 79.04 1330.43 79.32C1330.01 79.58 1329.8 79.95 1329.8 80.43C1329.8 80.89 1330.02 81.2 1330.46 81.36C1330.9 81.52 1331.47 81.6 1332.17 81.6H1335.47C1337.39 81.6 1338.78 81.97 1339.64 82.71C1340.52 83.43 1340.96 84.43 1340.96 85.71ZM1338.71 85.89C1338.71 85.27 1338.47 84.77 1337.99 84.39C1337.53 84.03 1336.7 83.85 1335.5 83.85H1330.34C1329.38 84.29 1328.9 84.99 1328.9 85.95C1328.9 86.63 1329.15 87.21 1329.65 87.69C1330.17 88.17 1331.04 88.41 1332.26 88.41H1334.48C1335.82 88.41 1336.86 88.2 1337.6 87.78C1338.34 87.36 1338.71 86.73 1338.71 85.89ZM1333.34 76.92C1334.36 76.92 1335.17 76.68 1335.77 76.2C1336.37 75.7 1336.67 74.94 1336.67 73.92V73.08C1336.67 72.06 1336.37 71.31 1335.77 70.83C1335.17 70.33 1334.36 70.08 1333.34 70.08C1332.32 70.08 1331.51 70.33 1330.91 70.83C1330.31 71.31 1330.01 72.06 1330.01 73.08V73.92C1330.01 74.94 1330.31 75.7 1330.91 76.2C1331.51 76.68 1332.32 76.92 1333.34 76.92Z" fill="black"/>
<circle cx="126" cy="73" r="13" fill="#0000FF"/>
</svg>
